<svg xmlns="http://www.w3.org/2000/svg" width="110" height="170" fill="none"><g clip-path="url(#a)"><path fill="#93AF45" d="M60.606 112.664a45.43 45.43 0 0 0-10.407-22.89c-1.597-1.862-3.536-3.692-5.969-4.007-.453 5.576 2.149 10.976 5.438 15.502s7.316 8.497 10.381 13.178"/><path fill="#93AF45" d="M60.027 112.759c-.11-.671-.193-1.364-.326-2.017a36 36 0 0 0-.409-1.977c-.299-1.318-.697-2.612-1.124-3.894a38 38 0 0 0-1.499-3.765 43 43 0 0 0-1.846-3.604c-.654-1.18-1.409-2.302-2.184-3.404-.793-1.089-1.613-2.157-2.501-3.167-.868-1.027-1.787-1.992-2.8-2.75-1.009-.76-2.121-1.287-3.241-1.387l1.165-.943-.012.98.051.977q.089.976.277 1.942.205.963.497 1.907.306.941.688 1.86a30 30 0 0 0 1.798 3.57q.518.863 1.067 1.711c.37.557.767 1.127 1.15 1.653l1.242 1.646 1.276 1.624 2.592 3.281a66 66 0 0 1 2.493 3.43q.59.89 1.142 1.806.543.925 1.017 1.887a.59.59 0 0 1-.982.643c-1.806-2.108-3.679-4.117-5.566-6.174-.935-1.035-1.882-2.071-2.793-3.153l-1.35-1.647a44 44 0 0 1-2.518-3.502c-.391-.61-.768-1.23-1.119-1.868-.698-1.277-1.339-2.598-1.831-3.986q-.368-1.042-.651-2.115a24 24 0 0 1-.44-2.18 22 22 0 0 1-.192-2.225l.011-1.119.088-1.116.002-.028a1.01 1.01 0 0 1 1.083-.925l.081.01c1.611.258 2.996 1.086 4.103 2.04 1.111.971 2.029 2.056 2.882 3.152a45 45 0 0 1 2.429 3.391 58 58 0 0 1 2.116 3.584 44 44 0 0 1 1.814 3.739 57 57 0 0 1 1.49 3.876c.44 1.313.828 2.642 1.154 3.988.176.668.324 1.348.464 2.032.153.685.245 1.351.37 2.027a.586.586 0 1 1-1.154.214l-.002-.009zM60.298 100.926a131 131 0 0 1 6.795-15.8c1.106-2.168 2.4-4.433 4.578-5.518.483.246.656.842.744 1.377.826 4.992-1.439 9.952-3.996 14.32-1.995 3.405-4.342 6.812-7.805 8.706"/><path fill="#93AF45" d="M59.746 100.728c.711-1.917 1.47-3.83 2.231-5.732.782-1.895 1.562-3.793 2.403-5.665.856-1.872 1.674-3.733 2.603-5.598.475-.933 1.011-1.864 1.695-2.733.67-.874 1.525-1.68 2.564-2.253a.89.89 0 0 1 .809-.024l.058.028c.554.268.883.765 1.049 1.156.172.41.249.752.306 1.112.047.301.107.573.143.898.031.331.068.671.084 1a18 18 0 0 1-.031 1.931 21 21 0 0 1-.255 1.901c-.466 2.511-1.432 4.852-2.564 7.03a46 46 0 0 1-.876 1.616 47 47 0 0 1-.944 1.562 28.5 28.5 0 0 1-2.152 3.024c-1.586 1.91-3.578 3.673-5.973 4.546a.594.594 0 0 1-.574-1.021l.011-.008c1.804-1.435 3.254-3.135 4.521-5.034.652-.93 1.234-1.932 1.833-2.919l.874-1.52c.291-.506.577-1.012.846-1.523 1.079-2.043 2.022-4.124 2.594-6.28.138-.54.247-1.083.336-1.629.074-.546.125-1.094.141-1.643l-.003-.788c-.005-.27-.045-.587-.066-.879a2.7 2.7 0 0 0-.104-.625c-.053-.159-.086-.184-.071-.19l.866.004c-.786.352-1.51.906-2.14 1.603-.624.703-1.166 1.518-1.667 2.377-.498.854-.983 1.768-1.458 2.66a69 69 0 0 0-1.364 2.727c-.878 1.833-1.727 3.683-2.488 5.57-.783 1.88-1.475 3.786-2.132 5.718a.587.587 0 1 1-1.105-.399"/><path fill="#FF9FA1" d="m81.09 12.876-.005-.03a1.015 1.015 0 0 0-.924-.803c-3.197-.216-6.358.395-9.268 1.464-2.922 1.072-5.639 2.511-8.227 4.16-2.578 1.655-5.026 3.657-6.919 6.155-1.325 1.75-2.348 3.761-2.908 5.908-1.258-2.929-3.102-5.616-5.323-7.876a24.2 24.2 0 0 0-4.734-3.756 25 25 0 0 0-5.496-2.487 24.8 24.8 0 0 0-5.922-1.149c-1.019-.082-2.011-.072-3.036-.027-.514.007-1.275.23-1.701.704-.447.446-.668.91-.93 1.367-.988 1.887-1.213 4.038-1.096 6.057.117 2.035.542 4.008.993 5.93l.005.02c.304 1.764.748 3.44 1.276 5.118a43 43 0 0 0 1.917 4.971c1.475 3.236 3.343 6.358 5.837 9.023a26 26 0 0 0 4.166 3.577 23.4 23.4 0 0 0 4.954 2.5c1.762.591 3.586 1 5.43 1.175.923.077 1.839.105 2.771.107.918-.055 1.93-.04 2.761-.174l1.298-.167c.537-.052.911-.184 1.375-.272l2.653-.597c.894-.154 1.742-.512 2.603-.81.854-.323 1.728-.588 2.562-.959 1.622-.857 3.313-1.586 4.775-2.727 1.562-.98 2.883-2.292 4.203-3.568l1.796-2.1c.535-.746 1.025-1.526 1.536-2.288a31.6 31.6 0 0 0 2.381-4.934c.336-.846.566-1.73.851-2.592.219-.88.448-1.762.615-2.652.34-1.799.545-3.553.548-5.47l-.005.14a44.6 44.6 0 0 0-.812-12.938"/><path fill="#7B8E36" d="M58.12 72.372s.17 1.508.537 4.137l.615 4.771c.249 1.848.501 3.933.725 6.208.291 2.27.508 4.738.775 7.347.145 1.304.251 2.647.359 4.02l.368 4.202c.168 2.858.465 5.81.6 8.82.23 3.008.323 6.07.462 9.138.048 3.065.156 6.14.07 9.162-.006 3.027-.199 5.997-.366 8.874-.085 1.438-.252 2.846-.379 4.226-.129 1.381-.265 2.73-.436 4.04-.341 2.619-.725 5.088-1.202 7.345a78 78 0 0 1-1.467 6.124c-.524 1.805-.982 3.374-1.466 4.644-.442 1.278-.85 2.266-1.121 2.941a31 31 0 0 1-.442 1.028 1.505 1.505 0 0 1-2.869-.569l-.001-.038s-.016-.389-.016-1.111c.007-.72.007-1.777.084-3.102l.276-4.771.542-6.13c.248-2.235.502-4.656.808-7.21.374-2.547.599-5.252.963-8.037.288-2.793.641-5.676.928-8.616.327-2.938.577-5.93.859-8.928.203-2.999.453-6.004.562-8.969.135-2.964.174-5.885.166-8.712-.055-2.825-.078-5.563-.252-8.149-.127-2.59-.309-5.036-.524-7.289a157 157 0 0 0-.688-6.13 80 80 0 0 0-.671-4.717c-.42-2.62-.699-4.113-.699-4.113a1.468 1.468 0 1 1 2.886-.54z"/><path fill="#FFC8C7" d="m63.861 37.117-.003-.023a.7.7 0 0 0-.173-.378 13.1 13.1 0 0 0-4.577-3.204 12.8 12.8 0 0 0-2.683-.783 15 15 0 0 0-1.393-.163 14 14 0 0 0-1.407-.002c-1.867.09-3.712.627-5.341 1.518-.814.446-1.624.965-2.33 1.574-.351.307-.754.631-1.074.97-.331.364-1.036.722-1.294 1.068-.078.105-.669.236-.669.378v.075c0 2.052.739 4.07 1.053 6.087.323 2.014 1.185 4.015 1.835 5.99.676 1.962 1.552 3.935 2.9 5.738.68.893 1.531 1.767 2.629 2.42 1.108.657 2.477.985 3.884.741.174-.029.376-.06.53-.096l.361-.115.359-.115.194-.068.098-.05.194-.104c.511-.283 1.031-.553 1.519-.862l1.311-1.128c.396-.406.724-.867 1.081-1.3.63-.913 1.187-1.874 1.564-2.875.218-.494.405-.995.537-1.506.138-.509.326-1.01.411-1.525.236-1.022.394-2.046.515-3.07q.157-1.54.206-3.07c.064-2.05.005-4.065-.237-6.122"/><path fill="#FF8189" d="M55.144 70.976c-10.653-.17-21.152-4.979-28.24-12.933-7.089-7.954-10.661-18.934-9.61-29.537 9.48-.664 19.176 2.595 26.33 8.852S55.3 52.79 55.904 62.275"/><path fill="#FF8189" d="m55.117 71.38-1.994.014-2.035-.153-2.003-.286-1.983-.403-1.961-.5-1.933-.602-1.9-.699-1.863-.795-1.82-.888-1.778-.972-1.729-1.058-1.673-1.145-1.613-1.23-1.548-1.313-1.478-1.393-1.402-1.47-1.316-1.526-1.26-1.62-1.163-1.67-1.075-1.729-.985-1.783-.893-1.83-.8-1.876-.705-1.914-.615-1.947-.523-1.974-.422-2.002-.32-2.023-.216-2.04-.11-2.05L16 30.444l.113-2.057a1.126 1.126 0 0 1 1.057-1.063l.039-.002 1.839-.11 1.843-.018 1.842.076 1.837.167 1.827.257 1.814.345 1.796.433 1.77.53 1.743.615 1.712.7 1.678.782 1.636.868 1.59.952 1.542 1.031 1.489 1.107 1.46 1.208 1.305 1.212 1.319 1.358 1.221 1.394 1.148 1.454 1.06 1.517.984 1.565.907 1.61.81 1.657.728 1.693.64 1.725.542 1.756.454 1.778.341 1.801.251 1.811.158 1.817.033 1.821a.629.629 0 0 1-1.25.107l-.004-.027a65 65 0 0 0-.624-3.436l-.423-1.686-.505-1.659-.561-1.636-.637-1.604-.7-1.575-.769-1.539-.84-1.498-.894-1.464-.962-1.418-1.029-1.368-1.08-1.325-1.141-1.27-1.175-1.186-1.315-1.2-1.281-1.068-1.364-1.025-1.415-.956-1.461-.886-1.501-.818-1.538-.75-1.573-.676-1.605-.6-1.632-.524-1.653-.456-1.674-.376-1.691-.294-1.705-.21-1.714-.128-1.719-.04-1.719.047 1.097-1.066-.174 1.926-.074 1.935.028 1.94.129 1.937.229 1.931.327 1.92.424 1.903.525 1.88.625 1.85.717 1.817.809 1.78.899 1.738.987 1.69 1.074 1.637 1.148 1.565 1.259 1.526 1.334 1.436 1.41 1.364 1.481 1.29 1.547 1.21 1.608 1.13 1.664 1.046 1.717.96 1.767.864 1.808.775 1.844.683 1.877.59 1.904.49 1.929.38 1.945.28 1.939.176 1.995.074c.347.013.618.192.605.54-.013.346-.304.492-.651.492z"/><path fill="#FF8189" d="M55.76 62.004c-.653-10.098 3.232-20.405 10.388-27.56S83.611 23.406 93.709 24.06c.808 9.664-2.862 19.38-8.87 26.992s-14.206 13.27-22.936 17.491l1.391-.505"/><path fill="#FF8189" d="m54.917 62.027.049-1.895.1-1.946.178-1.922.267-1.91.353-1.895.443-1.875.538-1.85.632-1.82.725-1.784.814-1.746.896-1.706.984-1.658 1.071-1.604 1.155-1.546 1.238-1.482 1.319-1.412 1.382-1.324 1.474-1.28 1.526-1.188 1.588-1.106 1.645-1.02 1.697-.935 1.744-.845 1.787-.754 1.824-.662 1.856-.57 1.884-.482 1.909-.383 1.929-.282 1.944-.178 1.954-.073 1.958.035c.558.01 1.009.444 1.052.99l.003.045.139 1.88.027 1.882-.077 1.882-.177 1.875-.273 1.863-.366 1.846-.455 1.826-.541 1.802-.628 1.773-.713 1.74-.788 1.705-.859 1.671-.93 1.632-1.004 1.587-1.068 1.544-1.146 1.521-1.149 1.41-1.26 1.42a65 65 0 0 1-2.633 2.65l-1.38 1.255-1.43 1.193a75 75 0 0 1-2.957 2.251 79 79 0 0 1-3.092 2.043 66 66 0 0 1-3.197 1.853 61 61 0 0 1-3.292 1.657 87 87 0 0 1-3.364 1.482l-.572-1.355 1.428-.404a.63.63 0 0 1 .429 1.181l-1.354.607a.733.733 0 0 1-.666-1.303l.093-.053c1.047-.597 2.09-1.193 3.117-1.815l3.04-1.915a136 136 0 0 0 2.961-2.012 81 81 0 0 0 2.86-2.132 74 74 0 0 0 2.752-2.25q1.33-1.174 2.615-2.392a61 61 0 0 0 2.46-2.538l1.148-1.304 1.156-1.402 1.048-1.378 1.007-1.44.948-1.48.893-1.514.832-1.548.765-1.58.695-1.613.63-1.638.559-1.663.48-1.687.398-1.708.311-1.725.222-1.739.129-1.748.032-1.752-.061-1.752 1.055 1.035-1.831-.105-1.837-.003-1.838.096-1.833.195-1.822.292-1.807.387-1.785.488-1.757.583-1.726.673-1.69.762-1.649.85-1.604.934L70.9 31.36l-1.497 1.101-1.42 1.17-1.373 1.281-1.287 1.343-1.212 1.412-1.134 1.477-1.054 1.536-.972 1.591-.888 1.64-.794 1.688-.704 1.728-.614 1.762-.522 1.791L57 52.696l-.328 1.836-.223 1.851-.124 1.86-.023 1.844.081 1.894c.015.347-.362.64-.708.655-.347.015-.762-.254-.762-.6.004-.003.004-.009.004-.009"/><path fill="#fff" d="M18.917 31.521s.079.196.088.565c.016.366.04.915.107 1.585.036.675.155 1.495.301 2.434.09.465.196.961.297 1.483.127.517.265 1.06.405 1.626.328 1.12.706 2.33 1.22 3.565.48 1.25 1.12 2.511 1.833 3.782a38 38 0 0 0 2.465 3.751 40 40 0 0 0 3.027 3.48 45 45 0 0 0 3.44 3.096 58 58 0 0 0 3.619 2.62c1.22.781 2.42 1.506 3.602 2.115 1.162.647 2.304 1.175 3.35 1.682 1.061.474 2.033.915 2.909 1.277l2.289.893c.634.257 1.146.416 1.489.55l.527.2a.315.315 0 0 1-.162.607s-.784-.124-2.134-.456c-.681-.149-1.488-.394-2.414-.68-.922-.3-1.96-.653-3.064-1.112-2.213-.908-4.698-2.214-7.182-3.889a39 39 0 0 1-3.67-2.798 43 43 0 0 1-3.399-3.318 38.9 38.9 0 0 1-5.349-7.657c-.678-1.326-1.294-2.627-1.783-3.9-.512-1.265-.884-2.5-1.207-3.646l-.392-1.662-.279-1.515c-.132-.958-.247-1.793-.297-2.49-.078-.7-.073-1.234-.094-1.603l-.022-.564c-.007-.173.055-.319.228-.326s.253.128.253.302zM22.628 30.38s.188.05.54.106c.36.065.89.176 1.54.357 1.304.36 3.135 1.012 5.165 2.11 1.018.528 2.09 1.196 3.186 1.901.558.337 1.109.736 1.677 1.135.574.39 1.16.793 1.723 1.238 1.157.855 2.296 1.813 3.43 2.813.555.513 1.129 1.017 1.679 1.55l1.624 1.635 1.545 1.713 1.453 1.771a44 44 0 0 1 2.575 3.638c.407.6.756 1.22 1.11 1.82.359.596.697 1.188.995 1.781a43 43 0 0 1 1.583 3.386 41 41 0 0 1 1.069 2.971c.263.903.525 1.677.66 2.34.297 1.315.436 2.07.436 2.07a.315.315 0 0 1-.601.174l-.006-.015s-.285-.708-.73-1.95l-.872-2.215c-.346-.849-.787-1.787-1.236-2.818-.495-1.012-.992-2.126-1.616-3.255-.282-.58-.603-1.16-.944-1.745-.336-.588-.667-1.196-1.055-1.784-.738-1.2-1.566-2.396-2.416-3.607l-1.347-1.784-1.435-1.74-1.511-1.677c-.514-.548-1.052-1.067-1.572-1.598-1.077-1.022-2.167-2-3.277-2.88-.541-.46-1.1-.873-1.649-1.274a27 27 0 0 0-1.644-1.139c-1.097-.72-2.122-1.372-3.126-1.907-1.984-1.089-3.751-1.762-5.024-2.072a16 16 0 0 0-1.48-.31l-.542-.078c-.172-.025-.291-.203-.267-.375.025-.172.184-.286.355-.286z"/><path fill="#fff" d="m23.879 34.503.813 1.454c.253.468.578 1.02.97 1.641.382.627.822 1.33 1.327 2.082a68 68 0 0 0 1.646 2.416c.582.86 1.261 1.72 1.951 2.615.714.878 1.436 1.797 2.22 2.688.769.904 1.6 1.78 2.414 2.666.845.86 1.663 1.742 2.521 2.56l2.503 2.41c.835.757 1.627 1.505 2.415 2.171a143 143 0 0 0 2.186 1.922l3.294 2.868c.801.69 1.244 1.11 1.244 1.11l.007.005a.316.316 0 0 1-.372.506s-.534-.298-1.442-.863a37 37 0 0 1-3.62-2.549c-.734-.55-1.483-1.202-2.279-1.887-.791-.69-1.583-1.466-2.417-2.25-.813-.806-1.662-1.63-2.461-2.53-.824-.876-1.616-1.806-2.415-2.728a122 122 0 0 1-4.396-5.649c-.65-.938-1.304-1.826-1.89-2.692a71 71 0 0 1-1.628-2.454c-.991-1.528-1.752-2.858-2.295-3.764l-.84-1.439a.314.314 0 1 1 .543-.317q-.001.007.001.008M92.026 27.035s-.036.786-.298 2.174c-.275 1.376-.666 3.343-1.46 5.62-.776 2.278-1.948 4.844-3.492 7.43-1.562 2.584-3.521 5.137-5.614 7.565a114 114 0 0 1-3.207 3.534 84 84 0 0 1-3.242 3.301c-2.168 2.09-4.348 3.928-6.446 5.193-1.03.658-2.045 1.15-2.954 1.552-.913.396-1.731.691-2.422.874-.689.19-1.233.317-1.612.37l-.575.098a.314.314 0 0 1-.159-.606l.02-.007.532-.189c.349-.113.856-.29 1.484-.558a31 31 0 0 0 2.216-1.049 31 31 0 0 0 2.711-1.658c1.933-1.303 4.058-3.04 6.222-5.055 1.074-1.012 2.167-2.094 3.287-3.184a136 136 0 0 0 3.318-3.369c2.183-2.287 4.217-4.722 5.814-7.207 1.629-2.476 2.758-5.016 3.56-7.242.794-2.232 1.255-4.16 1.485-5.522.236-1.353.318-2.15.318-2.15.018-.174.061-.299.233-.28.173.017.169.171.169.343v.002zM86.397 27.577l-.5.127c-.332.076-.796.215-1.384.394-.589.194-1.301.443-2.089.8-.792.346-1.662.792-2.585 1.322-1.835 1.075-3.875 2.531-5.768 4.408-1.911 1.855-3.7 4.082-5.266 6.451-1.588 2.357-2.942 4.863-4.193 7.222a110 110 0 0 0-3.136 6.57c-.414.978-.797 1.873-1.106 2.68l-.758 2.103c-.398 1.176-.609 1.86-.609 1.86-.051.167-.463.26-.63.21-.145-.046-.457-.185-.457-.33v-.008s.299-.726.548-1.978c.244-1.25.829-3.02 1.6-5.063.76-2.046 1.936-4.34 3.229-6.715 1.274-2.393 2.845-4.859 4.565-7.197 1.732-2.329 3.674-4.516 5.683-6.352 2.021-1.82 4.081-3.335 5.982-4.4a28.4 28.4 0 0 1 4.799-2.15c.61-.198 1.092-.348 1.415-.428l.499-.135a.315.315 0 0 1 .386.221.313.313 0 0 1-.221.385q-.002.003-.004.003"/><path fill="#fff" d="M84.881 32.613s-1.334 2.013-3.287 5.071l-3.407 5.181a212 212 0 0 1-4.059 5.855c-.729.972-1.452 1.95-2.209 2.88-.731.95-1.515 1.833-2.269 2.691-.776.84-1.513 1.664-2.259 2.403-.753.731-1.459 1.428-2.167 2.013-.68.614-1.345 1.13-1.939 1.58-.594.448-1.115.834-1.574 1.113-.894.588-1.419.9-1.419.9a.315.315 0 0 1-.383-.496l.01-.01s.43-.429 1.208-1.135c.389-.353.854-.788 1.379-1.296a62 62 0 0 0 1.775-1.685 87 87 0 0 0 2.06-2.03c.741-.71 1.479-1.508 2.255-2.317l2.317-2.574c.794-.875 1.549-1.809 2.329-2.724a112 112 0 0 0 4.329-5.595c1.337-1.824 2.499-3.587 3.505-5.092 2.016-3.008 3.276-5.07 3.276-5.07a.314.314 0 1 1 .536.327z"/><path fill="#7B8E36" d="M56.714 72.432c-3.401-.455-6.588-2.333-8.635-5.087-.986-1.327-1.64-3.367-.434-4.498 1.003-.942 2.654-.585 3.843.106 1.189.692 2.273 1.677 3.631 1.9 3.016.491 5.544-2.959 8.588-2.692.178.016.36.046.511.141.239.15.357.432.436.703.651 2.216-.398 4.651-2.045 6.27-1.647 1.62-3.808 2.588-5.92 3.524"/><path fill="#7B8E36" d="m56.621 73.011-.529-.093c-.355-.068-.903-.19-1.546-.395-1.288-.424-3.125-1.184-4.905-2.714-.9-.764-1.776-1.635-2.523-2.85-.35-.61-.632-1.295-.735-2.085-.115-.763.027-1.774.713-2.465a2.8 2.8 0 0 1 1.199-.746c.451-.139.91-.167 1.344-.134.869.07 1.675.368 2.398.771 1.399.78 2.474 1.63 3.639 1.548.458-.024 1.055-.19 1.636-.476.588-.28 1.19-.655 1.831-1.039.643-.38 1.325-.788 2.123-1.095.799-.304 1.713-.495 2.698-.409.261.022.763.132 1.15.44.445.355.599.703.724.982.064.165.085.211.148.436l.063.248c.041.132.086.416.121.644.121.882.037 1.701-.142 2.47a8.33 8.33 0 0 1-2.07 3.694c-.889.938-1.877 1.558-2.727 2.026-.874.448-1.643.76-2.285.975-.637.225-1.144.362-1.488.455l-.53.135a.596.596 0 0 1-.482-1.069l.006-.004s.635-.43 1.72-1.119c1.058-.702 2.618-1.668 3.836-3.13.577-.739 1.112-1.636 1.327-2.617.119-.478.172-.995.112-1.452-.02-.104-.007-.16-.061-.356l-.059-.249c.016.06-.018-.057-.019-.05-.004-.038-.03 0 .142.137.117.085.265.105.181.085-.849-.133-2.021.316-3.309.973-.649.322-1.338.686-2.12.99-.783.296-1.662.543-2.704.461l-.278-.037-.139-.018-.035-.005-.096-.012-.022-.005-.087-.02a4.6 4.6 0 0 1-.673-.205 6.6 6.6 0 0 1-1.161-.595c-.695-.442-1.269-.916-1.834-1.292-1.039-.708-2.439-.999-3.08-.35-.351.297-.483.79-.448 1.345.044.553.253 1.124.526 1.632.565.995 1.396 1.907 2.185 2.605 1.632 1.407 3.318 2.147 4.517 2.48.61.172 1.069.261 1.403.317l.532.077a.587.587 0 1 1-.187 1.16"/><path fill="#fff" d="M46.475 87.927s.521 1.335 1.434 3.267c.468.962 1.012 2.086 1.662 3.256a73 73 0 0 0 2.112 3.617c1.496 2.427 3.062 4.796 4.147 6.634 1.099 1.828 1.693 3.152 1.693 3.152a.3.3 0 0 1-.481.336s-.261-.254-.681-.728c-.43-.467-1-1.167-1.624-2.048-1.269-1.75-2.692-4.262-3.97-6.839a270 270 0 0 1-3.354-7.15l-1.476-3.264-.002-.006a.294.294 0 0 1 .535-.242zM70.754 82.051l-.007-.013c-.024-.033-.062-.202-.01-.287.113-.197.241-.272.505-.223.36.173.278.448.254.594-.049.156-.089.235-.142.377l-.826 2.178c-.663 1.812-1.53 4.235-2.452 6.657-.483 1.201-.973 2.407-1.531 3.492-.553 1.087-1.112 2.084-1.677 2.886a14 14 0 0 1-1.477 1.852c-.394.42-.639.639-.639.639a.3.3 0 0 1-.476-.339l.004-.01s.129-.302.39-.798c.248-.505.63-1.2 1.09-2.032.924-1.657 2.195-3.846 3.361-6.122 1.195-2.26 2.185-4.633 2.895-6.42.342-.9.633-1.649.816-2.18.042-.123.101-.276.114-.329.008-.029.001-.037.005-.01l.007.02c.007.017.023.037.009.018a.2.2 0 0 0 .103.077c.115.013.124.02.209-.108.036-.049.008-.186-.01-.2l.007.012a.294.294 0 1 1-.517.28z"/></g><defs><clipPath id="a"><path fill="#fff" d="M0 0h110v170H0z"/></clipPath></defs></svg>