<svg xmlns="http://www.w3.org/2000/svg" width="110" height="170" fill="none"><path fill="#FF8189" d="M30.639 67.505c-3.384-2.139-6.89-4.365-9.547-7.568a17.4 17.4 0 0 1-1.762-2.544 18 18 0 0 1-1.284-2.837c-.692-1.947-1.105-3.973-1.314-6.007-.411-4.052-.2-8.23 1.055-12.182.63-1.968 1.53-3.88 2.8-5.568 1.255-1.678 2.954-3.127 4.814-4.044a14.1 14.1 0 0 1 6.226-1.399c2.128-.01 4.236.42 6.218 1.177 1.969.746 3.85 1.936 5.386 3.314a21.4 21.4 0 0 1 4.02 4.926c2.174 3.625 3.353 7.763 3.78 11.9.446 4.17.077 8.396-1.014 12.443l.046-.266-.637 9.036c-.231 3.011-.495 6.018-.848 9.02l-.012.107a1.266 1.266 0 0 1-1.956.91l-7.952-5.254c-2.64-1.77-5.321-3.469-8.01-5.156zm.653-1.055c2.748 1.587 5.503 3.163 8.3 4.668l8.362 4.573-1.97 1.016c.107-3.02.302-6.033.53-9.044l.74-9.028.002-.012c.007-.085.024-.175.045-.255a33.9 33.9 0 0 0 1.129-11.45 29.3 29.3 0 0 0-.98-5.693c-.524-1.848-1.23-3.647-2.168-5.31a19.3 19.3 0 0 0-3.421-4.506c-1.412-1.35-2.958-2.387-4.722-3.135-1.745-.739-3.631-1.186-5.527-1.212-1.882-.072-3.82.342-5.47 1.073-1.77.826-3.228 2.03-4.426 3.536-1.184 1.502-2.078 3.252-2.69 5.102-1.237 3.712-1.508 7.732-1.162 11.666.18 1.963.532 3.915 1.189 5.758.325.916.734 1.824 1.2 2.65a16 16 0 0 0 1.667 2.405c1.238 1.512 2.76 2.785 4.356 3.951 1.6 1.163 3.302 2.202 5.016 3.247"/><path fill="#FF8189" d="m17.094 45.052-1.577-.724-1.6-.593.076.023c-1.265-.306-2.7-.237-4.06-.112-1.341.16-2.677.526-3.862 1.164-1.19.63-2.246 1.49-3.024 2.557-.77 1.072-1.314 2.324-1.49 3.626-.185 1.344-.09 2.646.217 3.97a15.4 15.4 0 0 0 1.452 3.771 21.5 21.5 0 0 0 2.303 3.374 31.5 31.5 0 0 0 2.844 2.98c2.017 1.876 4.286 3.455 6.67 4.812a45 45 0 0 0 7.509 3.42c2.58.913 5.274 1.623 7.989 2.223l2.05.416.994.194 1.059.155c1.41.232 2.82.455 4.224.758l-.1 1.237c-1.434.076-2.862.072-4.291.076l-1.07-.016-1.126-.068c-.725-.05-1.448-.138-2.172-.222a41.6 41.6 0 0 1-8.543-2c-2.757-.975-5.446-2.238-7.944-3.796a37 37 0 0 1-3.61-2.563 34 34 0 0 1-3.266-2.967 33 33 0 0 1-2.841-3.386 23.4 23.4 0 0 1-2.265-3.829c-.635-1.325-1.141-2.78-1.412-4.249-.28-1.46-.314-3.052-.035-4.52a10 10 0 0 1 1.839-4.154c.927-1.219 2.16-2.17 3.499-2.843a12.7 12.7 0 0 1 4.277-1.26c1.466-.129 2.919-.2 4.445.11l.025.005.05.018 1.667.583 1.59.692zM49.904 74.754c.483-.513 1.016-1.046 1.459-1.54l1.396-1.634c.843-1.029 1.75-2.26 2.547-3.378a56 56 0 0 0 2.245-3.608 52 52 0 0 0 1.945-3.785 59 59 0 0 0 2.98-7.954 78 78 0 0 0 1.95-8.278c.254-1.394.429-2.79.599-4.207a62 62 0 0 0 .36-4.21 43 43 0 0 0-.003-4.176c-.08-1.348-.282-2.695-.64-3.966a15 15 0 0 0-.664-1.877 12 12 0 0 0-.895-1.663 10.3 10.3 0 0 0-2.588-2.76c-.977-.733-2.127-1.312-3.293-1.589-1.182-.272-2.34-.288-3.572.041l.126-.036-.467.152a5 5 0 0 0-.488.182 7 7 0 0 0-.835.422c-.27.165-.542.334-.804.531l-.392.305-.17.145-.208.188c-.451.42-.92.948-1.314 1.484a12.015 12.015 0 0 0-1.514 2.666l-.203.501-.18.49c-.24.67-.427 1.364-.611 2.07-.182.705-.322 1.43-.475 2.161l-.431 2.22-1.235-.12c-.001-.765-.013-1.505.016-2.29.02-.769.08-1.543.166-2.324.08-.782.224-1.564.405-2.344l.149-.595.163-.57c.12-.395.265-.78.424-1.162.315-.763.7-1.502 1.15-2.206.462-.709.969-1.342 1.594-1.983l.203-.202.249-.235q.233-.211.483-.415c.332-.27.682-.53 1.057-.759.378-.23.759-.436 1.175-.619a6 6 0 0 1 .568-.226l.606-.213.127-.036c1.53-.455 3.329-.465 4.928-.055a11.8 11.8 0 0 1 4.375 2.154 13.2 13.2 0 0 1 4.22 5.718c.257.688.499 1.464.668 2.206.35 1.506.504 3.02.527 4.532a40 40 0 0 1-.213 4.413c-.31 2.926-.818 5.745-1.435 8.594a79 79 0 0 1-2.305 8.367c-.942 2.738-1.963 5.44-3.233 8.058-.614 1.285-1.33 2.584-2.043 3.826a57 57 0 0 1-2.301 3.683c-.418.63-.856 1.162-1.282 1.748-.453.581-.8 1.133-1.326 1.75L52.274 74c-.502.58-.977 1.066-1.467 1.604z"/><path fill="#93AF45" d="M55.343 121.864c-1.77-5.353-3.564-10.762-6.52-15.563s-7.226-9.01-12.576-10.79c-.538-.179-1.142-.329-1.655-.088-.331.155-.572.452-.774.757-1.474 2.225-1.373 5.215-.353 7.681s2.84 4.506 4.707 6.413a95 95 0 0 0 17.312 13.965M54.413 110.065a111.6 111.6 0 0 1 3.745-22.084c1.466-5.327 3.589-10.9 8.132-14.046.615-.426 1.477-.792 2.063-.326.332.264.445.711.529 1.126 1.296 6.45.109 13.237-2.534 19.26s-6.68 11.345-11.153 16.167"/><path fill="#7B8E36" d="M48.565 76.693s.326 1.404.972 3.84c.327 1.21.685 2.711 1.114 4.434l.694 2.737.713 3.038c.54 2.108 1.024 4.413 1.579 6.845.289 1.214.542 2.469.8 3.753l.837 3.924c.483 2.679 1.117 5.432 1.589 8.26.572 2.816 1.013 5.698 1.5 8.583.394 2.893.852 5.789 1.1 8.658.132 1.434.309 2.856.38 4.266l.228 4.174c.085 2.743.135 5.398.06 7.913-.068 2.516-.204 4.892-.462 7.076a65 65 0 0 1-.894 5.937c-.336 1.759-.697 3.282-1.067 4.526-.335 1.248-.668 2.217-.89 2.878-.227.66-.367 1.009-.367 1.009a1.746 1.746 0 0 1-3.334-.316l-.011-.056s-.07-.368-.164-1.051c-.087-.682-.226-1.683-.313-2.943-.095-1.261-.216-2.788-.307-4.53a391 391 0 0 1-.163-5.827c-.001-2.128-.01-4.429.028-6.862.085-2.432.045-4.997.135-7.653l.067-8.198c.037-2.797-.002-5.639-.012-8.491-.088-2.845-.13-5.702-.31-8.507a152 152 0 0 0-.701-8.227c-.34-2.655-.641-5.233-1.084-7.649a134 134 0 0 0-1.284-6.805 110 110 0 0 0-1.33-5.69 76 76 0 0 0-1.191-4.355c-.706-2.419-1.154-3.789-1.154-3.789a1.684 1.684 0 1 1 3.242-.902"/><path fill="#FF8189" d="M6.535 48.884c-1 .861-.3 1.663-.183 2.507.119.831.23 1.645.516 2.44a22 22 0 0 0 2.26 4.518 28 28 0 0 0 3.127 3.993c1.152 1.25 2.418 2.371 3.753 3.411a37 37 0 0 0 2.05 1.486c.713.476 1.4.906 2.154 1.338.739.418 1.458.83 2.219 1.208.752.384 1.52.736 2.295 1.072a64 64 0 0 0 4.74 1.806c1.607.544 3.235 1.038 4.883 1.511l-.31.587-.227-.28a.311.311 0 0 1 .439-.438l.28.228a.336.336 0 0 1-.24.594l-.07-.007c-3.465-.319-6.88-1.253-10.078-2.674-1.594-.725-3.155-1.514-4.641-2.458a37 37 0 0 1-2.16-1.484 33 33 0 0 1-2.046-1.639 36 36 0 0 1-3.691-3.704 33.6 33.6 0 0 1-3.094-4.2 28 28 0 0 1-1.295-2.262 20 20 0 0 1-1.033-2.406c-.29-.826-.51-1.68-.643-2.55a11 11 0 0 1-.108-2.638v-.015c.016-.17.407-.297.577-.282s.523.165.523.336q.004.001.003.002M34.634 28.014s.133.034.446.168a4.9 4.9 0 0 1 1.137.723c.443.37.908.87 1.392 1.488.46.593.97 1.33 1.449 2.146.975 1.637 1.798 3.707 2.493 5.967.343 1.133.635 2.32.892 3.533.266 1.22.49 2.435.692 3.694.193 1.245.347 2.497.46 3.734.124 1.236.184 2.46.203 3.642.053 2.367-.035 4.58-.262 6.462-.215 1.882-.516 3.433-.785 4.504-.26 1.073-.45 1.675-.45 1.675a.312.312 0 0 1-.61-.116s.042-.625.139-1.708l.15-1.953c.07-.75.117-1.6.182-2.525.05-.925.122-1.926.15-2.987.059-1.059.078-2.179.077-3.336-.016-2.315-.103-4.788-.353-7.253a65 65 0 0 0-.47-3.668 41 41 0 0 0-.73-3.5c-.56-2.25-1.401-4.258-2.31-5.862-.461-.805-.92-1.49-1.385-2.104-.44-.589-.895-1.058-1.3-1.379a4.3 4.3 0 0 0-1.007-.617c-.227-.094-.397-.14-.397-.14a.309.309 0 0 1 .157-.598zM26.105 30.132s-.137.603-.265 1.624c-.131 1.036-.185 2.537-.03 4.33.156 1.79.487 3.873 1.065 6.06a71 71 0 0 0 2.082 6.763c.799 2.272 1.735 4.49 2.614 6.562.904 2.063 1.822 3.953 2.595 5.582.77 1.622 1.486 2.895 2.065 3.742.584.841.988 1.275.988 1.275a.31.31 0 0 1-.016.44.31.31 0 0 1-.381.033l-.02-.013s-.532-.345-1.294-1.147c-.776-.786-1.697-2.08-2.568-3.7-.893-1.602-1.795-3.545-2.666-5.663-.89-2.11-1.671-4.43-2.37-6.768a100 100 0 0 1-1.75-6.94c-.46-2.237-.836-4.345-.954-6.18-.144-1.833-.041-3.37.054-4.44.117-1.087.24-1.669.24-1.669l.005-.024a.31.31 0 1 1 .607.13zM59.03 22.327c.009.017.175.041.575.26.379.21.892.582 1.342 1.215.459.623.843 1.471 1.133 2.47.284 1.003.459 2.144.597 3.402.126 1.255.182 2.622.149 4.064a55 55 0 0 1-.3 4.517c-.144 1.55-.393 3.176-.677 4.795a65 65 0 0 1-2.497 9.69c-.515 1.571-1.118 3.083-1.731 4.533a88 88 0 0 1-1.893 4.124c-.663 1.281-1.303 2.485-1.947 3.567a53 53 0 0 1-1.831 2.903c-.564.847-1.05 1.596-1.553 2.176-.491.582-.946.997-1.291 1.234-.343.24-.544.338-.544.338l-.016.008a.31.31 0 0 1-.415-.142.31.31 0 0 1 .098-.389s.159-.114.42-.368a7 7 0 0 0 1.002-1.239c.375-.583.806-1.349 1.302-2.23.504-.873 1.025-1.885 1.626-2.967 1.164-2.185 2.5-4.747 3.75-7.576a104 104 0 0 0 1.804-4.412c.59-1.513 1.1-3.083 1.59-4.659.482-1.579.9-3.178 1.254-4.766.334-1.598.62-3.154.816-4.706.227-1.55.347-3.023.388-4.449a33 33 0 0 0-.11-3.988c-.122-1.223-.288-2.354-.548-3.305s-.631-1.733-1.048-2.277a3.5 3.5 0 0 0-1.15-1.023c-.284-.16-.536-.22-.518-.224a.31.31 0 0 1-.175-.402.307.307 0 0 1 .399-.174M53.677 23.27l-.401.656c-.257.417-.57 1.02-.923 1.772-.326.762-.712 1.651-.997 2.651-.308.99-.575 2.065-.772 3.153-.421 2.172-.701 4.362-1.06 5.991a21 21 0 0 1-.505 1.964c-.148.473-.263.74-.263.74a.322.322 0 0 1-.615-.086s-.157-1.139.02-2.829c.077-.843.244-1.816.467-2.852.222-1.037.542-2.127.884-3.206a43 43 0 0 1 .563-1.595c.192-.523.377-1.039.584-1.528.405-.98.79-1.89 1.17-2.648.36-.763.71-1.392.939-1.824l.374-.67a.31.31 0 1 1 .542.301z"/><path fill="#7B8E36" d="M49.03 79.021a52.6 52.6 0 0 0 2.964-13.65c.144-1.78.147-3.733-.95-5.142-.308-.396-.716-.743-1.207-.848-.904-.193-1.776.481-2.29 1.251-.825 1.241-1.084 2.762-1.588 4.165-.503 1.404-1.416 3.183-2.86 3.557-1.62.42-3.242-.979-4.911-1.067-1.18-.062-2.325.36-3.432.773-1.081.405-2.287.933-2.664 2.024-.504 1.463.783 2.896 2.013 3.835a33.2 33.2 0 0 0 13.953 6.213"/><path fill="#7B8E36" d="M48.496 78.833s.37-.945.897-2.617c.537-1.673 1.166-4.115 1.624-7.095.212-1.483.395-3.135.455-4.822.013-.836-.037-1.688-.291-2.46-.241-.738-.764-1.519-1.317-1.736-.474-.219-1.155.166-1.611.828-.46.674-.75 1.558-1.003 2.5-.248.946-.514 2.004-.993 3.008a7.3 7.3 0 0 1-.897 1.483c-.374.474-.862.94-1.522 1.245a3 3 0 0 1-.568.2c-.15.027-.19.058-.432.081-.44.054-.73.025-1.067-.016-.645-.092-1.18-.288-1.673-.458-.49-.173-.936-.34-1.331-.432a3 3 0 0 0-.547-.084l-.062-.127s-.05-.124-.003-.124h-.228l-.257.146c-.766.083-1.607.48-2.5.84-.864.323-1.575.767-1.752 1.111-.03.041-.043.097-.061.137l-.01.038-.006.02-.003.008.022-.07-.044.171-.022.086c-.001.014.008.01.008.01.005.002.003.003.003.003.006.032-.003.08.007.124.023.182.108.43.289.696.362.541.923 1.053 1.58 1.52 1.348 1.034 2.672 1.853 3.944 2.6 2.543 1.458 4.826 2.403 6.448 3.021 1.629.6 2.592.906 2.592.906l.009.003a.57.57 0 0 1-.22 1.113l-.745-.06a22 22 0 0 1-2.098-.3 27.2 27.2 0 0 1-7.181-2.456c-1.414-.686-2.898-1.616-4.344-2.673-.751-.553-1.567-1.24-2.218-2.23a4.26 4.26 0 0 1-.69-1.875c-.021-.186-.015-.375-.01-.577q.02-.174.049-.347l.032-.164.024-.085.049-.17.036-.114.013-.034.027-.067.056-.134c.08-.174.172-.348.28-.502.908-1.27 2.107-1.64 3.038-2.008.937-.322 1.977-.699 3.213-.776a7 7 0 0 1 .493-.008l.194.01.262.025c.338.033.64.112.932.194.578.171 1.065.392 1.52.578.45.186.87.353 1.229.421.164.035.382.052.449.052.013.022.218-.028.319-.038-.04.003.106-.02.15-.047.564-.19 1.16-.902 1.584-1.69.447-.8.74-1.69 1.063-2.657.325-.96.675-1.992 1.369-2.914.36-.463.803-.872 1.383-1.145.59-.277 1.314-.348 1.972-.043.605.28 1.015.751 1.3 1.188.302.452.513.945.653 1.436.282.986.314 1.951.28 2.854-.103 1.798-.323 3.427-.573 4.952-.472 3.042-1.15 5.52-1.64 7.245-.507 1.727-.858 2.682-.858 2.682l-.01.026a.567.567 0 1 1-1.065-.393z"/></svg>