<svg xmlns="http://www.w3.org/2000/svg" width="110" height="170" fill="none"><path class="leaf-fill" fill="#93AF45" d="M61.453 104.399c-1.72-9.089-3.747-18.779-10.343-25.265-.465-.458-1.008-.92-1.66-.949-1.427-.063-2.035 1.804-2.007 3.232.098 5.107 2.449 9.913 5.298 14.154s6.242 8.112 8.845 12.507l-.79-.71M61.284 118.286c1.165-6.357 2.34-12.746 4.514-18.832s5.416-11.908 10.18-16.275c.912-.836 2.229-1.655 3.297-1.029.726.425.973 1.342 1.115 2.171.63 3.668.472 7.47-.462 11.073-.78 3.012-2.087 5.863-3.531 8.62a89.8 89.8 0 0 1-14.938 20.691"/><path class="stem-fill" fill="#7B8E36" d="M58.619 69.045s.225 1.554.674 4.265c.233 1.35.465 3.012.747 4.92l.448 3.037c.13 1.07.27 2.196.414 3.37.338 2.343.613 4.892.888 7.591.158 1.348.268 2.737.379 4.157l.383 4.346c.168 2.956.457 6.01.563 9.123.207 3.112.249 6.278.347 9.45-.01 3.169.047 6.347-.107 9.468-.066 3.127-.332 6.193-.56 9.163-.122 1.484-.322 2.936-.481 4.36a101 101 0 0 1-.54 4.166c-.406 2.7-.845 5.245-1.377 7.569-.266 1.162-.495 2.28-.776 3.331l-.815 2.977c-.55 1.859-1.035 3.475-1.535 4.781-.461 1.315-.872 2.333-1.147 3.028-.29.691-.443 1.06-.443 1.06a1.21 1.21 0 0 1-2.325-.54l.003-.036.07-1.138c.06-.738.142-1.822.306-3.182l.565-4.903.413-2.994.42-3.32 1.052-7.442c.44-2.63.719-5.429 1.134-8.31.325-2.891.72-5.874 1.013-8.919.349-3.041.583-6.142.862-9.246.18-3.107.419-6.219.488-9.289.114-3.07.098-6.093.06-9.02-.1-2.924-.16-5.757-.396-8.431-.194-2.677-.392-5.209-.66-7.537l-.393-3.339-.433-2.995a81 81 0 0 0-.791-4.869 226 226 0 0 0-.806-4.242 1.197 1.197 0 1 1 2.346-.478z"/><path class="primary-fill" fill="#FF8189" d="M52.636 62.14c-2.435-3.601-7.251-9.258-9.294-13.096-4.206-7.903-8.482-16.018-9.685-24.889-.421-3.104-.134-6.881 2.57-8.461 2.518-1.472 5.807-.152 7.96 1.816 4.326 3.952 5.974 9.967 7.392 15.652 2.257 9.045 4.447 18.305 3.646 27.593"/><path class="primary-fill" fill="#FF8189" d="m52.144 62.48-.677-.98a119 119 0 0 0-1.987-2.711l-3.148-4.217c-1.195-1.642-2.573-3.52-3.75-5.778-2.34-4.409-5.17-9.55-7.351-15.486-1.097-2.962-1.974-6.135-2.446-9.461-.203-1.707-.253-3.475.236-5.273.245-.891.664-1.789 1.31-2.557.322-.38.693-.739 1.116-1.015.125-.081.16-.125.36-.235l.276-.147c.148-.094.466-.21.713-.305 1.997-.666 4.022-.188 5.663.616.83.412 1.6.921 2.304 1.511.099.086.15.121.288.249l.225.212.449.424c.303.303.622.66.924.991 2.298 2.685 3.695 5.854 4.685 8.892.999 3.061 1.68 6 2.392 8.78.666 2.796 1.264 5.463 1.67 7.96.86 4.987 1.069 9.255.894 12.219-.07 1.483-.18 2.644-.292 3.43l-.177 1.204c-.048.327-.18.554-.507.506-.295-.043-.34-.295-.34-.583v-.025s-.18-.412-.19-1.184c-.013-.77-.108-1.898-.22-3.328a74 74 0 0 0-.595-5.135c-.268-1.976-.69-4.195-1.181-6.61A243 243 0 0 0 51 36.653c-.672-2.77-1.33-5.725-2.234-8.612-.926-2.878-2.113-5.759-4.002-8.154-.243-.28-.458-.55-.724-.839l-.434-.44-.217-.22-.176-.16a9.3 9.3 0 0 0-1.791-1.272c-1.275-.691-2.752-1.036-3.972-.677-1.268.37-2.215 1.427-2.655 2.832-.451 1.395-.514 3-.363 4.54.353 3.178 1.105 6.286 2.087 9.206.956 2.935 2.19 5.673 3.4 8.247a182 182 0 0 0 3.642 7.17c1.13 2.178 2.47 4.011 3.657 5.646 1.197 1.627 2.29 3.016 3.174 4.176a115 115 0 0 1 2.04 2.721l.695.981a.598.598 0 1 1-.977.691l-.004-.005zM34.479 55.771a52.8 52.8 0 0 0-19.375-5.768c-1.435-.138-3.026-.172-4.144.737-1.491 1.213-1.4 3.661-.281 5.223 1.119 1.563 2.96 2.423 4.76 3.096 10.272 3.837 21.546 3.644 32.508 3.402"/><path class="primary-fill" fill="#FF8189" d="M34.208 56.304s-.953-.528-2.631-1.314c-1.686-.801-4.172-1.799-7.254-2.672a53 53 0 0 0-5.043-1.115c-1.784-.29-3.781-.583-5.662-.557-.93.044-1.771.256-2.32.85-.494.496-.706 1.395-.573 2.238.23 1.765 1.817 2.974 3.66 3.735.93.4 1.914.688 2.952 1.018a44 44 0 0 0 3.008.796c2.017.469 4.034.805 5.996 1.068 1.96.268 3.875.443 5.696.561 1.819.15 3.55.204 5.15.3 3.202.147 5.89.268 7.778.402 1.887.124 2.969.248 2.969.248a.604.604 0 0 1 .027 1.196s-1.074.177-2.963.369c-.944.106-2.093.191-3.413.289-1.321.068-2.815.152-4.45.154-1.635.027-3.41-.034-5.29-.14-1.876-.145-3.861-.316-5.9-.653-2.04-.324-4.141-.747-6.228-1.374-1.036-.285-2.13-.658-3.142-1.019-.991-.375-2.065-.752-3.087-1.278-1.028-.516-2.063-1.164-2.91-2.08a6.5 6.5 0 0 1-.58-.715c-.2-.28-.353-.557-.493-.849a5.5 5.5 0 0 1-.483-1.831c-.11-1.24.178-2.621 1.214-3.587.447-.43 1.063-.751 1.64-.91a6.2 6.2 0 0 1 1.714-.215c1.105.004 2.083.179 3.063.308.975.141 1.928.288 2.848.47 1.842.353 3.564.784 5.13 1.249 3.149.895 5.67 1.95 7.418 2.71 1.757.782 2.703 1.283 2.703 1.283l.027.015a.598.598 0 1 1-.571 1.05M57.362 60.928c3.68-7.804 5.265-16.405 6.746-24.906 1.118-6.419 2.007-13.688-1.957-18.859-1-1.305-2.615-2.481-4.178-1.968-.611.2-1.116.637-1.547 1.114-1.592 1.764-2.334 4.127-2.836 6.449a42.7 42.7 0 0 0 .223 18.933s1.375 20.238 2.86 22.459"/><path class="primary-fill" fill="#FF8189" d="M56.818 60.681a60 60 0 0 0 1.898-4.474 63 63 0 0 0 1.512-4.623c.892-3.122 1.597-6.302 2.186-9.508l.848-4.82c.274-1.614.545-3.217.727-4.823.372-3.201.513-6.452-.17-9.502-.336-1.519-.913-2.965-1.737-4.236-.441-.621-.866-1.257-1.39-1.687-.517-.457-1.117-.795-1.64-.87-.53-.07-.917.064-1.383.476-.243.216-.427.44-.695.774-.188.255-.4.561-.578.874-.724 1.259-1.167 2.729-1.491 4.262a45.5 45.5 0 0 0-.908 9.443 42.2 42.2 0 0 0 1.186 9.395c.018.075.03.159.036.234l.77 11.279.428 5.624c.073.934.155 1.867.269 2.787.057.458.122.917.202 1.359.065.432.173.916.284 1.174l.044.102a.594.594 0 0 1-1.04.563c-.371-.559-.502-1.006-.674-1.485-.158-.474-.277-.944-.398-1.414a64 64 0 0 1-.628-2.815c-.357-1.88-.655-3.761-.904-5.646-.265-1.884-.467-3.772-.666-5.66-.201-1.889-.342-3.777-.495-5.676l.036.234c-.792-3.287-1.16-6.667-1.162-10.038a40.7 40.7 0 0 1 1.225-10.015c.415-1.644.97-3.334 1.939-4.884.244-.388.505-.749.823-1.136.253-.294.607-.691.994-.998.395-.32.879-.624 1.45-.783a3.6 3.6 0 0 1 1.709-.062c2.166.521 3.36 2.177 4.233 3.621.893 1.516 1.454 3.188 1.782 4.867.64 3.379.365 6.761-.114 10.021-.521 3.273-1.128 6.461-1.762 9.687-.656 3.213-1.37 6.423-2.274 9.59a91 91 0 0 1-1.513 4.706 62 62 0 0 1-1.87 4.579l-.004.011a.598.598 0 1 1-1.085-.507M51.563 60.62c-3.221-8.172-9.856-16.385-15.718-22.927-4.167-4.65-9.694-9.046-15.915-8.506-.658.057-1.33.176-1.896.516-1.542.923-1.77 3.071-1.501 4.848.579 3.82 2.615 7.271 4.99 10.319 6.507 8.349 15.93 14.38 26.237 16.791"/><path class="primary-fill" fill="#FF8189" d="m51.01 60.851-.415-1.011a38 38 0 0 0-1.278-2.762c-1.165-2.358-3.122-5.595-5.828-9.237a114 114 0 0 0-4.59-5.713c-1.7-1.959-3.5-4.083-5.52-6.004-2.028-1.918-4.335-3.71-6.953-4.859-1.305-.572-2.687-.955-4.083-1.09a11.6 11.6 0 0 0-2.093-.006c-.688.03-1.362.211-1.66.422-.862.543-1.093 1.804-.992 3.117.134 1.303.54 2.719 1.075 3.992a22 22 0 0 0 2.007 3.69 33 33 0 0 0 2.492 3.357 45 45 0 0 0 5.597 5.669c1.91 1.668 3.868 3.064 5.717 4.287a51 51 0 0 0 5.26 3.007c1.609.836 3.075 1.43 4.276 1.95 1.215.482 2.185.834 2.852 1.055l1.02.361.027.009a.6.6 0 0 1-.3 1.156l-1.096-.183c-.72-.107-1.754-.358-3.074-.685a39 39 0 0 1-4.656-1.558 40.4 40.4 0 0 1-5.718-2.845c-2.024-1.186-4.098-2.675-6.15-4.417a48 48 0 0 1-5.857-6.095c-1.852-2.266-3.585-4.857-4.701-7.854-.553-1.512-.953-3.039-1.065-4.758-.035-.86.03-1.751.326-2.652.152-.448.366-.898.668-1.312.15-.211.32-.395.522-.587.112-.098.23-.196.346-.283l.239-.155c1.007-.594 1.898-.642 2.714-.677.822-.035 1.643.009 2.449.121 1.614.228 3.147.755 4.56 1.432 2.837 1.364 5.186 3.339 7.225 5.393 1.03 1.034 1.953 2.109 2.857 3.144a165 165 0 0 1 2.616 3.074 122 122 0 0 1 4.557 5.833c2.737 3.685 4.7 6.993 5.947 9.378a39 39 0 0 1 1.354 2.825l.43 1.005a.598.598 0 1 1-1.103.466M61.425 57.855l7.93-10.846C74.5 39.973 79.88 32.205 79.563 23.494c-.04-1.096-.202-2.26-.911-3.096-.818-.965-2.21-1.274-3.464-1.109-3.635.479-5.907 4.12-7.345 7.493a62 62 0 0 0-4.146 14.281s-4.5 15.809-3.61 19.075"/><path class="primary-fill" fill="#FF8189" d="M60.942 57.502c1.798-2.429 3.616-4.844 5.388-7.292 1.778-2.442 3.587-4.87 5.27-7.357 1.67-2.494 3.29-5.028 4.514-7.737 1.253-2.691 2.147-5.531 2.469-8.423.04-.724.133-1.448.09-2.171-.012-.722-.017-1.46-.154-2.088-.136-.645-.342-1.138-.738-1.51-.312-.29-.862-.536-1.43-.587-.581-.074-1.16.022-1.808.229a5.4 5.4 0 0 0-1.617.87c-1.02.79-1.867 1.893-2.562 3.113-.717 1.229-1.234 2.527-1.783 3.943a60 60 0 0 0-1.45 4.183c-.888 2.819-1.544 5.705-2.054 8.613l-.003.018q-.013.071-.032.139a573 573 0 0 0-2.577 9.328c-.401 1.56-.811 3.117-1.163 4.676-.183.778-.35 1.558-.474 2.332-.064.387-.107.771-.148 1.149-.032.369-.053.75-.015 1.05l.007.055a.598.598 0 0 1-1.161.26c-.16-.491-.202-.929-.248-1.371a15 15 0 0 1-.02-1.284c.02-.845.084-1.675.164-2.5.173-1.649.422-3.276.728-4.888.595-3.231 1.352-6.403 2.219-9.572l-.035.157c.472-3.055 1.226-6.063 2.175-9.002a62 62 0 0 1 1.617-4.347c.577-1.385 1.258-2.876 2.119-4.228.857-1.363 1.92-2.681 3.339-3.69a7.5 7.5 0 0 1 2.416-1.146c.797-.213 1.749-.334 2.669-.168.92.156 1.84.525 2.594 1.318.677.713 1.013 1.709 1.129 2.543.135.864.093 1.645.07 2.433.005.79-.131 1.569-.2 2.35-.454 3.111-1.513 6.071-2.903 8.81-1.387 2.746-3.03 5.326-4.774 7.814-1.76 2.481-3.57 4.895-5.347 7.341-1.795 2.431-3.544 4.896-5.314 7.346a.598.598 0 0 1-.97-.7q.002-.008.003-.009"/><path class="primary-fill" fill="#FF8189" d="M64.829 59.358c5.832-2.459 11.517-5.405 16.406-9.424 4.888-4.02 8.966-9.181 11.003-15.174.538-1.582.776-3.672-.605-4.613-.904-.616-2.117-.43-3.175-.152a25.8 25.8 0 0 0-13.207 8.431S63.22 52.42 62.463 59.357"/><path class="primary-fill" fill="#FF8189" d="M64.594 58.808s1.262-.503 3.41-1.476a63.6 63.6 0 0 0 8.562-4.678 48 48 0 0 0 5.166-3.946 43 43 0 0 0 2.535-2.452 40 40 0 0 0 2.367-2.82c1.5-1.992 2.848-4.201 3.856-6.594.244-.601.485-1.205.683-1.826.225-.639.386-1.201.457-1.782.077-.575.057-1.147-.092-1.561-.15-.405-.39-.645-.735-.76-.34-.122-.855-.101-1.418.019q-.21.044-.432.104l-.445.132c-.318.101-.664.196-.948.305-1.19.41-2.391.934-3.507 1.53a26 26 0 0 0-5.978 4.402c-1.671 1.669-3.184 3.665-4.613 5.458-1.44 1.805-2.735 3.561-3.927 5.177-2.362 3.248-4.153 6.058-5.202 8.094a16 16 0 0 0-1.025 2.415c-.106.283-.15.501-.192.649l-.06.225-.015.06a.597.597 0 0 1-1.174-.19l.017-.268c.014-.176.019-.446.074-.779.08-.681.32-1.64.723-2.81.788-2.351 2.39-5.459 4.67-8.905 1.127-1.734 2.452-3.533 3.887-5.405q1.091-1.394 2.286-2.823c.794-.946 1.639-1.956 2.63-2.876a26 26 0 0 1 6.77-4.659 27 27 0 0 1 3.958-1.523c.355-.114.667-.184.999-.274l.537-.133c.184-.04.369-.079.563-.109.76-.119 1.66-.184 2.599.192.943.356 1.667 1.262 1.9 2.153.249.891.187 1.712.055 2.466-.134.759-.392 1.488-.648 2.105-.246.65-.535 1.281-.827 1.904-1.171 2.494-2.664 4.761-4.303 6.775-1.65 2.013-3.43 3.765-5.233 5.324a49 49 0 0 1-5.35 3.943c-3.45 2.25-6.544 3.729-8.692 4.773-2.166 1.023-3.42 1.546-3.42 1.546l-.018.008a.598.598 0 1 1-.46-1.104q.006-.005.01-.006"/><path fill="#fff" d="M51.215 82.116s.423 1 1.122 2.47a108 108 0 0 0 2.74 5.307c1.035 1.912 2.038 3.839 2.629 5.359.61 1.51.809 2.615.809 2.615a.31.31 0 0 1-.543.252s-.715-.865-1.472-2.307c-.778-1.433-1.6-3.444-2.391-5.469a107 107 0 0 0-2.278-5.521c-.67-1.483-1.16-2.452-1.16-2.452a.3.3 0 0 1 .534-.27q.007.007.01.016M77.76 87.525l-1.458 3.966c-.873 2.382-2.12 5.527-3.438 8.655-.685 1.551-1.373 3.105-2.117 4.511-.732 1.413-1.436 2.722-2.131 3.79a27 27 0 0 1-1.766 2.524c-.458.588-.742.908-.742.908a.303.303 0 0 1-.506-.32s.668-1.568 1.865-3.781c.588-1.113 1.314-2.387 2.08-3.76l2.354-4.333a84 84 0 0 0 2.194-4.425 77 77 0 0 0 1.686-3.968 63 63 0 0 0 1.046-2.864l.368-1.1a.299.299 0 1 1 .568.188zM18.976 32.137s-.156.15-.126.43c.033.282.007.66.127 1.165.23 1.001.736 2.387 1.684 3.897a26 26 0 0 0 1.644 2.352c.635.788 1.337 1.649 2.108 2.444q.562.618 1.183 1.219c.406.409.822.815 1.263 1.204a41 41 0 0 0 2.73 2.279c.94.731 1.906 1.43 2.884 2.073a65 65 0 0 0 2.91 1.821c1.924 1.12 3.789 2.037 5.406 2.783l2.218 1.004c.673.271 1.258.516 1.739.724.974.38 1.527.625 1.527.625l.01.005a.3.3 0 0 1-.174.57s-.598-.108-1.64-.346c-.522-.115-1.14-.312-1.853-.521-.702-.243-1.512-.479-2.353-.842-.856-.329-1.752-.758-2.698-1.215a52 52 0 0 1-2.877-1.622 34 34 0 0 1-2.932-1.964 41 41 0 0 1-2.843-2.27 43 43 0 0 1-2.65-2.484 30 30 0 0 1-1.234-1.278 27 27 0 0 1-1.16-1.292c-.76-.866-1.414-1.71-2.077-2.534a27 27 0 0 1-1.676-2.427 15.5 15.5 0 0 1-1.775-4.066 11 11 0 0 1-.248-1.236l-.055-.429c-.021-.164.268-.314.432-.334s.507.095.507.259zM11.819 52.897l.224.288c.143.196.36.463.653.765.585.623 1.547 1.436 2.87 2.134 1.327.69 2.982 1.305 4.825 1.707 1.829.428 3.846.709 5.85.956 2.007.262 4.02.433 5.904.623l5.156.422c3.018.245 5.042.528 5.042.528a.302.302 0 0 1-.005.599s-.51.067-1.404.128c-.894.071-2.173.113-3.706.073-1.534-.026-3.318-.177-5.222-.398-1.907-.197-3.924-.543-5.931-.92-2.004-.401-4-.802-5.861-1.318-1.851-.524-3.555-1.147-4.912-1.908a12.7 12.7 0 0 1-3.02-2.234 8 8 0 0 1-.701-.789l-.23-.283a.299.299 0 1 1 .465-.377zM90.839 31.918s-.03.152-.082.436c-.067.297-.165.723-.343 1.247-.354 1.047-1.013 2.485-2.012 4.062-.5.803-1.06 1.615-1.661 2.498-.622.869-1.277 1.786-1.983 2.711a59 59 0 0 1-2.26 2.789 56 56 0 0 1-2.478 2.764c-.854.907-1.755 1.768-2.65 2.608l-1.358 1.219-1.38 1.127c-1.828 1.459-3.622 2.713-5.231 3.67-.81.47-1.56.886-2.241 1.224-.682.335-1.264.649-1.774.85-1.003.431-1.585.651-1.585.651a.3.3 0 0 1-.274-.53l.009-.006s.514-.347 1.429-.908l1.635-1.035 2.093-1.371c.747-.53 1.59-1.052 2.434-1.676.87-.584 1.755-1.249 2.668-1.938.904-.703 1.822-1.447 2.749-2.214a68 68 0 0 0 2.724-2.428 55 55 0 0 0 2.59-2.578 55 55 0 0 0 2.34-2.661 43 43 0 0 0 2.028-2.62c.603-.862 1.19-1.696 1.677-2.46.994-1.544 1.668-2.913 1.97-3.924.162-.503.246-.906.303-1.174l.074-.436a.299.299 0 1 1 .59.098zM76.315 21.004l.117.428c.08.27.177.711.269 1.257.168 1.09.285 2.675.058 4.545-.206 1.873-.766 3.988-1.438 6.221a102 102 0 0 1-2.384 6.891 70 70 0 0 1-1.433 3.424 52 52 0 0 1-1.558 3.243c-1.063 2.078-2.15 3.972-3.186 5.526a48 48 0 0 1-2.66 3.644c-.695.84-1.113 1.301-1.113 1.301a.3.3 0 0 1-.487-.347l.003-.006s.299-.544.86-1.464l2.269-3.833c.463-.795.977-1.647 1.49-2.566a80 80 0 0 0 1.62-2.888c1.072-2.032 2.205-4.21 3.21-6.451a73 73 0 0 0 2.69-6.702c.779-2.164 1.293-4.258 1.53-6.067.235-1.812.166-3.341-.032-4.379a11 11 0 0 0-.276-1.19l-.125-.426a.299.299 0 1 1 .574-.168zM59.416 16.766l.37.324c.253.247.583.615.9 1.153.648 1.072 1.116 2.787 1.3 4.827.21 2.027.362 4.402.514 6.946.13 2.545.21 5.266.2 7.99-.027 2.723-.12 5.45-.365 7.994-.221 2.546-.522 4.915-.89 6.927-.366 2.023-.858 3.706-1.352 4.824-.486 1.123-.89 1.698-.89 1.698l-.01.016a.299.299 0 0 1-.521-.288s.259-.615.575-1.727c.146-.56.32-1.239.472-2.033.154-.793.272-1.703.414-2.697l.417-3.237c.158-1.147.306-2.359.435-3.616.132-1.256.247-2.557.368-3.879.118-1.322.202-2.669.283-4.016.162-2.695.205-5.398.153-7.932-.03-2.535-.22-4.893-.388-6.914-.091-1.004-.225-1.912-.428-2.691a6.8 6.8 0 0 0-.772-1.901 5 5 0 0 0-.801-1l-.367-.311-.005-.004a.3.3 0 0 1 .387-.457q-.002.003 0 .004M39.865 16.854l.449.203c.283.122.746.365 1.253.704 1.029.676 2.37 1.854 3.568 3.572 1.225 1.697 2.277 3.896 3.358 6.227a128 128 0 0 1 3.139 7.456c.49 1.288.945 2.59 1.378 3.877a73 73 0 0 1 1.159 3.815c.34 1.248.654 2.459.93 3.612.25 1.159.495 2.254.66 3.276.197 1.016.302 1.961.419 2.793.1.835.189 1.562.232 2.164.092 1.204.117 1.894.117 1.894a.3.3 0 0 1-.591.084l-.001-.006s-.167-.668-.412-1.839l-1.066-4.832c-.454-1.992-.96-4.321-1.598-6.794l-1.041-3.799c-.371-1.29-.773-2.593-1.191-3.892a91 91 0 0 0-2.784-7.519c-.496-1.19-.985-2.318-1.525-3.356a24.5 24.5 0 0 0-1.664-2.824c-1.148-1.67-2.402-2.826-3.395-3.434a7.7 7.7 0 0 0-1.182-.64l-.452-.196a.299.299 0 1 1 .238-.549zM35.956 19.52c.009-.005-.104.16-.217.418a4.2 4.2 0 0 0-.331 1.243c-.07.563-.05 1.269.084 2.073.122.804.359 1.706.597 2.707.224 1.003.549 2.051.856 3.177.348 1.115.713 2.292 1.175 3.48.427 1.2.94 2.413 1.467 3.64a74 74 0 0 0 1.75 3.65c.638 1.197 1.268 2.396 1.953 3.539.327.581.676 1.142 1.023 1.694.342.556.664 1.114 1.02 1.639a66 66 0 0 0 2.058 3.02c.662.955 1.326 1.83 1.923 2.651.628.796 1.153 1.569 1.676 2.208l1.323 1.685a53 53 0 0 1 1.157 1.474l.006.008a.3.3 0 0 1-.44.405s-.516-.453-1.39-1.285c-.454-.4-.937-.949-1.516-1.557-.585-.603-1.2-1.324-1.863-2.118a54 54 0 0 1-2.028-2.653 67 67 0 0 1-2.053-3.111c-.681-1.098-1.371-2.243-1.988-3.452a69 69 0 0 1-1.822-3.682 75 75 0 0 1-1.583-3.786c-.485-1.262-.961-2.506-1.348-3.733-.415-1.219-.75-2.416-1.1-3.542-.3-1.14-.62-2.218-.831-3.217-.225-.993-.458-1.913-.577-2.757-.123-.839-.158-1.595-.095-2.22a4.8 4.8 0 0 1 .36-1.431c.144-.328.23-.445.229-.456a.3.3 0 1 1 .525.289"/><path class="stem-fill" fill="#7B8E36" d="M55.94 69.772a20.8 20.8 0 0 1-4.674-1.747c-1.885-.977-3.723-2.384-4.364-4.408-.154-.486-.232-1.021-.066-1.503.447-1.3 2.27-1.439 3.566-.978s2.568 1.288 3.926 1.074c1.35-.213 2.306-1.38 3.26-2.359.956-.979 2.31-1.896 3.6-1.441.973.343 1.553 1.409 1.592 2.439s-.362 2.027-.843 2.938a16.36 16.36 0 0 1-5.806 6.226"/><path class="stem-fill" fill="#7B8E36" d="m55.796 70.352-.484-.137c-.321-.097-.787-.23-1.371-.438a27 27 0 0 1-2.067-.841c-.775-.359-1.65-.805-2.543-1.431-.887-.613-1.82-1.41-2.5-2.541-.325-.577-.605-1.176-.716-1.942-.047-.385-.045-.811.138-1.261.028-.101.187-.412.33-.579.143-.181.314-.339.496-.465.746-.506 1.574-.604 2.35-.576a5 5 0 0 1 1.174.203c.355.105.698.238 1.018.357.64.239 1.242.462 1.77.528.515.073.963-.031 1.345-.267.414-.247.832-.656 1.262-1.136.427-.469.875-1.047 1.515-1.591.615-.514 1.343-1.018 2.339-1.22.997-.208 2.198.08 2.98.815 1.55 1.404 1.539 3.543 1.089 4.888-.228.706-.517 1.28-.825 1.833-.133.233-.272.486-.45.747-.166.254-.327.48-.493.708a13.6 13.6 0 0 1-3.911 3.622c-.543.34-1.001.552-1.311.693l-.484.2a.605.605 0 0 1-.653-.995l.022-.021s.12-.117.349-.336c.225-.22.55-.542.947-.958.784-.839 1.849-2.066 2.837-3.689.12-.201.247-.418.356-.625l.365-.679c.22-.426.432-.897.55-1.324.136-.433.189-.832.142-1.175-.043-.339-.216-.681-.394-.86-.156-.165-.357-.252-.666-.218-.321.029-.791.23-1.234.552-.431.294-.876.761-1.414 1.266-.531.493-1.14 1.037-1.961 1.413-.844.405-1.84.46-2.67.249-.822-.201-1.476-.548-2.08-.84a13 13 0 0 0-.864-.391 3.5 3.5 0 0 0-.786-.207c-.536-.078-1.088-.009-1.43.202a.9.9 0 0 0-.22.176c-.06.077-.068.043-.154.238-.074.134-.108.358-.092.588.04.472.255 1.013.497 1.468.513.928 1.293 1.661 2.079 2.242.795.57 1.616.99 2.36 1.34.74.348 1.412.592 1.969.774.557.18 1.004.304 1.306.374l.475.109.006.001a.599.599 0 0 1-.267 1.167.1.1 0 0 0-.026-.01"/></svg>