<svg xmlns="http://www.w3.org/2000/svg" width="110" height="170" fill="none"><path class="stem-fill" fill="#7B8E36" d="M35.158 29.074s.3.472.858 1.358c.55.887 1.38 2.249 2.315 3.982a95 95 0 0 1 3.114 6.413c1.106 2.518 2.221 5.413 3.3 8.61a167 167 0 0 1 3.176 10.41c.52 1.859.982 3.797 1.486 5.74.525 1.945 1.002 3.959 1.48 6.014l.73 3.102.683 3.154c.47 2.115.923 4.26 1.326 6.434.435 2.168.864 4.356 1.227 6.564.388 2.205.773 4.42 1.085 6.646.341 2.223.667 4.448.918 6.674.275 2.224.553 4.439.75 6.645.475 4.406.77 8.759.964 12.976.213 4.217.237 8.299.262 12.169q-.062 2.904-.12 5.637c-.045 1.82-.174 3.576-.267 5.262-.163 3.373-.537 6.451-.789 9.18-.367 2.721-.654 5.093-.979 7.035-.66 3.885-1.13 6.085-1.13 6.085-.108.501-.748.821-1.249.714-.437-.093-.88-.48-.88-.91v-.022s.151-2.245.323-6.139c.062-1.947.21-4.311.297-7.022.035-1.354.11-2.795.15-4.314.031-1.518.127-3.112.133-4.778.03-1.664.071-3.398.103-5.192.011-1.794.027-3.649.04-5.555.011-3.813-.027-7.834-.15-11.993-.022-2.081-.144-4.193-.232-6.333-.067-2.141-.198-4.305-.327-6.488-.106-2.184-.29-4.38-.473-6.586-.16-2.208-.394-4.418-.618-6.63-.202-2.215-.476-4.421-.754-6.62-.253-2.202-.572-4.386-.898-6.553a172 172 0 0 0-1.056-6.426l-.556-3.154-.633-3.086c-.795-4.075-1.763-8.057-2.678-11.745a166 166 0 0 0-2.978-10.346 101 101 0 0 0-3.229-8.48A73 73 0 0 0 36.8 35.25c-.949-1.695-1.72-2.958-2.303-3.834l-.89-1.337a.925.925 0 0 1 1.54-1.025q.005.012.011.02"/><path class="stem-fill" fill="#7B8E36" d="m23.276 48.643 1.931 2.004c.621.629 1.35 1.426 2.193 2.339a86 86 0 0 1 2.783 3.098c1.026 1.128 2.086 2.395 3.198 3.743a60 60 0 0 1 1.685 2.095q.859 1.077 1.751 2.197c1.143 1.527 2.351 3.088 3.487 4.74 1.195 1.614 2.305 3.324 3.452 5.014 1.083 1.728 2.185 3.45 3.173 5.202 1.041 1.723 1.938 3.489 2.827 5.188.835 1.725 1.651 3.39 2.341 5.007.68 1.62 1.333 3.149 1.82 4.605.544 1.434.95 2.78 1.304 3.976.346 1.197.64 2.242.822 3.12.402 1.745.573 2.754.573 2.754a.582.582 0 0 1-1.097.354l-.008-.018s-.449-.917-1.132-2.544l-2.852-6.704a217 217 0 0 0-1.93-4.452c-.655-1.592-1.464-3.22-2.232-4.933-.829-1.685-1.647-3.447-2.557-5.2-.868-1.776-1.87-3.515-2.816-5.288-1.014-1.733-1.995-3.491-3.065-5.158-1.039-1.688-2.162-3.281-3.22-4.846-1.105-1.53-2.153-3.028-3.249-4.368-1.072-1.36-2.095-2.638-3.088-3.78a81 81 0 0 0-2.745-3.073 49 49 0 0 0-2.199-2.3l-1.972-1.963a.578.578 0 0 1 .815-.82q.003.007.007.01M58.121 18.653l-.84 2.714c-.287.862-.553 1.914-.868 3.125-.334 1.203-.63 2.587-.968 4.092-.33 1.506-.596 3.158-.907 4.896-.263 1.748-.545 3.59-.714 5.51-.222 1.915-.343 3.905-.488 5.92-.077 2.024-.165 4.075-.167 6.13-.042 2.054 0 4.11.018 6.13.071 2.022.09 4.01.174 5.935.056 1.924.131 3.785.215 5.55.04 1.766.164 3.434.184 4.978l.118 4.215c.01 1.259-.196 2.356-.189 3.26.001 1.81-.27 2.85-.27 2.85v.008c0 .322-.079.568-.4.55-.266-.015-.374-.205-.43-.452 0 0-.179-1.017-.485-2.81-.159-.896-.302-1.986-.468-3.24-.144-1.256-.329-2.671-.452-4.223a121 121 0 0 1-.339-5.016c-.063-1.784-.145-3.665-.146-5.614-.036-1.948.014-3.964.073-6.01.1-2.045.154-4.124.337-6.197.138-2.075.364-4.145.576-6.18.247-2.031.457-4.033.773-5.956.272-1.93.628-3.778.915-5.54.352-1.748.655-3.41 1.022-4.922.35-1.518.647-2.912.991-4.135.332-1.223.582-2.306.846-3.167l.786-2.73a.577.577 0 1 1 1.11.32c-.004 0-.006.006-.007.009M32.395 93.41l1.396 1.649c.88 1.06 2.197 2.498 3.777 4.254a266 266 0 0 1 5.41 6.011c.962 1.132 1.96 2.307 2.892 3.567.981 1.225 1.89 2.542 2.784 3.867l1.28 2.029 1.168 2.074c.78 1.373 1.421 2.786 2.048 4.149.564 1.386 1.156 2.715 1.593 4.012.42 1.304.895 2.514 1.166 3.677.32 1.15.563 2.217.791 3.157.174.954.326 1.785.426 2.475.214 1.376.278 2.173.278 2.173a.585.585 0 0 1-1.112.302l-.008-.018s-.346-.72-.849-2c-.259-.638-.54-1.42-.869-2.314-.336-.89-.728-1.888-1.103-2.992-.377-1.104-.834-2.276-1.284-3.53-.403-1.272-.985-2.545-1.48-3.908-.255-.679-.568-1.342-.856-2.03-.29-.685-.56-1.392-.899-2.071l-.978-2.076-1.079-2.046c-.75-1.349-1.518-2.698-2.368-3.968-.827-1.285-1.736-2.49-2.612-3.66l-1.324-1.702-1.33-1.585-2.487-2.874-5.244-5.866a.578.578 0 1 1 .873-.756M69.725 76.64s-1.042 3.067-2.459 7.71c-.68 2.33-1.518 5.034-2.288 7.969l-1.185 4.52-1.118 4.692-1.065 4.697c-.343 1.549-.68 3.073-1.008 4.548l-.935 4.25c-.323 1.345-.589 2.625-.882 3.797a125 125 0 0 1-1.48 5.663c-.39 1.364-.67 2.137-.67 2.137l-.004.008a.587.587 0 0 1-1.137-.195s-.007-.823.084-2.251c.034-.716.12-1.578.224-2.567.124-.985.248-2.101.464-3.303.178-1.21.453-2.504.735-3.875.3-1.367.645-2.801 1.012-4.282.39-1.475.786-3.001 1.257-4.532.45-1.537.925-3.091 1.415-4.641 2.02-6.165 4.038-12.331 5.552-16.955 1.478-4.628 2.386-7.736 2.386-7.736a.577.577 0 1 1 1.102.346"/><path class="stem-fill" fill="#7B8E36" d="m25.537 109.57 1.544.618 1.78.726c.693.272 1.457.614 2.293.98.847.342 1.737.776 2.694 1.203.937.467 1.945.924 2.962 1.45l1.556.79 1.574.853a66 66 0 0 1 3.177 1.828 50 50 0 0 1 3.061 2.043c1.014.676 1.923 1.464 2.826 2.195.862.782 1.71 1.523 2.443 2.303l1.063 1.138c.331.379.627.768.916 1.135.6.715 1.057 1.447 1.468 2.085.404.644.737 1.215.96 1.719.48.984.698 1.569.698 1.569a.589.589 0 0 1-.949.642l-.03-.027s-.458-.418-1.162-1.189a33 33 0 0 0-1.285-1.366 55 55 0 0 0-1.649-1.758c-.306-.318-.625-.646-.94-1.001l-1.042-1.039c-.674-.752-1.489-1.446-2.268-2.228l-1.25-1.128c-.417-.389-.843-.78-1.294-1.151-.874-.775-1.808-1.507-2.743-2.246a64 64 0 0 0-2.87-2.111 47 47 0 0 0-2.916-1.866c-.958-.589-1.922-1.094-2.833-1.578-.926-.454-1.787-.915-2.61-1.282-1.646-.745-3.022-1.309-4.018-1.669l-1.567-.557a.578.578 0 1 1 .387-1.089q.014.004.024.008M76.478 92.57l-1.133 1.118c-.366.354-.786.795-1.249 1.315-.473.512-1 1.096-1.55 1.76a58 58 0 0 0-1.73 2.177c-.615.77-1.198 1.635-1.81 2.517a56 56 0 0 0-1.759 2.809c-.579.967-1.105 1.986-1.65 2.989-.506 1.027-1.052 2.027-1.515 3.05-.47 1.016-.935 2.016-1.384 2.984-.418.98-.873 1.904-1.234 2.812l-1.109 2.519-.964 2.128-.795 1.633c-.444.908-.756 1.415-.756 1.415l-.01.017a.593.593 0 0 1-1.097-.345s.034-.597.196-1.621c.067-.517.204-1.127.365-1.829.175-.697.371-1.486.665-2.319.251-.85.622-1.732.998-2.672a60 60 0 0 1 1.342-2.887c.515-.977 1.037-1.991 1.654-2.974.584-1 1.23-1.985 1.871-2.967.678-.961 1.334-1.932 2.038-2.847.667-.94 1.388-1.817 2.043-2.693.693-.848 1.336-1.688 1.981-2.455a60 60 0 0 1 1.84-2.142c1.128-1.327 2.153-2.395 2.835-3.134l1.086-1.162a.578.578 0 0 1 .845.789q-.005.007-.014.016M66.122 42.369l-1.059 2.15a88 88 0 0 0-1.113 2.487c-.383.984-.86 2.075-1.29 3.302-.449 1.22-.879 2.56-1.33 3.98l-.65 2.197-.593 2.319c-.38 1.58-.75 3.217-1.088 4.89a162 162 0 0 0-.874 5.098 266 266 0 0 0-.737 5.12l-.635 4.972-.579 4.653c-.205 1.484-.375 2.89-.593 4.18-.193 1.293-.419 2.473-.606 3.52-.209 1.028-.383 1.952-.556 2.696a40 40 0 0 1-.576 2.345.585.585 0 0 1-1.148-.135s-.043-.883-.016-2.415c.015-1.532.116-3.732.354-6.33.1-1.305.275-2.71.434-4.2.186-1.481.395-3.076.651-4.69.256-1.621.546-3.295.887-4.988s.694-3.412 1.094-5.121c.812-3.416 1.713-6.81 2.657-9.96a293 293 0 0 1 1.445-4.515c.493-1.424.963-2.77 1.448-3.992.444-1.238.926-2.345 1.318-3.34.427-.983.8-1.84 1.105-2.547l1.007-2.175a.576.576 0 1 1 1.048.486q-.002.007-.005.013"/><path class="primary-fill" fill="#FF8189" d="M36.455 33.026c-3.993-.417-9.342-3.124-11.884-6.233-.428-.523-.843-1.165-.707-1.827.208-1.014 1.505-1.337 2.538-1.27 1.05.07 2.087.33 3.046.76-.785-.695-1.135-1.745-1.454-2.744-.253-.792-.508-1.632-.319-2.441.19-.81 1.006-1.534 1.806-1.308.46.129.788.522 1.078.9a28.5 28.5 0 0 1 2.544 3.972c-.167-1.29-.623-2.57-.449-3.857s1.337-2.591 2.597-2.27c1.11.282 1.587 1.573 1.82 2.695a27.8 27.8 0 0 1-.616 13.623M24.717 50.428c-4.104.177-8.56-.966-9.76-1.66-1.202-.694-2.14-2.036-1.927-3.406.024-.153.066-.312.174-.424.116-.12.29-.165.453-.2a10 10 0 0 1 3.745-.082 5.8 5.8 0 0 1-1.306-3.056c-.084-.75.16-1.723.908-1.822.398-.053.773.18 1.094.422a11 11 0 0 1 1.996 1.93c-.178-.918-.326-1.972.26-2.701.715-.89 2.21-.746 3.06.018.848.764 1.194 1.932 1.422 3.05.378 1.86-.133 7.7-.134 8.108M56.03 24.084c-1.849-3.106-1.933-6.913-1.966-10.527-.01-1.107-.016-2.24.348-3.285s1.176-2.004 2.26-2.23c.324-.066.671-.063.973.07.574.256.85.906 1.033 1.507.421 1.378.64 2.818.648 4.259.007-1.087.686-2.087 1.57-2.72.883-.633 1.952-.951 3.013-1.185.27-.06.58-.105.796.066.174.138.23.376.261.596.287 2.047-.667 4.219-2.368 5.393 1-.666 2.07-1.356 3.271-1.392s2.513.883 2.426 2.08c-.05.709-.554 1.298-1.08 1.772-3.03 2.727-7.398 3.348-10.877 5.474M67.29 81.545a34.6 34.6 0 0 1-1.682-7.785c-.16-1.654-.162-3.46.815-4.805.433-.595 1.197-1.087 1.88-.81.416.169.68.578.886.978a9.5 9.5 0 0 1 1.036 3.59 7.92 7.92 0 0 1 3.48-4.504c.203-.123.425-.24.663-.232.5.014.813.537.972 1.01.64 1.904.272 4.116-.949 5.712a5.86 5.86 0 0 1 2.107-1.827c.486-.25 1.042-.432 1.574-.307.843.198 1.344 1.129 1.347 1.995.008 1.979-1.857 3.38-3.526 4.443-2.067 1.316-4.217 2.663-6.644 3.007-.586.083-1.34.25-1.409.839M73.327 94.596c-.303-3.016-.549-6.292 1.078-8.85.461-.724 1.447-1.402 2.1-.844.227.194.335.49.42.777.262.877.402 1.79.415 2.705.266-.708.98-1.13 1.656-1.47.834-.42 1.967-.752 2.597-.063.433.474.375 1.245.04 1.793s-.883.923-1.415 1.28c.963-.398 2.17-.255 2.912.476.742.73.867 2.053.167 2.825-.36.397-.873.615-1.376.797a16.75 16.75 0 0 1-7.887.84M63.01 46.005a15.84 15.84 0 0 1-1.879-9.131c.128-1.3.577-2.781 1.795-3.254 1.128-.437 2.441.257 3.106 1.267s.837 2.257.993 3.456a7.54 7.54 0 0 1 1.662-3.776c.662-.797 1.89-1.464 2.666-.778.263.232.401.573.5.909.58 1.966.035 4.222-1.377 5.708 1.393-.46 3.214-.634 4.053.569.62.886.343 2.174-.375 2.983-.717.809-1.769 1.232-2.804 1.542-2.433.728-5.007.98-7.535.737l.565.033M33.534 96.489c-3.03.008-6.316-.065-8.703-1.933-.677-.53-1.256-1.576-.637-2.172.215-.207.521-.285.814-.342a10 10 0 0 1 2.733-.15c-.679-.333-1.029-1.085-1.302-1.791-.336-.871-.558-2.031.19-2.591.513-.385 1.275-.252 1.788.134s.833.969 1.138 1.533c-.304-.997-.044-2.184.756-2.852s2.128-.664 2.828.108c.36.397.527.928.66 1.447.657 2.587.682 5.333.07 7.93M27.962 111.39c-2.687 1.403-5.637 2.85-8.616 2.291-.844-.158-1.84-.821-1.565-1.634.096-.283.331-.493.565-.679a10 10 0 0 1 2.357-1.391c-.756.016-1.413-.489-1.98-.99-.699-.618-1.43-1.546-1.024-2.387.28-.578 1.017-.811 1.65-.704s1.185.476 1.716.837c-.729-.745-1.044-1.918-.64-2.879.402-.961 1.583-1.569 2.56-1.206.501.187.894.581 1.25.981a16.7 16.7 0 0 1 3.713 7.007"/></svg>