<svg width="70" height="154" viewBox="0 0 70 154" fill="none" xmlns="http://www.w3.org/2000/svg">
<path class="primary-fill" d="M30.6386 51.0759C27.2546 48.9369 23.7496 46.7109 21.0916 43.5079C20.4426 42.7269 19.8136 41.8299 19.3296 40.9639C18.8076 40.0389 18.3926 39.1049 18.0456 38.1269C17.3536 36.1799 16.9406 34.1539 16.7316 32.1199C16.3206 28.0679 16.5326 23.8899 17.7866 19.9379C18.4176 17.9699 19.3176 16.0569 20.5876 14.3699C21.8416 12.6919 23.5406 11.2429 25.4006 10.3259C27.3976 9.37391 29.4876 8.9139 31.6266 8.9269C33.7546 8.9169 35.8626 9.34591 37.8446 10.1039C39.8136 10.8499 41.6956 12.0399 43.2306 13.4179C44.8436 14.8849 46.1656 16.5199 47.2506 18.3439C49.4246 21.9689 50.6036 26.1069 51.0316 30.2429C51.4766 34.4129 51.1076 38.6399 50.0166 42.6869L50.0626 42.4209L49.4256 51.4569C49.1946 54.4679 48.9306 57.4749 48.5776 60.4769L48.5656 60.5839C48.4836 61.2789 47.8546 61.7759 47.1596 61.6939C46.9576 61.6699 46.7686 61.5969 46.6096 61.4929L38.6576 56.2399C36.0186 54.4699 33.3366 52.7709 30.6476 51.0839L30.6386 51.0759ZM31.2916 50.0209C34.0396 51.6079 36.7946 53.1839 39.5916 54.6889L47.9536 59.2619L45.9846 60.2779C46.0906 57.2579 46.2856 54.2449 46.5136 51.2339L47.2546 42.2059L47.2556 42.1939C47.2626 42.1089 47.2796 42.0189 47.3006 41.9389C48.3316 38.2319 48.7046 34.3259 48.4296 30.4879C48.2846 28.5469 47.9666 26.6519 47.4496 24.7959C46.9256 22.9479 46.2196 21.1489 45.2816 19.4859C44.3726 17.8189 43.1776 16.2649 41.8606 14.9799C40.4486 13.6299 38.9026 12.5929 37.1386 11.8449C35.3936 11.1059 33.5076 10.6589 31.6116 10.6329C29.7296 10.5609 27.7926 10.9749 26.1416 11.7059C24.3716 12.5319 22.9136 13.7349 21.7156 15.2419C20.5316 16.7439 19.6376 18.4939 19.0256 20.3439C17.7886 24.0559 17.5176 28.0759 17.8636 32.0099C18.0446 33.9729 18.3956 35.9249 19.0526 37.7679C19.3776 38.6839 19.7866 39.5919 20.2526 40.4179C20.7516 41.3049 21.2886 42.0549 21.9196 42.8229C23.1576 44.3349 24.6796 45.6079 26.2756 46.7739C27.8766 47.9369 29.5776 48.9759 31.2916 50.0209Z" fill="#7B8E36"/>
<path class="primary-fill" d="M17.0936 28.6229L15.5166 27.8989L13.9176 27.3059L13.9926 27.3289C12.7276 27.0229 11.2926 27.0919 9.93357 27.2169C8.59157 27.3759 7.25557 27.7429 6.07057 28.3809C4.88157 29.0099 3.82457 29.8699 3.04657 30.9379C2.27757 32.0099 1.73257 33.2619 1.55757 34.5639C1.37157 35.9079 1.46657 37.2099 1.77357 38.5329C2.08557 39.8519 2.57357 41.0919 3.22557 42.3049C3.87957 43.4999 4.65857 44.6269 5.52857 45.6789C6.39957 46.7219 7.36757 47.7359 8.37257 48.6589C10.3896 50.5349 12.6586 52.1139 15.0436 53.4709C17.4316 54.8379 19.9376 55.9779 22.5516 56.8899C25.1316 57.8039 27.8256 58.5139 30.5406 59.1139L32.5916 59.5299L33.5846 59.7239L34.6436 59.8789C36.0536 60.1109 37.4636 60.3339 38.8676 60.6369L38.7676 61.8739C37.3336 61.9499 35.9056 61.9459 34.4766 61.9499L33.4066 61.9339L32.2806 61.8659C31.5556 61.8149 30.8326 61.7279 30.1086 61.6439C27.2126 61.2799 24.3586 60.6189 21.5656 59.6439C18.8086 58.6689 16.1196 57.4059 13.6216 55.8479C12.3636 55.0719 11.1816 54.2129 10.0126 53.2849C8.87157 52.3779 7.76957 51.3739 6.74557 50.3179C5.71557 49.2489 4.78557 48.1339 3.90457 46.9319C3.03457 45.7299 2.26757 44.4519 1.63957 43.1029C1.00457 41.7779 0.498573 40.3229 0.227573 38.8539C-0.0514269 37.3939 -0.0864306 35.8019 0.192569 34.3339C0.485569 32.8259 1.10757 31.3959 2.03157 30.1799C2.95857 28.9609 4.19157 28.0089 5.53057 27.3369C6.87357 26.6629 8.32457 26.2409 9.80757 26.0759C11.2736 25.9479 12.7266 25.8769 14.2526 26.1869L14.2776 26.1919L14.3286 26.2099L15.9946 26.7929L17.5856 27.4849L17.0936 28.6229Z" fill="#7B8E36"/>
<path class="primary-fill" d="M49.9036 58.3249C50.3866 57.8119 50.9196 57.2789 51.3626 56.7839L52.7586 55.1509C53.6016 54.1219 54.5086 52.8909 55.3056 51.7729C56.0976 50.6029 56.8476 49.3949 57.5506 48.1649C58.2536 46.9179 58.8926 45.6889 59.4956 44.3799C60.6666 41.8139 61.6836 39.1479 62.4766 36.4259C63.2826 33.7049 63.9236 30.9369 64.4256 28.1479C64.6796 26.7539 64.8546 25.3569 65.0246 23.9409C65.1896 22.5329 65.3176 21.1289 65.3856 19.7299C65.4486 18.3309 65.4546 16.9379 65.3816 15.5549C65.3016 14.2069 65.0996 12.8599 64.7416 11.5889C64.5606 10.9419 64.3496 10.3549 64.0776 9.7119C63.8346 9.1629 63.5226 8.5739 63.1826 8.0489C62.4886 6.9709 61.6436 6.0639 60.5946 5.2889C59.6176 4.5559 58.4676 3.97691 57.3016 3.69991C56.1196 3.42791 54.9616 3.4119 53.7296 3.7409L53.8556 3.7049L53.3886 3.8569C53.2596 3.8929 52.9926 3.9979 52.9006 4.0389C52.6236 4.1549 52.3356 4.3029 52.0656 4.4609C51.7956 4.6259 51.5236 4.79491 51.2616 4.99191L50.8696 5.29691L50.6996 5.4419L50.4916 5.6299C50.0406 6.0489 49.5716 6.5779 49.1776 7.1139C48.7696 7.6529 48.4056 8.2329 48.0946 8.8439C47.9366 9.1479 47.7956 9.4619 47.6636 9.7799L47.4606 10.2809L47.2806 10.7699C47.0406 11.4399 46.8536 12.1349 46.6696 12.8399C46.4876 13.5459 46.3476 14.2699 46.1946 15.0019L45.7636 17.2219L44.5286 17.1019C44.5276 16.3369 44.5156 15.5969 44.5446 14.8119C44.5656 14.0429 44.6246 13.2689 44.7106 12.4879C44.7916 11.7059 44.9346 10.9239 45.1156 10.1439L45.2646 9.5489L45.4276 8.97791C45.5486 8.58391 45.6926 8.1979 45.8516 7.8169C46.1666 7.0539 46.5516 6.3149 47.0016 5.6109C47.4636 4.9019 47.9706 4.2689 48.5956 3.6279L48.7986 3.4259L49.0476 3.1909C49.2036 3.0499 49.3636 2.9109 49.5306 2.7759C49.8626 2.5059 50.2126 2.2459 50.5876 2.0169C50.9656 1.7869 51.3466 1.5809 51.7626 1.3979C52.0156 1.2859 52.1006 1.25291 52.3306 1.17191L52.9366 0.958901L53.0636 0.922905C54.5946 0.467905 56.3926 0.457905 57.9916 0.867905C59.6096 1.2759 61.0716 2.0149 62.3666 3.0219C63.5996 3.9779 64.7176 5.2229 65.5336 6.5799C65.9576 7.2659 66.2876 7.9639 66.5866 8.7399C66.8436 9.4279 67.0856 10.2039 67.2546 10.9459C67.6046 12.4519 67.7586 13.9649 67.7816 15.4779C67.7966 16.9589 67.7176 18.4329 67.5686 19.8909C67.2596 22.8169 66.7506 25.6359 66.1336 28.4849C65.5136 31.3129 64.7546 34.1099 63.8286 36.8519C62.8866 39.5899 61.8656 42.2909 60.5956 44.9099C59.9816 46.1949 59.2666 47.4939 58.5526 48.7359C57.8316 49.9909 57.0686 51.2169 56.2516 52.4189C55.8336 53.0479 55.3956 53.5809 54.9696 54.1669C54.5166 54.7479 54.1696 55.2999 53.6436 55.9159L52.2746 57.5719C51.7716 58.1509 51.2966 58.6379 50.8066 59.1759L49.9036 58.3249Z" fill="#7B8E36"/>
<path class="leaf-fill" d="M55.3426 105.435C53.5726 100.082 51.7786 94.6729 48.8226 89.8719C45.8666 85.0709 41.5966 80.8609 36.2466 79.0819C35.7086 78.9029 35.1046 78.7529 34.5916 78.9939C34.2606 79.1489 34.0196 79.4459 33.8176 79.7509C32.3436 81.9759 32.4446 84.9659 33.4646 87.4319C34.4856 89.8979 36.3056 91.9379 38.1716 93.8449C43.3686 99.1569 49.1926 103.854 55.4836 107.81" fill="#FF9FA1"/>
<path class="leaf-fill" d="M54.4126 93.6359C54.9166 86.1739 56.1726 78.7629 58.1576 71.5519C59.6236 66.2249 61.7466 60.6519 66.2896 57.5059C66.9046 57.0799 67.7666 56.7139 68.3526 57.1799C68.6846 57.4439 68.7976 57.8909 68.8816 58.3059C70.1776 64.7549 68.9906 71.5429 66.3476 77.5659C63.7046 83.5899 59.6686 88.9109 55.1946 93.7329" fill="#FF9FA1"/>
<path class="stem-fill" d="M48.5646 60.2639C48.5646 60.2639 48.8906 61.6679 49.5366 64.1029C49.8636 65.3139 50.2216 66.8149 50.6506 68.5379C50.8686 69.3969 51.0996 70.3109 51.3446 71.2749C51.5716 72.2399 51.8096 73.2539 52.0576 74.3129C52.5976 76.4209 53.0816 78.7259 53.6366 81.1579C53.9256 82.3719 54.1786 83.6269 54.4376 84.9109C54.7106 86.1929 54.9896 87.5029 55.2736 88.8349C55.7566 91.5139 56.3906 94.2669 56.8626 97.0949C57.4346 99.9109 57.8756 102.793 58.3626 105.678C58.7566 108.571 59.2146 111.467 59.4636 114.336C59.5946 115.77 59.7716 117.192 59.8426 118.602C59.9196 120.012 59.9956 121.405 60.0706 122.776C60.1556 125.519 60.2056 128.174 60.1316 130.689C60.0626 133.205 59.9266 135.581 59.6686 137.765C59.4416 139.951 59.1226 141.944 58.7746 143.702C58.4386 145.461 58.0776 146.984 57.7076 148.228C57.3726 149.476 57.0396 150.445 56.8186 151.106C56.5906 151.766 56.4506 152.115 56.4506 152.115C56.0906 153.01 55.0736 153.443 54.1786 153.083C53.6096 152.854 53.2266 152.359 53.1166 151.799L53.1056 151.743C53.1056 151.743 53.0366 151.375 52.9416 150.692C52.8546 150.01 52.7156 149.009 52.6286 147.749C52.5336 146.488 52.4126 144.961 52.3216 143.219C52.2546 141.478 52.2076 139.522 52.1586 137.392C52.1576 135.264 52.1496 132.963 52.1866 130.53C52.2716 128.098 52.2316 125.533 52.3216 122.877C52.3436 120.218 52.3656 117.471 52.3886 114.679C52.4256 111.882 52.3866 109.04 52.3766 106.188C52.2886 103.343 52.2476 100.486 52.0676 97.6809C51.9096 94.8739 51.6616 92.1169 51.3656 89.4539C51.0256 86.7989 50.7246 84.2209 50.2816 81.8049C49.8886 79.3789 49.4496 77.0969 48.9976 74.9999C48.5566 72.8979 48.1166 70.9869 47.6686 69.3099C47.2546 67.6259 46.8526 66.1639 46.4766 64.9549C45.7706 62.5359 45.3226 61.1659 45.3226 61.1659C45.0336 60.2819 45.5166 59.3309 46.4006 59.0419C47.2846 58.7529 48.2356 59.2359 48.5246 60.1199C48.5396 60.1679 48.5536 60.2169 48.5646 60.2639Z" fill="#FF8189"/>
<path class="secondary-fill" d="M36.1366 82.5329C40.6676 86.6149 44.6946 91.2569 48.0956 96.3199C49.0756 97.7789 50.0246 99.3249 50.3046 101.06" stroke="white" stroke-width="1.3243" stroke-miterlimit="10" stroke-linecap="round" stroke-linejoin="round"/>
<path class="secondary-fill" d="M66.0876 60.5039C65.9926 60.5229 66.0646 60.3299 66.1496 60.3759C66.2346 60.4229 66.2246 60.5459 66.2036 60.6399C64.2626 69.3699 61.4366 77.9019 57.7836 86.0649" stroke="white" stroke-width="1.3243" stroke-miterlimit="10" stroke-linecap="round" stroke-linejoin="round"/>
<path class="secondary-fill" d="M6.53457 32.4549C5.53457 33.3159 6.23457 34.1179 6.35157 34.9619C6.47057 35.7929 6.58257 36.6069 6.86757 37.4009C7.44157 38.9959 8.19757 40.4809 9.12757 41.9199C10.0436 43.3479 11.0986 44.6729 12.2546 45.9129C13.4066 47.1619 14.6726 48.2839 16.0076 49.3239C16.6766 49.8429 17.3556 50.3379 18.0576 50.8099C18.7706 51.2859 19.4576 51.7159 20.2116 52.1479C20.9506 52.5659 21.6696 52.9769 22.4306 53.3559C23.1826 53.7399 23.9506 54.0919 24.7256 54.4279C26.2796 55.0909 27.8596 55.6939 29.4666 56.2339C31.0726 56.7779 32.7006 57.2719 34.3486 57.7449L34.0386 58.3319L33.8116 58.0509C33.7036 57.9169 33.7236 57.7209 33.8576 57.6129C33.9746 57.5189 34.1386 57.5219 34.2506 57.6139L34.5306 57.8419C34.6736 57.9589 34.6956 58.1699 34.5786 58.3139C34.5056 58.4029 34.3966 58.4449 34.2906 58.4359L34.2206 58.4289C30.7556 58.1099 27.3406 57.1759 24.1426 55.7549C22.5486 55.0299 20.9876 54.2409 19.5016 53.2969C18.7826 52.8409 18.0356 52.3269 17.3416 51.8129C16.6396 51.2919 15.9526 50.7489 15.2956 50.1739C13.9736 49.0309 12.7456 47.7869 11.6046 46.4699C10.4586 45.1559 9.43957 43.7439 8.51057 42.2689C8.04457 41.5339 7.61557 40.7889 7.21557 40.0079C6.82157 39.2309 6.47157 38.4279 6.18257 37.6019C5.89257 36.7759 5.67257 35.9219 5.53957 35.0509C5.39957 34.1949 5.35757 33.2659 5.43157 32.4139L5.43257 32.3989C5.44757 32.2279 5.83857 32.1019 6.00857 32.1169C6.17957 32.1319 6.53157 32.2819 6.53157 32.4529C6.53457 32.4519 6.53457 32.4549 6.53457 32.4549Z" fill="#7B8E36"/>
<path class="secondary-fill" d="M34.6336 11.5849C34.6336 11.5849 34.7666 11.6189 35.0796 11.7529C35.3676 11.8819 35.7766 12.1059 36.2166 12.4759C36.6596 12.8459 37.1246 13.3449 37.6086 13.9639C38.0696 14.5569 38.5796 15.2939 39.0576 16.1099C40.0326 17.7469 40.8556 19.8169 41.5506 22.0769C41.8936 23.2099 42.1856 24.3969 42.4426 25.6099C42.7086 26.8299 42.9336 28.0449 43.1346 29.3039C43.3276 30.5489 43.4816 31.8009 43.5946 33.0379C43.7186 34.2739 43.7786 35.4969 43.7976 36.6799C43.8506 39.0469 43.7626 41.2599 43.5356 43.1419C43.3206 45.0239 43.0196 46.5749 42.7506 47.6459C42.4906 48.7189 42.3016 49.3209 42.3016 49.3209C42.2496 49.4859 42.0746 49.5769 41.9096 49.5249C41.7696 49.4809 41.6826 49.3459 41.6916 49.2049C41.6916 49.2049 41.7326 48.5799 41.8296 47.4969C41.8716 46.9559 41.9216 46.2979 41.9796 45.5439C42.0506 44.7929 42.0966 43.9429 42.1616 43.0189C42.2116 42.0939 42.2836 41.0929 42.3116 40.0319C42.3706 38.9729 42.3896 37.8529 42.3886 36.6959C42.3726 34.3809 42.2856 31.9079 42.0356 29.4429C41.9136 28.2249 41.7566 26.9709 41.5666 25.7749C41.3666 24.5719 41.1256 23.3969 40.8356 22.2749C40.2756 20.0249 39.4346 18.0169 38.5256 16.4129C38.0646 15.6079 37.6056 14.9229 37.1406 14.3089C36.7006 13.7199 36.2456 13.2509 35.8416 12.9299C35.4376 12.6029 35.0806 12.4189 34.8336 12.3129C34.6066 12.2189 34.4366 12.1729 34.4366 12.1729C34.2716 12.1289 34.1736 11.9589 34.2186 11.7939C34.2626 11.6299 34.4306 11.5329 34.5936 11.5749L34.6336 11.5849Z" fill="#7B8E36"/>
<path class="secondary-fill" d="M26.1046 13.7029C26.1046 13.7029 25.9676 14.3059 25.8396 15.3269C25.7086 16.3629 25.6546 17.8639 25.8096 19.6559C25.9656 21.4459 26.2966 23.5299 26.8746 25.7159C27.4296 27.9139 28.1326 30.2139 28.9566 32.4799C29.7556 34.7519 30.6916 36.9689 31.5706 39.0419C32.4746 41.1049 33.3926 42.9949 34.1656 44.6239C34.9366 46.2459 35.6516 47.5189 36.2306 48.3659C36.8146 49.2069 37.2186 49.6409 37.2186 49.6409C37.3356 49.7669 37.3286 49.9629 37.2026 50.0799C37.0966 50.1789 36.9386 50.1889 36.8216 50.1139L36.8026 50.1009C36.8026 50.1009 36.2696 49.7559 35.5076 48.9539C34.7316 48.1679 33.8106 46.8739 32.9396 45.2539C32.0466 43.6519 31.1446 41.7089 30.2736 39.5909C29.3836 37.4799 28.6026 35.1599 27.9046 32.8229C27.2236 30.4839 26.6306 28.1089 26.1536 25.8829C25.6936 23.6459 25.3176 21.5379 25.1996 19.7029C25.0556 17.8699 25.1586 16.3319 25.2536 15.2619C25.3706 14.1759 25.4936 13.5939 25.4936 13.5939L25.4986 13.5699C25.5336 13.4019 25.6986 13.2959 25.8666 13.3309C26.0336 13.3669 26.1416 13.5309 26.1056 13.6989L26.1046 13.7029Z" fill="#7B8E36"/>
<path class="secondary-fill" d="M59.0306 5.89791C59.0386 5.91491 59.2046 5.93891 59.6046 6.15691C59.9836 6.36791 60.4966 6.73991 60.9466 7.37291C61.4056 7.99591 61.7896 8.84391 62.0796 9.84191C62.3636 10.8459 62.5386 11.9869 62.6766 13.2449C62.8026 14.4999 62.8586 15.8669 62.8256 17.3089C62.7866 18.7419 62.6966 20.2809 62.5266 21.8259C62.3816 23.3759 62.1326 25.0019 61.8486 26.6209C61.5606 28.2459 61.2076 29.8869 60.7876 31.5119C60.3636 33.1349 59.8916 34.7489 59.3516 36.3099C58.8366 37.8819 58.2336 39.3939 57.6206 40.8439C57.0036 42.2929 56.3606 43.6719 55.7276 44.9679C55.0646 46.2489 54.4246 47.4529 53.7806 48.5349C53.1436 49.6199 52.5226 50.5919 51.9496 51.4379C51.3856 52.2849 50.8996 53.0339 50.3966 53.6139C49.9056 54.1959 49.4506 54.6109 49.1056 54.8479C48.7626 55.0869 48.5616 55.1859 48.5616 55.1859L48.5456 55.1939C48.3916 55.2699 48.2056 55.2059 48.1306 55.0519C48.0626 54.9139 48.1066 54.7489 48.2286 54.6629C48.2286 54.6629 48.3876 54.5489 48.6486 54.2949C48.9106 54.0419 49.2706 53.6429 49.6506 53.0559C50.0256 52.4729 50.4566 51.7069 50.9526 50.8259C51.4566 49.9529 51.9776 48.9409 52.5786 47.8589C53.7426 45.6739 55.0786 43.1119 56.3286 40.2829C56.9416 38.8639 57.5576 37.3899 58.1326 35.8709C58.7226 34.3579 59.2336 32.7879 59.7226 31.2119C60.2046 29.6329 60.6226 28.0339 60.9766 26.4459C61.3106 24.8479 61.5976 23.2919 61.7926 21.7399C62.0196 20.1899 62.1396 18.7169 62.1806 17.2909C62.2256 15.8729 62.1826 14.5329 62.0706 13.3029C61.9486 12.0799 61.7826 10.9489 61.5226 9.99791C61.2626 9.04591 60.8916 8.26491 60.4746 7.72091C60.0706 7.16691 59.6216 6.85991 59.3246 6.69791C59.0406 6.53791 58.7886 6.47791 58.8066 6.47391C58.6476 6.41091 58.5686 6.23091 58.6316 6.07191C58.6916 5.91391 58.8706 5.83591 59.0306 5.89791Z" fill="#7B8E36"/>
<path class="secondary-fill" d="M53.6766 6.84091C53.6766 6.84091 53.5306 7.07891 53.2756 7.49691C53.0186 7.91391 52.7056 8.51591 52.3526 9.26891C52.0266 10.0309 51.6406 10.9199 51.3556 11.9199C51.0476 12.9099 50.7806 13.9849 50.5836 15.0729C50.1626 17.2449 49.8826 19.4349 49.5236 21.0639C49.3536 21.8789 49.1696 22.5509 49.0186 23.0279C48.8706 23.5009 48.7556 23.7669 48.7556 23.7669C48.6846 23.9299 48.4946 24.0049 48.3316 23.9339C48.2246 23.8879 48.1556 23.7889 48.1406 23.6819C48.1406 23.6819 47.9836 22.5429 48.1606 20.8529C48.2376 20.0099 48.4046 19.0369 48.6276 18.0009C48.8496 16.9639 49.1696 15.8739 49.5116 14.7949C49.6906 14.2569 49.8776 13.7219 50.0746 13.1999C50.2666 12.6769 50.4516 12.1609 50.6586 11.6719C51.0636 10.6919 51.4496 9.78191 51.8296 9.02391C52.1886 8.26091 52.5396 7.63192 52.7676 7.19992C53.0056 6.77292 53.1416 6.52891 53.1416 6.52891C53.2246 6.37891 53.4136 6.32592 53.5636 6.40892C53.7136 6.49192 53.7666 6.68091 53.6836 6.83091C53.6816 6.83391 53.6786 6.83791 53.6766 6.84091Z" fill="#7B8E36"/>
<path class="secondary-fill" d="M49.0306 62.5919C50.6186 58.2009 51.6186 53.5969 51.9936 48.9419C52.1376 47.1619 52.1406 45.2089 51.0436 43.7999C50.7356 43.4039 50.3276 43.0569 49.8366 42.9519C48.9326 42.7589 48.0606 43.4329 47.5476 44.2029C46.7216 45.4439 46.4626 46.9649 45.9586 48.3679C45.4556 49.7719 44.5426 51.5509 43.0986 51.9249C41.4796 52.3439 39.8566 50.9459 38.1876 50.8579C37.0076 50.7959 35.8626 51.2169 34.7556 51.6309C33.6746 52.0359 32.4686 52.5639 32.0916 53.6549C31.5876 55.1179 32.8746 56.5509 34.1046 57.4899C38.1876 60.6089 43.0086 62.7549 48.0576 63.7029" fill="#FF8189"/>
<path class="secondary-fill" d="M48.4956 62.4039C48.4956 62.4039 48.8656 61.4589 49.3926 59.7869C49.9296 58.1139 50.5586 55.6719 51.0166 52.6919C51.2286 51.2089 51.4116 49.5569 51.4716 47.8699C51.4846 47.0339 51.4346 46.1819 51.1806 45.4099C50.9396 44.6719 50.4166 43.8909 49.8636 43.6739C49.3896 43.4549 48.7086 43.8399 48.2526 44.5019C47.7926 45.1759 47.5026 46.0599 47.2496 47.0019C47.0016 47.9479 46.7356 49.0059 46.2566 50.0099C46.0196 50.5139 45.7406 51.0159 45.3596 51.4929C44.9856 51.9669 44.4976 52.4329 43.8376 52.7379C43.6536 52.8229 43.5506 52.8599 43.2696 52.9379C43.1196 52.9649 43.0806 52.9959 42.8376 53.0189C42.3986 53.0729 42.1076 53.0439 41.7706 53.0029C41.1256 52.9109 40.5906 52.7149 40.0976 52.5449C39.6086 52.3719 39.1616 52.2039 38.7666 52.1129C38.5706 52.0699 38.3826 52.0319 38.2196 52.0289L38.1576 51.9019C38.1576 51.9019 38.1086 51.7779 38.1546 51.7779H38.1076H37.9266L37.6696 51.9239C36.9036 52.0069 36.0626 52.4039 35.1706 52.7629C34.3056 53.0869 33.5946 53.5309 33.4176 53.8749C33.3886 53.9159 33.3746 53.9719 33.3566 54.0119L33.3466 54.0499L33.3406 54.0689L33.3376 54.0779C33.3306 54.0979 33.3856 53.9219 33.3596 54.0069L33.3156 54.1789L33.2936 54.2649C33.2926 54.2789 33.3016 54.2749 33.3016 54.2749C33.3066 54.2769 33.3046 54.2779 33.3046 54.2779C33.3106 54.3099 33.3016 54.3579 33.3116 54.4019C33.3346 54.5839 33.4196 54.8319 33.6006 55.0979C33.9626 55.6389 34.5236 56.1509 35.1816 56.6169C36.5286 57.6519 37.8526 58.4709 39.1246 59.2179C41.6676 60.6759 43.9506 61.6209 45.5726 62.2389C47.2016 62.8389 48.1646 63.1449 48.1646 63.1449L48.1736 63.1479C48.4746 63.2429 48.6406 63.5639 48.5446 63.8649C48.4626 64.1229 48.2136 64.2819 47.9546 64.2609C47.9546 64.2609 47.6956 64.2399 47.2086 64.2009C46.7226 64.1549 46.0096 64.0719 45.1106 63.8999C43.3186 63.5609 40.7566 62.8749 37.9296 61.4449C36.5156 60.7589 35.0316 59.8289 33.5856 58.7719C32.8346 58.2189 32.0186 57.5319 31.3676 56.5409C31.0446 56.0449 30.7586 55.4159 30.6786 54.6669C30.6566 54.4809 30.6626 54.2919 30.6686 54.0899C30.6806 53.9739 30.6966 53.8579 30.7166 53.7429L30.7486 53.5789L30.7726 53.4939L30.8216 53.3239L30.8576 53.2099L30.8706 53.1759L30.8976 53.1089L30.9536 52.9749C31.0336 52.8009 31.1256 52.6269 31.2336 52.4729C32.1416 51.2029 33.3406 50.8329 34.2716 50.4649C35.2086 50.1429 36.2486 49.7659 37.4846 49.6889C37.6316 49.6799 37.8006 49.6779 37.9776 49.6809L38.1716 49.6909L38.4336 49.7159C38.7716 49.7489 39.0746 49.8279 39.3656 49.9099C39.9436 50.0809 40.4306 50.3019 40.8856 50.4879C41.3366 50.6739 41.7556 50.8409 42.1146 50.9089C42.2786 50.9439 42.4966 50.9609 42.5636 50.9609C42.5766 50.9829 42.7816 50.9329 42.8826 50.9229C42.8436 50.9259 42.9886 50.9019 43.0336 50.8759C43.5966 50.6849 44.1926 49.9739 44.6166 49.1849C45.0636 48.3849 45.3576 47.4949 45.6796 46.5289C46.0046 45.5679 46.3546 44.5369 47.0486 43.6149C47.4096 43.1519 47.8516 42.7429 48.4316 42.4699C49.0216 42.1929 49.7456 42.1219 50.4036 42.4269C51.0086 42.7059 51.4186 43.1779 51.7046 43.6149C52.0056 44.0669 52.2166 44.5599 52.3566 45.0509C52.6386 46.0369 52.6706 47.0019 52.6366 47.9049C52.5336 49.7029 52.3136 51.3319 52.0636 52.8569C51.5916 55.8989 50.9146 58.3769 50.4236 60.1019C49.9166 61.8289 49.5656 62.7839 49.5656 62.7839L49.5556 62.8099C49.4476 63.1039 49.1206 63.2549 48.8266 63.1459C48.5326 63.0369 48.3816 62.7109 48.4906 62.4169C48.4926 62.4119 48.4946 62.4059 48.4956 62.4039Z" fill="#FF8189"/>
</svg>
