<svg xmlns="http://www.w3.org/2000/svg" width="110" height="170" fill="none"><path fill="#93AF45" d="m39.466 50.318 1.012-5.33c.878-4.624 1.775-9.308 3.803-13.557.46-.964 1.145-2.018 2.209-2.11 1.59-.139 2.411 1.87 2.499 3.464.407 7.391-3.883 14.213-8.714 19.822"/><path fill="#93AF45" d="M39.92 50.404s.519-3.065 1.423-7.626c.491-2.267 1.04-4.923 2.037-7.617.484-1.33 1.082-2.745 1.78-3.977.358-.584.839-1.047 1.264-1.1a.5.5 0 0 1 .124-.009c.078.007.235-.003.25.017.035.021.143.045.232.105.18.106.358.3.507.548.297.502.48 1.176.531 1.825l.012.243-.004.25-.008.578c.006.396-.021.758-.061 1.101-.13 1.4-.403 2.836-.818 4.15-.414 1.322-.888 2.586-1.459 3.74a42 42 0 0 1-1.698 3.217c-1.142 1.958-2.204 3.551-2.943 4.678l-1.166 1.78-.003.005a.466.466 0 0 0 .704.6l.418-.384c.27-.252.669-.62 1.141-1.123.487-.49 1.04-1.12 1.663-1.858.603-.752 1.285-1.607 1.933-2.613.68-.984 1.307-2.128 1.924-3.365a25.3 25.3 0 0 0 1.534-4.089c.417-1.474.665-3.022.703-4.67.02-.42.022-.824-.005-1.198l-.026-.577-.016-.329-.037-.335c-.13-.88-.391-1.74-.944-2.54-.279-.394-.654-.782-1.167-1.03a2.4 2.4 0 0 0-.87-.234c-.176-.017-.216.002-.33.001-.215.008-.298.035-.449.067-1.12.311-1.69 1.177-2.082 1.884-.732 1.47-1.233 2.868-1.678 4.292-.854 2.83-1.416 5.506-1.837 7.802-.858 4.583-1.485 7.621-1.485 7.621a.462.462 0 1 0 .905.191q-.002-.013.001-.02M45.168 71.091a42.2 42.2 0 0 1 4.925-17.536c.424-.79.904-1.6 1.669-2.07s1.894-.467 2.447.24c.212.27.317.607.405.94 1.116 4.211.12 8.76-1.84 12.65s-3.987 6.897-6.822 10.206"/><path fill="#93AF45" d="M45.228 71.123s.212-.195.234-.562c.017-.37.159-.9.22-1.57.118-1.35.463-3.272 1.018-5.53.596-2.246 1.453-4.845 2.754-7.44.321-.65.674-1.304 1.038-1.954.36-.656.735-1.279 1.2-1.705.213-.2.528-.38.739-.429.26-.07.547-.078.769-.01.228.072.357.18.447.345.049.09.094.215.135.367l.055.227.057.288c.61 2.911.132 5.924-.772 8.56a25.5 25.5 0 0 1-1.628 3.717 82 82 0 0 1-1.78 3.253 102 102 0 0 1-2.945 4.74l-1.169 1.8a.467.467 0 0 0 .69.611l.012-.01s.611-.513 1.576-1.519a31 31 0 0 0 3.602-4.533 37 37 0 0 0 1.951-3.352c.617-1.21 1.266-2.588 1.699-4.059a18.7 18.7 0 0 0 .848-4.679c.078-1.617-.056-3.32-.503-4.9l-.076-.285-.105-.338a3.2 3.2 0 0 0-.334-.706c-.319-.51-.895-.859-1.427-.958a2.87 2.87 0 0 0-1.535.122c-.53.195-.868.47-1.209.802-.642.66-1.008 1.41-1.345 2.087a43 43 0 0 0-.956 2.056c-1.174 2.735-2.036 5.378-2.571 7.691-.568 2.307-.838 4.27-1.007 5.645a39 39 0 0 0-.156 1.6l-.045.56c-.02.255-.031.477.224.498.254.02.298-.169.298-.424-.003.002-.003-.003-.003-.006M49.012 93.767c.467-3.917.926-8.89 2.384-12.555 1.1-2.764 2.642-5.595 5.305-6.919.291-.145.611-.272.932-.224.653.097.983.833 1.133 1.476.725 3.092.028 6.346-1.041 9.336a38.6 38.6 0 0 1-7.857 13.043"/><path fill="#93AF45" d="m49.471 93.821.225-2.116c.14-1.345.364-3.263.786-5.524.222-1.127.504-2.34.915-3.576a20.6 20.6 0 0 1 1.665-3.728c.703-1.214 1.583-2.379 2.708-3.222a6.6 6.6 0 0 1 .885-.558c.307-.159.655-.324.797-.31.027-.003.083.008.054.008.155.04.024.013.078.035a.6.6 0 0 1 .146.173c.115.181.215.493.261.791.552 2.871-.216 5.788-1.155 8.417-.497 1.335-1 2.578-1.568 3.748-.542 1.174-1.129 2.247-1.67 3.24a72 72 0 0 1-2.885 4.67l-1.186 1.745-.007.01a.465.465 0 0 0 .689.615l.43-.37c.28-.244.681-.612 1.165-1.107a27.6 27.6 0 0 0 3.565-4.5c.656-.997 1.269-2.138 1.87-3.366a36 36 0 0 0 1.6-3.992c.472-1.42.858-2.947 1.027-4.55.174-1.59.129-3.3-.293-4.885-.115-.456-.263-.895-.593-1.35a2 2 0 0 0-.699-.606 1.7 1.7 0 0 0-.466-.154 1.6 1.6 0 0 0-.522-.012c-.634.104-.958.365-1.321.566-.357.221-.691.47-1.01.73-1.27 1.06-2.158 2.4-2.841 3.723a26.6 26.6 0 0 0-1.615 3.957c-.404 1.298-.654 2.55-.87 3.7-.428 2.305-.631 4.237-.817 5.581l-.268 2.111a.463.463 0 1 0 .92.106M51.861 114.948c.122.251-.364-.018-.296-.289a57.9 57.9 0 0 1 7.608-17.518c.785-1.21 2.128-2.55 3.438-1.946.601.277.963.904 1.175 1.531.934 2.774-.393 5.762-1.797 8.329a102.6 102.6 0 0 1-9.405 14.238"/><path fill="#93AF45" d="m51.428 115.109.014.035c.01.025-.016-.034-.02-.077-.001-.048-.018-.077.032-.221a.44.44 0 0 1 .313-.251.4.4 0 0 1 .165.002c.098.032.062.03.066.026-.01-.001.007-.014.018.078 0 .015-.002.062-.008.066l.019-.075.04-.163.092-.371.236-.914c.353-1.359.959-3.289 1.841-5.539.913-2.237 2.089-4.811 3.657-7.391q.584-.97 1.22-1.945c.442-.654.834-1.306 1.343-1.794.495-.5 1.128-.857 1.545-.779.398.028.775.455.969 1.095.429 1.32.241 2.797-.245 4.183-.493 1.395-1.223 2.718-1.976 4.027-1.49 2.618-2.984 5.001-4.254 7.051l-3.108 4.951a76 76 0 0 0-1.165 1.905.466.466 0 0 0 .727.572s.599-.566 1.559-1.634a51 51 0 0 0 3.698-4.655c1.433-2.003 2.943-4.451 4.406-7.16.728-1.346 1.489-2.819 1.957-4.48.469-1.636.662-3.57-.05-5.333-.182-.446-.428-.902-.829-1.3a3 3 0 0 0-.331-.276 2.39 2.39 0 0 0-1.248-.431c-.602-.027-1.145.178-1.56.438-.421.264-.758.58-1.055.911-.61.663-1.006 1.406-1.41 2.067a62 62 0 0 0-1.15 2.04c-1.44 2.717-2.642 5.321-3.5 7.622-.895 2.288-1.477 4.246-1.886 5.624l-.257.918-.1.369-.044.162-.02.075a.7.7 0 0 0-.022.211c.026.285.149.418.239.518.106.099.176.166.369.224a.495.495 0 0 0 .589-.281c.06-.162.038-.207.035-.271-.007-.058-.033-.132-.028-.118l-.013-.035-.005-.013a.462.462 0 0 0-.866.327q-.002.006.001.01M54.573 133.178c2.638-6.439 5.51-12.047 9.475-17.766.631-.91 1.38-1.878 2.466-2.095 1.22-.244 2.464.622 2.98 1.754s.438 2.449.161 3.662c-.528 2.317-1.722 4.424-3.02 6.415-3.011 4.616-7.249 9.5-11.416 13.106"/><path fill="#93AF45" d="m54.999 133.356.901-2.202c.576-1.397 1.472-3.365 2.648-5.671 1.203-2.292 2.681-4.93 4.518-7.59a95 95 0 0 1 1.416-2.011c.477-.666.973-1.304 1.553-1.634a1.7 1.7 0 0 1 .624-.225c.112-.015.222-.025.254-.015.252.001.572.1.837.261.561.337.958.892 1.117 1.553.35 1.334-.124 3.006-.72 4.451-.634 1.469-1.443 2.869-2.329 4.193-.886 1.35-1.796 2.556-2.686 3.737a125 125 0 0 1-2.565 3.244c-.822.984-1.573 1.89-2.263 2.674l-1.788 2.035-1.598 1.75a.466.466 0 0 0 .599.704l.006-.004s.737-.485 1.934-1.455a36 36 0 0 0 2.103-1.815c.777-.738 1.652-1.576 2.54-2.554a49 49 0 0 0 2.755-3.256 53 53 0 0 0 2.74-3.908c.882-1.4 1.79-2.912 2.396-4.63.156-.43.29-.857.409-1.318.065-.24.109-.447.154-.656.053-.253.091-.468.125-.71.13-.939.145-1.962-.18-2.966-.312-1.006-1.048-1.939-2.017-2.42-.492-.245-1.031-.399-1.64-.363-.184.008-.286.03-.386.048a3.117 3.117 0 0 0-1.154.484c-.868.602-1.375 1.388-1.843 2.089a100 100 0 0 0-1.341 2.103c-1.708 2.795-3.186 5.468-4.342 7.813-1.177 2.335-2.052 4.328-2.678 5.718l-.949 2.194a.462.462 0 1 0 .849.367c-.003-.005.001-.013.001-.015M40.984 55.914a32.55 32.55 0 0 0-11.475-14.292c-1.102-.766-2.315-1.483-3.654-1.56-.328-.02-.668.002-.965.144-.583.28-.869.953-.958 1.593-.363 2.626 1.724 4.92 3.804 6.564a40.6 40.6 0 0 0 12.783 6.801"/><path fill="#93AF45" d="m41.408 55.731-.219-.493a26 26 0 0 0-.658-1.396c-.611-1.185-1.495-2.872-2.832-4.724-1.289-1.884-3.058-3.892-5.157-5.837a30.4 30.4 0 0 0-3.481-2.748c-.646-.429-1.367-.827-2.195-1.064a4.9 4.9 0 0 0-1.317-.197 2.6 2.6 0 0 0-.795.12 2.2 2.2 0 0 0-.774.452c-.862.802-.962 1.905-.98 2.686.004.951.235 1.795.6 2.568.729 1.54 1.843 2.696 2.957 3.674 1.127.96 2.24 1.757 3.348 2.504 1.114.715 2.193 1.354 3.232 1.86a28 28 0 0 0 5.187 2.004c.646.18 1.161.293 1.514.361l.541.103a.465.465 0 0 0 .291-.876l-.01-.005-1.841-.895a80 80 0 0 1-4.706-2.502c-.943-.562-1.966-1.163-3.003-1.87a42 42 0 0 1-3.178-2.31c-1.018-.839-1.984-1.806-2.602-2.91a4.2 4.2 0 0 1-.532-1.708 2.2 2.2 0 0 1-.001-.487l.007-.14c-.009.047.005-.045.006-.06q.014-.103.035-.199c.057-.257.159-.48.27-.597.025-.033.065-.059.055-.06.076-.049.077-.054.121-.073a1 1 0 0 1 .309-.07c.267-.02.602.01.906.073.624.128 1.252.406 1.861.751a29 29 0 0 1 3.453 2.452c2.146 1.751 3.867 3.716 5.179 5.505a29 29 0 0 1 3.353 5.978l.208.497a.462.462 0 1 0 .853-.357zM45.881 74.97c-1.099-4.505-5.541-8.23-9.049-11.263-2.043-1.767-4.484-3.653-7.144-3.187-.871 3.082 1.124 6.22 3.32 8.55a36.5 36.5 0 0 0 12.781 8.756"/><path fill="#93AF45" d="M46.325 74.841c-.137-.453-.264-.904-.469-1.38-.182-.475-.409-.9-.642-1.334a18 18 0 0 0-1.623-2.422c-1.204-1.517-2.563-2.882-3.965-4.178l-2.118-1.917c-.7-.638-1.418-1.29-2.201-1.882-.779-.595-1.631-1.137-2.593-1.524-.954-.397-2.059-.59-3.157-.439a.73.73 0 0 0-.599.523l-.006.023c-.159.574-.29 1.17-.289 1.77a6.9 6.9 0 0 0 .178 1.766c.254 1.151.739 2.203 1.314 3.17.57.973 1.256 1.85 1.993 2.667.389.42.708.773 1.113 1.173.389.392.784.754 1.181 1.122 3.196 2.9 7.013 5.19 11.175 6.275a.466.466 0 0 0 .355-.852l-.007-.004c-1.803-1.065-3.57-2.105-5.246-3.283-.85-.568-1.665-1.184-2.475-1.8a55 55 0 0 1-2.355-1.948c-.376-.342-.759-.686-1.113-1.036-.352-.328-.755-.737-1.091-1.078-.685-.724-1.337-1.478-1.886-2.283-1.107-1.594-1.787-3.465-1.373-5.242l-.605.547c.78-.165 1.615-.099 2.435.171.817.277 1.609.717 2.364 1.236 1.497 1.044 2.956 2.317 4.373 3.545 1.409 1.248 2.779 2.542 3.926 4.007.294.36.56.74.823 1.12.259.383.501.775.712 1.184.207.405.418.825.565 1.24.168.4.291.863.418 1.322a.463.463 0 1 0 .888-.259M49.517 98.085c-1.561-7.109-6.212-13.484-12.505-17.14-.436.682-.514 1.53-.507 2.341.031 3.667 1.582 7.236 3.97 10.02 2.388 2.782 5.57 4.813 8.975 6.175"/><path fill="#93AF45" d="m49.966 97.974-.344-1.32-.424-1.333-.479-1.3-.54-1.277-.605-1.247-.658-1.22-.716-1.187-.776-1.15a43 43 0 0 0-1.709-2.189l-.929-1.037-.982-.99-1.033-.939-1.08-.889-1.122-.84-1.168-.783a.726.726 0 0 0-1.008.2l-.036.054c-.376.556-.555 1.184-.64 1.763-.09.57-.08 1.161-.077 1.65.016.552.061 1.11.133 1.64.078.536.174 1.071.306 1.597.514 2.108 1.481 4.095 2.769 5.828.323.434.657.858 1.019 1.261.323.363.753.796 1.129 1.148.776.743 1.635 1.386 2.518 1.977 1.789 1.148 3.732 2.025 5.762 2.521a.466.466 0 0 0 .343-.859c-1.746-1.02-3.428-2.059-4.956-3.273-.777-.588-1.489-1.246-2.181-1.914a16 16 0 0 1-.986-1.052 16.925 16.925 0 0 1-3.525-6.16 14 14 0 0 1-.357-1.382c-.094-.475-.16-.929-.204-1.393-.036-.527-.069-.957-.037-1.4.029-.429.12-.81.292-1.117l-1.044.253 1.152.652 1.119.715 1.075.783 1.032.843.989.896.943.947.893.997.83 1.052.776 1.093.721 1.131.66 1.168.589 1.206.526 1.234.455 1.262.374 1.275.313 1.328a.464.464 0 0 0 .556.344.464.464 0 0 0 .344-.556zM52.209 117.193c-2.448-6.68-7.061-12.548-12.975-16.503-.207-.138-.436-.28-.684-.259-.572.049-.705.824-.647 1.395.385 3.824 2.144 7.438 4.636 10.364 2.492 2.925 6.585 5.914 10.009 7.658"/><path fill="#93AF45" d="m52.639 117.025-.201-.5c-.13-.326-.317-.804-.602-1.415a42 42 0 0 0-1.051-2.158 34 34 0 0 0-1.563-2.685c-1.2-1.937-2.845-4.043-4.828-6.101a34 34 0 0 0-3.27-2.962 18 18 0 0 0-.894-.699l-.456-.344c-.144-.107-.312-.246-.607-.379a1.5 1.5 0 0 0-.549-.126c-.076.002-.058-.008-.213.012l-.07.01a1.4 1.4 0 0 0-.354.115c-.424.213-.63.571-.741.845-.213.543-.199 1.09-.154 1.496a17.9 17.9 0 0 0 1.009 4.583c.512 1.47 1.235 2.83 2.036 4.069a21 21 0 0 0 2.678 3.299 26 26 0 0 0 2.84 2.453c1.853 1.384 3.529 2.328 4.743 2.902a19 19 0 0 0 1.945.819.465.465 0 0 0 .433-.814l-.014-.01-1.662-1.178a65 65 0 0 1-4.178-3.295 44 44 0 0 1-2.562-2.395c-.828-.874-1.703-1.874-2.434-2.978-1.507-2.197-2.738-4.824-3.153-7.662-.035-.216-.048-.277-.05-.419a1.2 1.2 0 0 1 .032-.306c.02-.073.029-.052-.056-.011-.001.008-.136.039-.092.022l.069-.014c-.109.013-.044.003-.073.005-.028-.004-.031-.014-.005-.007.05.01.19.089.35.196l.459.296c.307.195.612.392.904.605a29.5 29.5 0 0 1 3.304 2.678c2.046 1.867 3.659 3.92 4.884 5.768a30 30 0 0 1 1.535 2.611c.422.796.759 1.512 1 2.106.257.585.435 1.071.558 1.401l.19.504a.462.462 0 0 0 .865-.325q0-.007-.002-.012M54.512 137.409a44.4 44.4 0 0 0-10.45-15.805c-.749-.727-1.843-1.473-2.745-.948-.855.498-.813 1.734-.604 2.701 1.608 7.444 7.159 13.99 13.987 17.363"/><path fill="#93AF45" d="m54.942 137.237-.208-.5c-.13-.325-.335-.805-.613-1.416-.565-1.207-1.363-2.934-2.54-4.891-1.14-1.977-2.66-4.171-4.465-6.389-.926-1.114-1.86-2.183-3.007-3.289a4.8 4.8 0 0 0-1.075-.736c-.417-.198-.962-.35-1.559-.221-.144.039-.289.08-.42.148l-.1.048-.113.068c-.044.029-.07.04-.129.084a2.1 2.1 0 0 0-.607.704c-.271.506-.334 1.008-.347 1.461-.008.468.034.869.128 1.324l.241 1.101c.193.734.401 1.544.672 2.252.492 1.467 1.164 2.84 1.909 4.106.733 1.277 1.59 2.417 2.445 3.455a24 24 0 0 0 2.668 2.685c.883.772 1.768 1.384 2.558 1.908.814.491 1.527.905 2.148 1.185.603.31 1.11.487 1.447.619l.52.193a.464.464 0 0 0 .433-.812l-.023-.016-.436-.313c-.284-.203-.709-.481-1.223-.873a38 38 0 0 1-4.042-3.407c-.768-.77-1.599-1.605-2.38-2.572a26 26 0 0 1-2.292-3.156 25 25 0 0 1-1.923-3.696c-.298-.662-.498-1.295-.732-1.996l-.307-1.085a4.5 4.5 0 0 1-.154-.912c-.018-.294.017-.564.091-.731.026-.076.106-.168.091-.17.013-.016.069-.052.101-.077l.03-.021.013-.01c-.085.053-.02.013-.037.024l.026-.014c.033-.026.07-.034.104-.053.277-.129.917.126 1.422.533 1.039.896 2.091 1.974 3.02 2.987a34 34 0 0 1 2.548 3.113 43 43 0 0 1 2.014 2.995 39 39 0 0 1 3.048 6.204l.196.504a.461.461 0 1 0 .861-.335z"/><path fill="#93AF45" d="m29.991 29.642 1.997 3.996c.683 1.328 1.234 2.69 1.858 4.034.63 1.337 1.174 2.716 1.718 4.096.547 1.378 1.115 2.748 1.594 4.152.491 1.4 1.022 2.785 1.481 4.195l1.346 4.242c.825 2.851 1.654 5.7 2.36 8.584.762 2.868 1.382 5.775 1.992 8.68l.872 4.368.797 4.383c.497 2.93 1.002 5.856 1.413 8.8.442 2.938.826 5.887 1.218 8.834l2.189 17.72c.705 5.912 1.43 11.807 2.023 17.703.298 2.948.536 5.898.756 8.845.221 2.949.354 5.897.481 8.846.076 2.948.164 5.899.098 8.847 0 2.952-.162 5.897-.322 8.85l1.943.117c-.075-1.57-.159-3.139-.262-4.709a.695.695 0 0 0-1.387-.005 265 265 0 0 0-.301 4.706.971.971 0 0 0 1.929.208l.014-.091c.463-2.97.847-5.96 1.05-8.962.216-3.002.312-6.011.302-9.018-.02-6.013-.439-12.011-1.074-17.963-.625-5.954-1.435-11.875-2.329-17.768-.894-5.892-1.758-11.789-2.745-17.676-.498-2.943-.987-5.886-1.535-8.822a563 563 0 0 0-1.668-8.8l-.911-4.388-.986-4.37c-.316-1.46-.702-2.905-1.058-4.356a119 119 0 0 0-1.109-4.342c-.745-2.894-1.613-5.755-2.477-8.616l-1.401-4.259c-.464-1.42-1.001-2.817-1.498-4.227-.485-1.414-1.059-2.796-1.613-4.185a89 89 0 0 0-1.728-4.145c-.615-1.364-1.171-2.77-1.836-4.1l-1.953-4.018a.693.693 0 1 0-1.247.607c.006.001.009.007.009.007"/><path fill="#fff" d="M46.228 31.752s.011.261-.039.718c-.044.46-.133 1.095-.287 1.863-.153.766-.34 1.66-.634 2.591-.289.933-.648 1.91-1.061 2.863-.409.955-.874 1.88-1.293 2.753l-1.232 2.344c-.727 1.368-1.15 2.343-1.15 2.343a.236.236 0 0 0 .381.263s.193-.188.501-.54c.316-.347.729-.874 1.158-1.549.448-.665.869-1.5 1.292-2.406.429-.903.786-1.91 1.122-2.919a50 50 0 0 0 1.385-5.658c.265-1.569.396-2.608.396-2.608.018-.126-.11-.243-.236-.26-.126-.019-.301.07-.301.196-.002 0-.002.006-.002.006M52.43 54.523s-.128 1.077-.473 2.653a41.4 41.4 0 0 1-1.606 5.695c-.71 2.031-1.508 4.02-2.044 5.537a26 26 0 0 0-.793 2.583.235.235 0 0 0 .421.19s.656-.895 1.325-2.39c.35-.74.672-1.64.998-2.608.337-.965.611-2.022.884-3.076.503-2.12.953-4.243 1.262-5.84l.482-2.668.001-.007a.231.231 0 1 0-.457-.069M56.758 77.854s-.23 1.05-.726 2.567a40 40 0 0 1-2.151 5.448c-.905 1.928-1.895 3.803-2.579 5.242-.69 1.435-1.047 2.462-1.047 2.462a.236.236 0 0 0 .4.234s.74-.812 1.555-2.215c.422-.693.831-1.546 1.252-2.466.431-.916.808-1.93 1.182-2.94a139 139 0 0 0 1.824-5.63l.736-2.582.002-.007a.231.231 0 1 0-.445-.127q0 .008-.003.014M62.16 97.832l-.196.706c-.119.453-.33 1.076-.598 1.826-.269.748-.588 1.621-1.005 2.524a36 36 0 0 1-1.406 2.775c-1.026 1.852-2.164 3.622-2.981 4.977-.821 1.35-1.289 2.325-1.289 2.325a.236.236 0 0 0 .37.277s.203-.183.529-.527c.333-.339.774-.852 1.247-1.508.489-.646.972-1.459 1.468-2.339.505-.876.956-1.858 1.397-2.839a81 81 0 0 0 2.102-5.515c.497-1.533.807-2.55.807-2.55a.23.23 0 1 0-.441-.138zM66.259 117.945s-.271.954-.804 2.331a41 41 0 0 1-2.218 4.941c-.903 1.751-1.862 3.461-2.509 4.785-.654 1.32-.973 2.276-.973 2.276a.237.237 0 0 0 .398.236s.702-.738 1.476-2.018c.401-.632.793-1.412 1.199-2.253.418-.836.787-1.763 1.161-2.686a291 291 0 0 0 1.894-5.126l.815-2.34.003-.007a.23.23 0 0 0-.143-.294.23.23 0 0 0-.294.142q-.004.006-.005.013M25.908 42.677s.608.751 1.562 1.866a58 58 0 0 0 3.742 3.856c.731.653 1.474 1.301 2.228 1.832.749.537 1.463 1.021 2.122 1.355.649.351 1.218.59 1.629.727.407.145.648.208.648.208a.237.237 0 0 0 .209-.413s-.764-.62-1.96-1.405L34.04 49.37c-.733-.512-1.534-1.035-2.303-1.607a28 28 0 0 1-2.189-1.778 24 24 0 0 1-1.738-1.746c-.488-.534-.88-.98-1.135-1.323l-.406-.528a.231.231 0 1 0-.366.282zM31.882 63.145s.589.82 1.549 2.022a42 42 0 0 0 3.864 4.088c.771.678 1.563 1.343 2.368 1.88.801.54 1.567 1.022 2.274 1.342.695.34 1.304.561 1.741.682.434.13.688.183.688.183a.236.236 0 0 0 .189-.419l-.007-.005s-.207-.155-.581-.389c-.369-.245-.905-.568-1.543-.955-.639-.385-1.389-.825-2.183-1.314-.777-.514-1.619-1.049-2.424-1.643a25 25 0 0 1-2.27-1.872 21 21 0 0 1-1.767-1.869c-.491-.575-.877-1.059-1.127-1.428l-.398-.572a.231.231 0 1 0-.38.264c.003 0 .007.005.007.005M37.433 84.68s.43.82 1.182 2.014c.733 1.2 1.84 2.716 3.09 4.137.641.693 1.312 1.367 1.999 1.933.693.557 1.366 1.05 1.992 1.39a8.7 8.7 0 0 0 1.56.725c.393.14.624.2.624.2a.237.237 0 0 0 .216-.406l-.008-.008s-.178-.158-.503-.398c-.319-.25-.785-.582-1.338-.98-1.11-.788-2.592-1.827-3.962-3.04a20.5 20.5 0 0 1-1.892-1.91 18 18 0 0 1-1.418-1.877 15 15 0 0 1-.846-1.432l-.291-.568a.23.23 0 1 0-.411.211l.001.002zM39.159 103.829l.277.637c.183.398.432 1 .786 1.675.168.344.371.705.591 1.086.216.382.467.771.708 1.185a34 34 0 0 0 1.734 2.464c.652.795 1.337 1.573 2.061 2.218.721.645 1.422 1.224 2.09 1.623.652.42 1.237.703 1.66.866.42.171.668.249.668.249a.235.235 0 0 0 .229-.398l-.008-.008s-.191-.174-.538-.442c-.341-.278-.838-.653-1.422-1.109l-.943-.735c-.344-.249-.682-.542-1.042-.833l-1.068-.95c-.368-.321-.709-.681-1.068-1.026a21 21 0 0 1-1.896-2.228c-.555-.755-1-1.512-1.352-2.173-.359-.662-.626-1.215-.784-1.632l-.256-.646a.23.23 0 1 0-.43.17zM42.508 123.146l.009-.007c.053-.025.139-.173.099-.273a.3.3 0 0 0-.135-.18c-.055-.028-.143-.089-.305-.014-.243.182-.138.402-.101.487l.143.26c.213.368.485.912.83 1.556.698 1.284 1.599 3.013 2.592 4.714.515.837 1.035 1.682 1.627 2.401.574.731 1.148 1.391 1.715 1.881.55.506 1.065.866 1.444 1.087.375.226.6.337.6.337a.235.235 0 0 0 .289-.357l-.008-.01s-.153-.196-.439-.505l-1.163-1.282c-.478-.527-1.043-1.135-1.624-1.814a55 55 0 0 1-1.756-2.198c-1.177-1.528-2.174-3.199-2.877-4.472-.352-.637-.655-1.163-.843-1.546l-.123-.242c-.037-.057.053-.013-.085.102-.11.047-.142.008-.162.002-.02-.015-.045-.028-.066-.098-.031-.07.037-.197.08-.213l-.009.006a.232.232 0 0 0 .258.384l.006-.004z"/><path fill="#93AF45" d="M34.146 36.656c.749-3.122.893-6.432.057-9.532s-2.707-5.973-5.41-7.705c-.627-.402-1.373-.75-2.094-.566-1.19.306-1.566 1.8-1.589 3.028-.101 5.493 2.694 10.958 7.208 14.091.392.272.794.527 1.197.781"/><path fill="#93AF45" d="M34.597 36.758s.164-.653.344-1.847c.158-1.186.365-2.902.19-4.966a16.2 16.2 0 0 0-2.01-6.764 13.5 13.5 0 0 0-2.496-3.202 12 12 0 0 0-1.666-1.33c-.631-.379-1.427-.838-2.552-.568-.099.034-.121.023-.284.094a2 2 0 0 0-.38.195 2.5 2.5 0 0 0-.567.483 3.6 3.6 0 0 0-.663 1.148c-.281.77-.367 1.565-.365 2.276-.024.63.003 1.4.077 2.08.073.685.196 1.356.341 2.01.605 2.618 1.809 4.88 3.147 6.545 1.339 1.676 2.79 2.755 3.853 3.374.525.336.97.506 1.249.65l.445.203.006.003a.468.468 0 0 0 .505-.773l-.365-.325c-.237-.22-.608-.496-1.01-.887a18 18 0 0 1-1.421-1.442c-.538-.56-1.06-1.266-1.616-2.033-1.06-1.566-2.132-3.533-2.726-5.828a16 16 0 0 1-.365-1.76 15 15 0 0 1-.186-1.845c-.1-1.164.178-2.422.847-2.602.205-.103.774-.006 1.273.283.529.297 1.064.65 1.545 1.044a12.1 12.1 0 0 1 2.429 2.776c1.336 2.038 1.897 4.322 2.097 6.27.169 1.964 0 3.62-.199 4.754-.199 1.13-.378 1.78-.378 1.78a.462.462 0 1 0 .891.246l.002-.008z"/><path fill="#fff" d="m27.372 20.265-.005-.009c.001.005-.003-.02-.056-.083-.078-.096-.252-.117-.342-.08-.204.043-.349.282-.426.42a4.8 4.8 0 0 0-.584 1.587c-.144.684-.141 1.496-.056 2.351.05.435.12.845.219 1.305.097.442.214.887.359 1.325.577 1.756 1.603 3.348 2.577 4.324a7.8 7.8 0 0 0 1.809 1.406.237.237 0 0 0 .309-.34l-.005-.008s-.127-.19-.368-.49c-.226-.317-.575-.735-.973-1.246-.796-1.017-1.851-2.379-2.581-3.949-.185-.39-.344-.792-.486-1.194a12 12 0 0 1-.314-1.213 6.3 6.3 0 0 1-.065-2.194c.112-.629.329-1.129.528-1.424.123-.194.16-.224.181-.22.01.005-.075.008-.119-.045-.034-.043-.029-.05-.023-.032l.004.01a.23.23 0 0 0 .306.116c.117-.052.169-.189.117-.306z"/></svg>