<svg xmlns="http://www.w3.org/2000/svg" width="110" height="170" fill="none"><g class="stem-fill" fill="#7B8E36" clip-path="url(#a)"><path d="M46.921 88.806c-.957-1.805-.718-3.545-.88-5.361-.157-1.8-.357-3.61-.442-5.42-.157-3.623-.282-7.255-.299-10.89-.047-3.637-.004-7.267-.22-10.944-.227-3.662-.76-7.343-1.885-10.886a28.6 28.6 0 0 0-2.187-5.133 25 25 0 0 0-3.23-4.568c-2.466-2.798-5.361-5.087-8.145-7.409L12.887 14.194a.835.835 0 0 0-1.232.18 21.67 21.67 0 0 0-3.49 10.239c-.344 3.621.156 7.249 1.063 10.722a39.7 39.7 0 0 0 4.255 9.88c.875 1.484 1.926 3.018 2.948 4.446a92 92 0 0 0 3.267 4.195c2.241 2.736 4.606 5.332 6.915 7.949 2.3 2.613 4.594 5.238 6.627 7.98l1.548 2.11 1.437 2.118c.922 1.441 1.864 2.89 2.7 4.392a90 90 0 0 1 4.698 9.195c1.39 3.152 2.66 6.362 3.728 9.644a124 124 0 0 1 2.817 9.963 157 157 0 0 1 2.001 10.16c.56 3.478.94 6.85 1.29 10.321.348 3.45.531 6.917.699 10.387q.24 5.208.224 10.432a516 516 0 0 1-.16 10.454c-.096 3.488-.254 6.976-.39 10.469a.664.664 0 0 0 1.323.107c.418-3.481.744-6.973 1.032-10.47.303-3.497.493-7.005.61-10.518q.194-5.27.127-10.555a155 155 0 0 0-.49-10.564c-.27-3.497-.675-7.081-1.205-10.514-.547-3.52-1.202-6.983-2.032-10.432a127 127 0 0 0-2.949-10.21c-1.115-3.367-2.44-6.663-3.89-9.902a89 89 0 0 0-4.91-9.453c-.891-1.539-1.882-3.012-2.869-4.498l-1.547-2.2-1.59-2.094c-2.184-2.844-4.545-5.452-6.908-8.051-2.364-2.59-4.747-5.135-6.997-7.765-2.263-2.639-4.354-5.327-6.191-8.262a37.7 37.7 0 0 1-4.2-9.258c-.926-3.261-1.45-6.67-1.168-10.032a19.9 19.9 0 0 1 3.072-9.457l-1.23.18L28.733 29.28c2.805 2.32 5.653 4.563 8.016 7.226a23.6 23.6 0 0 1 3.075 4.315c.86 1.547 1.55 3.19 2.096 4.886 1.093 3.395 1.619 6.971 1.855 10.562.226 3.587.173 7.239.234 10.875.047 3.64.087 7.283.222 10.93.075 1.823.158 3.647.307 5.473.146 1.807.334 3.692.647 5.468l.004.021c.063.36.62.602.98.538s.75-.408.75-.769v.001z"/><path d="M53.62 111.441c0-2.007-.382-3.99-.41-5.973-.026-1.99-.082-3.982.006-5.973.035-.995.053-1.99.136-2.983.064-.995.139-1.987.238-2.978.189-1.985.435-3.962.718-5.936.286-1.972.621-3.938.983-5.899.38-1.958.78-3.912 1.227-5.856.9-3.883 1.895-7.765 3.057-11.567.59-1.898 1.233-3.775 2-5.597.746-1.837 1.647-3.566 2.639-5.302.514-.83.99-1.675 1.568-2.479l.835-1.217.893-1.177c1.193-1.567 2.503-3.044 3.867-4.465 1.387-1.402 2.808-2.773 4.33-4.032 1.504-1.28 3.086-2.467 4.691-3.618 1.625-1.127 3.269-2.228 4.971-3.238 1.688-1.034 3.428-1.982 5.174-2.915l-1.571-1.654c-1.254 2.032-1.484 4.424-1.35 6.535.136 2.135.554 4.15.86 6.095.15.969.299 1.94.313 2.843.065 1.057.013 1.883-.073 2.815a20.3 20.3 0 0 1-1.365 5.456c-1.415 3.509-3.654 6.706-6.402 9.37a30.5 30.5 0 0 1-4.49 3.6c-1.616 1.083-3.34 2.092-5.071 3.162-1.729 1.072-3.49 2.201-5.106 3.581-.381.307-.778.659-1.18 1.035-.41.362-.78.737-1.15 1.11a34 34 0 0 0-2.11 2.346c-1.34 1.62-2.508 3.369-3.536 5.182a42 42 0 0 0-2.669 5.632 56.8 56.8 0 0 0-3.092 11.927c-.567 4.074-.667 8.159-.542 12.195a.665.665 0 0 0 1.328.027c.147-2.001.302-3.996.515-5.973q.321-2.968.92-5.864a56 56 0 0 1 1.467-5.72c.577-1.901 1.218-3.75 1.99-5.54.775-1.789 1.634-3.537 2.632-5.198a37 37 0 0 1 3.348-4.715 31 31 0 0 1 1.941-2.122c.34-.338.68-.676 1.028-.977.334-.309.691-.624 1.096-.945 1.462-1.215 3.088-2.28 4.766-3.342 1.682-1.057 3.426-2.094 5.145-3.262a33.6 33.6 0 0 0 4.88-3.978c2.989-2.96 5.483-6.488 7-10.484a23 23 0 0 0 1.417-6.247c.085-1.069.1-2.26.016-3.21-.05-1.11-.235-2.13-.412-3.143-.365-2.018-.8-3.948-.959-5.83-.156-1.872.022-3.678.864-5.132l.025-.044a1.175 1.175 0 0 0-1.596-1.611c-1.763 1-3.517 2.015-5.218 3.12-1.716 1.08-3.375 2.253-5.011 3.451-1.619 1.225-3.212 2.488-4.726 3.844-1.54 1.325-2.982 2.764-4.385 4.236-1.382 1.493-2.707 3.042-3.91 4.687l-.901 1.233-.843 1.276c-.576.836-1.073 1.745-1.594 2.63-.964 1.758-1.885 3.606-2.612 5.497a76 76 0 0 0-1.99 5.736c-1.16 3.867-2.135 7.758-3.024 11.683a177 177 0 0 0-1.208 5.912c-.355 1.98-.686 3.965-.966 5.959a126 126 0 0 0-.701 5.997 122 122 0 0 0-.419 6.025c-.105 2.012-.29 4.028-.279 6.043.012 2.023.07 4.043.07 6.035v.009c0 .365.633.644 1 .621.365-.022.915-.338.915-.704v-.005zM56.492 135.788c0-1.915.034-3.851.278-5.725.161-1.891.431-3.772.717-5.657.39-1.867.71-3.742 1.23-5.579.447-1.855 1.043-3.663 1.606-5.485.662-1.789 1.258-3.598 2.032-5.343.703-1.775 1.553-3.48 2.365-5.205.902-1.679 1.749-3.389 2.757-5.007.941-1.659 2.021-3.23 3.067-4.823 1.126-1.536 2.2-3.112 3.442-4.56 1.175-1.5 2.476-2.892 3.748-4.306 1.342-1.35 2.647-2.733 4.058-4.005 1.402-1.274 2.86-2.47 4.402-3.526 1.536-1.046 3.193-1.96 4.867-2.609.933-.343 1.744-.61 2.656-.827a26 26 0 0 1 2.728-.521c3.688-.522 7.483-.37 11.303-.175l-.448-2.272a18 18 0 0 0-5.06 3.412 19.7 19.7 0 0 0-3.72 4.82c-1.001 1.786-1.664 3.777-2.078 5.707-.433 1.923-.719 3.796-1.183 5.532-.234.866-.503 1.7-.844 2.478l-.272.573-.318.586-.315.51-.363.527c-1.01 1.387-2.315 2.618-3.736 3.774-1.42 1.153-2.972 2.263-4.502 3.4l-4.6 3.416c-3.067 2.296-6.062 4.727-8.934 7.329a70 70 0 0 0-4.139 4.101l-.495.536-.263.287-.235.269-.938 1.089c-.64.767-1.25 1.544-1.82 2.333a56 56 0 0 0-3.192 4.914 51 51 0 0 0-2.571 5.26 39 39 0 0 0-1.833 5.56c-.48 1.892-.804 3.828-.913 5.778a.664.664 0 0 0 1.318.15l.002-.012a37 37 0 0 1 1.35-5.407 39 39 0 0 1 2.13-5.148c1.623-3.344 3.636-6.497 5.927-9.409.58-.73 1.17-1.43 1.761-2.117l.954-1.052.24-.264.227-.233.486-.501c1.299-1.336 2.67-2.605 4.057-3.86 2.785-2.504 5.767-4.808 8.763-7.124l4.549-3.433c1.518-1.148 3.059-2.264 4.59-3.523 1.517-1.258 3.01-2.664 4.233-4.37l.444-.653.427-.71.357-.673.335-.72c.42-.97.722-1.96.957-2.94.473-1.957.716-3.865 1.082-5.666.347-1.8.867-3.472 1.694-5.036a17.2 17.2 0 0 1 3.138-4.262 15.9 15.9 0 0 1 4.293-3.059l.041-.02a1.186 1.186 0 0 0-.489-2.252c-3.851-.091-7.789-.152-11.713.51q-1.47.239-2.916.64c-.953.251-1.961.616-2.822.961-1.894.788-3.602 1.778-5.222 2.925-1.61 1.149-3.103 2.425-4.522 3.763-1.42 1.33-2.73 2.77-4.07 4.172-1.271 1.468-2.568 2.913-3.737 4.462-1.226 1.505-2.318 3.109-3.454 4.68-1.057 1.625-2.146 3.23-3.094 4.92-1.016 1.653-1.87 3.395-2.776 5.107-.817 1.757-1.675 3.495-2.378 5.301-.776 1.777-1.382 3.619-2.042 5.438-.563 1.853-1.175 3.693-1.619 5.579-.524 1.866-.855 3.777-1.272 5.667-.306 1.913-.67 3.813-.853 5.755-.266 1.94-.338 3.849-.476 5.768-.027.366.396.684.762.711.365.026.857-.249.857-.615v-.016z"/><path d="M55.082 128.977a248 248 0 0 0-2.69-10.645c-.972-3.53-1.986-7.048-3.1-10.536a246 246 0 0 0-3.558-10.391c-1.265-3.435-2.619-6.86-4.26-10.168-1.646-3.3-3.568-6.498-5.935-9.383l-.926-1.078-.94-.996c-.617-.66-1.35-1.313-2.037-1.942a38 38 0 0 0-4.5-3.343c-6.347-3.95-13.914-6.019-21.473-5.561a1.131 1.131 0 0 0-.623 2.024l.03.023c1.223.936 1.763 2.583 1.918 4.408.184 1.808.036 3.797.144 5.846.112 2.059.428 4.12 1.043 6.133.62 2.012 1.548 3.952 2.869 5.693 1.287 1.695 2.892 3.142 4.564 4.333 1.675 1.205 3.415 2.226 5.115 3.224 3.393 1.987 6.726 4.001 9.93 6.2 3.197 2.198 6.27 4.542 9.087 7.149a54 54 0 0 1 4 4.113c.676.753 1.207 1.451 1.803 2.212.58.76 1.135 1.538 1.673 2.331 1.071 1.587 2.094 3.217 2.975 4.923.885 1.7 1.735 3.428 2.4 5.225.67 1.79 1.154 3.61 1.527 5.484.383 1.869.46 3.769.46 5.679v.014c0 .367.443.666.81.666.341.001.697-.256.736-.588a24.7 24.7 0 0 0-.075-6.086c-.255-2.019-.724-3.992-1.328-5.924-.604-1.934-1.367-3.805-2.227-5.634-.856-1.832-1.856-3.587-2.92-5.308a45 45 0 0 0-1.702-2.514c-.597-.806-1.246-1.686-1.87-2.413a47 47 0 0 0-4.159-4.424 70 70 0 0 0-4.579-3.945c-1.575-1.251-3.218-2.399-4.872-3.521-3.31-2.235-6.741-4.27-10.16-6.236-3.398-1.953-6.697-3.892-8.954-6.724-1.094-1.375-1.943-3.017-2.52-4.754-.576-1.744-.91-3.597-1.053-5.466-.151-1.881-.033-3.845-.294-5.958-.135-1.045-.34-2.127-.808-3.186-.454-1.053-1.197-2.069-2.172-2.777l-.593 2.047c7.03-.621 14.283 1.105 20.387 4.776a36 36 0 0 1 4.346 3.1c.668.592 1.32 1.139 1.961 1.8l.96.977.876.984c2.336 2.712 4.246 5.792 5.86 9.02 1.624 3.229 2.979 6.599 4.256 10.008 1.27 3.413 2.477 6.85 3.595 10.317 1.12 3.465 2.179 6.952 3.121 10.47a246 246 0 0 1 2.588 10.618.663.663 0 1 0 1.296-.287z"/><path d="m103.577 72.047-.872.312c-.576.215-1.421.53-2.468.982-2.089.912-5.069 2.286-8.31 4.508a45 45 0 0 0-2.48 1.81 46 46 0 0 0-2.483 2.124 66 66 0 0 0-4.883 5.093c-1.59 1.856-3.136 3.85-4.64 5.915a180 180 0 0 0-4.47 6.317c-1.457 2.143-2.854 4.325-4.216 6.476a243 243 0 0 0-3.902 6.369c-2.456 4.153-4.77 8.057-6.449 11.614-1.71 3.534-2.786 6.67-3.353 8.904a28 28 0 0 0-.575 2.613l-.154.934a.666.666 0 0 0 1.28.349l.005-.013s.463-1.194 1.346-3.227c.888-2.033 2.256-4.875 4.079-8.218 1.827-3.337 4.086-7.213 6.465-11.423l3.64-6.48a326 326 0 0 1 3.834-6.628c2.612-4.412 5.372-8.747 8.333-12.495 1.475-1.879 3.01-3.605 4.592-5.108a45 45 0 0 1 2.377-2.116 44 44 0 0 1 2.355-1.791c3.141-2.157 6.03-3.538 8.093-4.364 1.032-.422 1.854-.711 2.413-.909l.878-.295a.664.664 0 0 0-.424-1.259c-.002.003-.009.005-.011.006M87.947 31.473l-.665.51c-.435.326-1.073.808-1.865 1.506-.404.335-.836.716-1.281 1.15-.455.427-.958.877-1.454 1.4-1.026 1.011-2.108 2.223-3.234 3.585a64 64 0 0 0-3.45 4.536 133 133 0 0 0-3.488 5.303 207 207 0 0 0-3.474 5.809l-3.526 6.011a255 255 0 0 0-3.428 6.088c-1.125 2.017-2.15 4.052-3.118 6.035a113 113 0 0 0-2.586 5.83 74 74 0 0 0-1.049 2.77c-.341.893-.619 1.777-.877 2.628-.27.847-.516 1.663-.707 2.453a48.062 48.062 0 0 0-1.198 5.924c-.162 1.024-.197 1.845-.252 2.396l-.06.85a.668.668 0 0 0 1.298.257l.008-.027.263-.794c.162-.517.4-1.275.705-2.24.322-.958.672-2.127 1.15-3.445.21-.666.462-1.366.736-2.102.27-.736.532-1.517.847-2.318.612-1.607 1.267-3.353 2.038-5.171.724-1.838 1.581-3.742 2.454-5.72a446 446 0 0 1 2.818-6.064c.974-2.064 2.016-4.14 3.045-6.228 2.07-4.174 4.14-8.354 6.278-12.134 2.095-3.809 4.38-7.16 6.533-9.864 1.094-1.338 2.15-2.52 3.144-3.507.483-.508.965-.953 1.413-1.358.444-.416.866-.772 1.254-1.08a28 28 0 0 1 1.848-1.432l.676-.496a.664.664 0 1 0-.796-1.061M11.51 16.195s.082.299.086.86c.008.547.122 1.488.344 2.535.237 1.064.644 2.331 1.254 3.702s1.458 2.832 2.466 4.343c.994 1.522 2.164 3.096 3.389 4.743a85 85 0 0 1 3.669 5.273 125 125 0 0 1 3.551 5.873c1.141 2.041 2.238 4.15 3.309 6.273 2.154 4.238 4.123 8.576 6.052 12.613l2.782 5.816c.902 1.827 1.686 3.567 2.404 5.164 1.402 3.206 2.342 5.937 2.835 7.903.255.981.422 1.764.523 2.302l.162.827.008.036a.667.667 0 0 0 1.319-.094l.044-.888c.023-.291.015-.648.005-1.069q.002-.635-.076-1.446c-.08-1.083-.279-2.39-.61-3.86a39 39 0 0 0-1.474-4.816c-.624-1.728-1.443-3.529-2.311-5.408-.908-1.864-1.85-3.803-2.864-5.809a203 203 0 0 0-3.21-6.143c-1.132-2.075-2.28-4.187-3.506-6.259a171 171 0 0 0-3.755-6.122c-1.275-1.998-2.558-3.945-3.872-5.782a181 181 0 0 0-3.894-5.207c-1.261-1.622-2.44-3.148-3.439-4.608-.99-1.465-1.79-2.866-2.369-4.158a15.7 15.7 0 0 1-1.114-3.45c-.183-1.004-.228-1.712-.23-2.282L13 16.2c.005-.367-.37-.667-.736-.672s-.752.289-.752.656q-.003.004-.002.012M7.51 67.795l2.537 1.596a72 72 0 0 1 6.408 4.532 42.5 42.5 0 0 1 3.83 3.523c1.282 1.33 2.53 2.84 3.772 4.451 1.26 1.602 2.481 3.303 3.77 5.036l3.818 5.282 3.843 5.263a296 296 0 0 0 3.765 5.065 167 167 0 0 1 3.438 4.705c1.087 1.492 2.037 2.94 2.907 4.271.846 1.346 1.596 2.588 2.197 3.724a42 42 0 0 1 1.47 2.987c.364.849.651 1.525.82 1.995l.278.718.014.037a.667.667 0 0 0 1.285-.311l-.085-.808a18 18 0 0 0-.403-2.264c-.216-.971-.578-2.121-1.059-3.417a35.5 35.5 0 0 0-1.981-4.168c-.801-1.485-1.804-3.001-2.882-4.572-1.123-1.556-2.274-3.141-3.587-4.775a297 297 0 0 0-3.988-4.891l-4.162-5.015-4.185-4.996c-1.365-1.646-2.694-3.321-4.046-4.87-1.347-1.556-2.684-3.046-4.025-4.4a43.5 43.5 0 0 0-4.03-3.538c-2.594-2.062-4.912-3.538-6.491-4.62l-2.509-1.657a.664.664 0 1 0-.719 1.117"/></g><defs><clipPath id="a"><path fill="#fff" d="M0 0h110v170H0z"/></clipPath></defs></svg>