<svg xmlns="http://www.w3.org/2000/svg" width="110" height="170" fill="none"><path class="primary-fill" fill="#FF8189" d="m23.73 2.08 3.317 6.639c1.031 2.12 2.41 4.652 3.674 7.669 1.302 3.005 2.868 6.353 4.4 10.083l2.271 5.87c.771 2.035 1.642 4.11 2.344 6.313 1.478 4.379 3.129 8.968 4.408 13.846.662 2.43 1.446 4.87 2.038 7.394l1.82 7.643c.319 1.282.566 2.586.803 3.895a7911 7911 0 0 0 1.48 7.876c.224 1.32.393 2.652.593 3.978.358 2.658.825 5.297 1.12 7.95l.852 7.917c.262 2.622.374 5.239.584 7.813.09 1.288.22 2.565.274 3.839q.076 1.912.153 3.793c.067 2.51.283 4.97.27 7.389.033 2.417.066 4.781.096 7.083.038 2.302-.02 4.543-.025 6.71-.029 2.167.006 4.262-.067 6.274-.12 4.022-.104 7.718-.264 10.991-.089 3.276.106 6.137.014 8.492-.157 4.712.087 7.421.087 7.421v.018c0 .543.207.982.75.98.483-.001.764-.35.846-.807 0 0 .427-2.668 1.1-7.365.377-2.345.621-5.212.992-8.498.36-3.286.606-7.01.842-11.077.148-2.031.206-4.153.241-6.35s.12-4.467.113-6.803c-.096-4.673-.116-9.603-.489-14.693q-.113-1.91-.231-3.849c-.082-1.292-.239-2.589-.355-3.896-.276-2.611-.506-5.258-.862-7.911l-1.151-8.002c-.394-2.68-.96-5.342-1.446-8.015-.259-1.334-.488-2.673-.772-4l-.918-3.961-.915-3.943c-.297-1.312-.602-2.618-.98-3.901l-2.076-7.662c-.674-2.528-1.538-4.97-2.28-7.4-1.456-4.871-3.233-9.453-4.757-13.852-.738-2.21-1.644-4.286-2.448-6.322l-2.367-5.876c-1.556-3.752-3.136-7.133-4.456-10.16-.663-1.513-1.294-2.925-1.934-4.194l-1.703-3.522-3.229-6.682a.98.98 0 0 0-1.763.85z"/><path class="primary-fill" fill="#FF8189" d="M54.972 91.868s-.227-2.498-.135-6.852c.078-4.358.232-10.583.861-18.024.319-3.72.681-7.743 1.25-11.982.563-4.235 1.243-8.701 2.234-13.238 1.003-4.508 2.408-9.133 5.064-13.085 1.299-1.943 2.965-3.732 4.996-4.51.25-.101.502-.172.76-.234.13-.024.255-.064.386-.078l.194-.026.097-.013.047-.007c.082-.007-.058 0-.02 0 .3-.001.644-.026.91-.006.234.05.444.04.697.116 1.007.234 1.951.783 2.742 1.525 1.578 1.49 2.578 3.699 2.638 5.842-.008.254 0 .562-.017.769-.037.296-.055.645-.106.897a11 11 0 0 1-.384 1.59 14 14 0 0 1-1.427 3.07c-2.409 3.947-6.249 6.786-9.793 9.954-1.774 1.587-3.494 3.287-4.905 5.237-1.416 1.94-2.456 4.06-3.258 6.132-.791 2.09-1.367 4.137-1.877 6.13-.507 1.937-.927 3.913-1.293 5.755-.739 3.714-1.172 7.16-1.458 10.217-.288 3.057-.43 5.73-.438 7.933a97 97 0 0 0 .057 5.106l.096 1.803c.017.338.234.598.572.58.316-.017.508-.268.508-.576v-.014s.107-.62.17-1.783c.077-1.161.19-2.865.398-5.023.214-2.157.484-4.773.912-7.755.42-2.982 1.057-6.32 1.838-9.935.41-1.818.862-3.643 1.38-5.61.507-1.91 1.084-3.878 1.83-5.792.733-1.927 1.64-3.803 2.866-5.514 1.217-1.713 2.768-3.288 4.465-4.83 1.694-1.543 3.543-3.064 5.333-4.771 1.79-1.725 3.48-3.67 4.8-5.943a16.7 16.7 0 0 0 1.588-3.66c.193-.648.33-1.307.43-2.03.054-.36.057-.632.088-.952.026-.411.004-.725.004-1.093a10.77 10.77 0 0 0-3.549-7.356c-1.05-.931-2.349-1.653-3.782-1.941-.35-.09-.772-.097-1.153-.134-.354-.01-.633.024-.954.034 0 0-.18.015-.138.013l-.066.01-.134.022-.266.044c-.177.027-.349.08-.523.12a7 7 0 0 0-1.007.343c-2.621 1.118-4.388 3.249-5.742 5.376-2.753 4.303-4.108 9.14-5.039 13.746-.895 4.627-1.534 9.11-2.1 13.375-.545 4.265-.944 8.31-1.242 12.048-.297 3.738-.495 7.17-.637 10.212-.114 3.043-.373 5.696-.457 7.88-.13 4.375-.315 6.867-.315 6.867v.009c0 .338.656.615.994.618s1.006-.268 1.006-.606zM56.972 123.85s-.072-.573-.041-1.648c.023-1.076.03-2.65.114-4.647.085-1.998.186-4.427.424-7.202.23-2.776.544-5.902 1.067-9.285a92 92 0 0 1 2.3-10.787c1.047-3.764 2.406-7.673 4.323-11.466 1.885-3.794 4.29-7.52 7.16-10.851 1.47-1.625 3.127-3.096 4.984-4.175a13 13 0 0 1 2.91-1.261l.76-.19.77-.127c.508-.042 1.058-.112 1.486-.064.445.034.775.165.928.319.157.139.285.42.355.862.034.206.052.48.061.699l.02.856a21.945 21.945 0 0 1-1.462 7.878c-1.507 4.008-4.306 7.262-7.293 10.265-3.016 2.978-6.067 5.942-8.683 8.972-2.61 3.04-4.88 6.129-6.626 9.211-1.75 3.078-2.992 6.121-3.754 8.911-.755 2.811-1.271 5.298-1.398 7.333-.129 2.035-.407 3.619-.407 4.7v1.654c0 .339.514.613.852.613.316 0 .694-.238.73-.544 0 0 .127-.569.252-1.637.13-1.065.307-2.63.61-4.585.316-1.948.742-4.311 1.602-6.858.828-2.571 2.145-5.342 3.852-8.209 1.753-2.844 3.91-5.788 6.47-8.698 2.514-2.962 5.407-5.823 8.48-8.914 1.52-1.561 3.049-3.221 4.413-5.093.343-.466.668-.947.99-1.463.167-.257.291-.484.44-.728.165-.275.29-.523.438-.787a24 24 0 0 0 1.432-3.26 24.5 24.5 0 0 0 1.38-7.02q.037-.893.016-1.825l-.043-.86a8 8 0 0 0-.117-1.007c-.12-.674-.41-1.54-1.138-2.157-.72-.61-1.565-.774-2.254-.812-2.66-.043-5.022.859-7.088 2.135-2.059 1.287-3.788 2.938-5.288 4.704-2.94 3.578-5.302 7.43-7.16 11.375-1.867 3.937-3.178 7.942-4.218 11.77a93 93 0 0 0-2.224 10.947 136 136 0 0 0-1.075 9.362 266 266 0 0 0-.686 11.904l-.06 1.647c-.014.338.337.622.675.635s.72-.251.72-.589z"/><path class="primary-fill" fill="#FF8189" d="M55.972 98.87s-.299-.587-.486-1.687c-.175-1.1-.584-2.716-.984-4.774-.43-2.048-1.019-4.53-1.73-7.358-.704-2.83-1.657-5.99-2.81-9.391a93 93 0 0 0-4.442-10.725c-1.82-3.698-3.988-7.491-6.583-11.182-2.621-3.65-5.533-7.38-9.402-10.326-1.913-1.48-4.087-2.721-6.465-3.518-1.186-.372-2.428-.717-3.81-.713-1.357-.028-2.92.467-3.98 1.48a7.9 7.9 0 0 0-1.33 1.592 8 8 0 0 0-.505.89c-.132.278-.264.514-.39.825a13.1 13.1 0 0 0-.977 3.812c-.264 2.579.16 5.158 1.054 7.514 1.834 4.855 5.592 8.284 9.497 10.775 3.938 2.493 8.092 4.07 11.906 5.54 3.824 1.435 7.446 2.755 10.36 4.433 1.453.845 2.697 1.824 3.7 2.899l.736.878.586.834.535.902.458.918c1.105 2.48 1.514 4.927 1.806 6.935.273 2.02.209 3.647.286 4.754.069 1.11-.033 1.703-.033 1.703v.007c0 .338.45.595.788.574.316-.02.629-.273.645-.581 0 0 .065-.598.121-1.72.047-1.124.107-2.777.008-4.908-.102-2.123-.389-4.764-1.503-7.666q-.231-.536-.47-1.087l-.57-1.09c-.22-.368-.466-.742-.71-1.12l-.762-1.01c-1.136-1.385-2.61-2.553-4.212-3.552-3.23-2.002-6.937-3.318-10.745-4.807-3.822-1.434-7.806-2.924-11.45-5.191-1.814-1.135-3.538-2.457-5.029-4.016a29 29 0 0 1-1.074-1.208l-.482-.612-.5-.703a15.5 15.5 0 0 1-1.512-2.82c-.818-2-1.23-4.201-1.065-6.355.077-1.06.337-2.172.696-3.091.086-.243.236-.533.351-.798.082-.193.23-.46.356-.672.266-.444.572-.846.914-1.174 1.283-1.357 3.564-1.154 5.713-.492 2.145.648 4.17 1.715 6.005 3.048 3.687 2.669 6.618 6.246 9.264 9.77 2.63 3.552 4.82 7.25 6.615 10.892a92 92 0 0 1 4.436 10.557c1.16 3.356 2.099 6.479 2.814 9.279.372 1.396.667 2.717.958 3.932l.692 3.367c.377 2.037.668 3.638.834 4.746l.273 1.69c.054.334.566.56.9.507s.704-.368.704-.702zM56.972 128.513s-.105-.542-.181-1.559a71 71 0 0 0-.188-1.875c-.095-.744-.218-1.598-.34-2.556-.134-.953-.35-1.994-.545-3.135a124 124 0 0 0-.814-3.656c-.677-2.586-1.548-5.479-2.77-8.536-2.42-6.111-6.19-12.917-11.559-19.197l-2.087-2.32c-.724-.755-1.483-1.492-2.23-2.247-1.525-1.473-3.184-2.901-5.024-4.133-1.834-1.234-3.89-2.277-6.149-2.816-1.117-.261-2.3-.45-3.565-.325-.639.07-1.25.197-1.912.496-.13.063-.232.102-.384.185l-.471.28c-.273.19-.538.392-.777.618-1.912 1.83-2.58 4.477-2.446 6.818.104 2.466.975 4.744 2.236 6.689 2.528 3.904 6.36 6.556 10.164 8.305 3.823 1.793 7.566 3.012 10.853 4.555 3.31 1.482 6.08 3.346 8.26 5.561a26.8 26.8 0 0 1 4.97 6.836 27.8 27.8 0 0 1 2.313 6.166c.248.889.343 1.706.481 2.411l.197 1.813.086 1.523.002.045a.612.612 0 0 0 1.221.006l.107-1.604c.026-.525-.006-1.171-.014-1.936-.075-.757-.1-1.641-.276-2.61-.277-1.95-.879-4.296-1.992-6.828-1.133-2.515-2.762-5.24-5.143-7.72-2.302-2.543-5.51-4.683-9.001-6.29-3.501-1.597-7.291-2.796-10.87-4.441a29.995 29.995 0 0 1-2.636-1.349 25 25 0 0 1-2.457-1.638c-1.562-1.202-3.037-2.582-4.128-4.216-1.115-1.601-1.858-3.496-1.993-5.364-.104-1.03.006-1.91.262-2.828.264-.893.71-1.716 1.316-2.327.152-.153.317-.286.485-.415l.223-.148c.081-.054.231-.121.343-.18.323-.163.784-.293 1.221-.35.902-.124 1.901-.017 2.895.184 1.982.403 3.875 1.272 5.624 2.367 1.75 1.108 3.356 2.426 4.88 3.83.745.72 1.502 1.42 2.227 2.142l2.09 2.217c5.43 5.99 9.132 12.697 11.598 18.658 1.21 3.002 2.063 5.847 2.733 8.387.297 1.279.578 2.477.792 3.594.18 1.122.376 2.151.498 3.082q.161 1.4.29 2.488c.075.727.096 1.362.136 1.868l.103 1.56c.023.337.377.593.715.571s.633-.314.633-.651v-.005zM45.945 51.36l-.234-1.353a62 62 0 0 1-.486-3.805c-.169-1.65-.296-3.665-.369-5.985l-.214-7.82c-.096-2.87-.224-6.002-.712-9.286a44 44 0 0 0-1.017-5.025c-.434-1.696-.97-3.414-1.687-5.101-1.41-3.366-3.456-6.711-6.413-9.317a12 12 0 0 0-1.132-.947c-.38-.301-.788-.621-1.194-.878-.88-.564-1.773-1.03-2.778-1.367-.99-.34-2.078-.534-3.209-.46-.562.055-1.137.15-1.681.364a6 6 0 0 0-.832.382c-.202.12-.4.228-.677.444-1.931 1.494-2.654 3.688-3.034 5.676-.19 1.006-.247 2.048-.3 2.973A33 33 0 0 0 20 12.83c.203 3.919 1.157 7.69 2.506 11.132 1.343 3.454 3.078 6.586 4.927 9.393a72 72 0 0 0 5.773 7.438c1.908 2.184 3.78 4.074 5.414 5.728 1.654 1.633 3.025 3.069 4.088 4.303a26 26 0 0 1 2.24 3.017c.236.364.405.65.514.846l.17.295.014.025a.613.613 0 0 0 1.1-.534l-.136-.337a16 16 0 0 0-.417-.974c-.389-.843-1.047-2.041-2.026-3.457-.96-1.43-2.291-3.03-3.825-4.792a232 232 0 0 1-5.063-5.886c-1.783-2.197-3.682-4.59-5.44-7.274-1.787-2.658-3.458-5.6-4.747-8.816-1.284-3.215-2.211-6.693-2.538-10.286a31 31 0 0 1-.111-2.682c.024-.967.045-1.827.18-2.7.245-1.708.877-3.397 1.996-4.315 1.175-1.005 2.848-1.106 4.491-.602.814.233 1.633.624 2.363 1.053.404.236.748.49 1.119.76.367.26.733.525 1.066.828 2.779 2.308 4.79 5.389 6.224 8.57 1.437 3.193 2.307 6.535 2.803 9.724.518 3.209.683 6.295.814 9.148l.227 7.817c.087 2.334.191 4.374.34 6.052.145 1.674.319 3.005.451 3.898l.218 1.356a.612.612 0 1 0 1.21-.195zM84.583 61.467l-1.547 1.964-4.114 5.166a199 199 0 0 0-2.746 3.457c-.962 1.24-1.975 2.548-3.023 3.902-1.013 1.38-2.122 2.765-3.166 4.236-1.09 1.439-2.13 2.952-3.185 4.458-1.013 1.536-2.034 3.07-2.95 4.639-.97 1.539-1.796 3.13-2.602 4.667-.407.767-.74 1.556-1.096 2.312-.353.759-.7 1.5-.99 2.244-.577 1.488-1.144 2.887-1.508 4.237-.198.669-.411 1.301-.562 1.919l-.395 1.764c-.227 1.111-.413 2.078-.48 2.896-.188 1.62-.22 2.55-.22 2.55a.745.745 0 0 0 1.42.341l.018-.038s.39-.838.943-2.313c.267-.739.612-1.629 1.03-2.638l.606-1.621.72-1.778a131 131 0 0 1 1.632-3.988c.55-1.426 1.26-2.881 1.928-4.414.723-1.51 1.445-3.083 2.244-4.658.76-1.594 1.657-3.152 2.495-4.746.89-1.565 1.767-3.144 2.703-4.657.916-1.524 1.88-2.99 2.817-4.403.964-1.397 1.883-2.758 2.822-4.001.92-1.257 1.797-2.441 2.624-3.521 1.672-2.148 3.082-3.918 4.11-5.135l1.61-1.913a.734.734 0 1 0-1.124-.946zM73.21 23.69s-.121.126-.351.359c-.225.248-.578.543-1.001 1.026A36 36 0 0 0 70.37 26.8c-.285.33-.557.706-.846 1.1-.297.39-.586.813-.877 1.262-.614.877-1.213 1.87-1.807 2.938a73 73 0 0 0-1.753 3.418c-.553 1.208-1.145 2.452-1.674 3.74a116 116 0 0 0-1.602 3.9c-1.024 2.626-2.002 5.238-2.84 7.723-.828 2.485-1.599 4.806-2.093 6.847a45 45 0 0 0-1.024 4.986c-.182 1.224-.215 1.946-.215 1.946a.76.76 0 0 0 1.401.44s.388-.61.939-1.717a45 45 0 0 0 2.015-4.675c.764-1.956 1.462-4.3 2.205-6.811.741-2.51 1.417-5.236 2.106-7.928.684-2.695 1.439-5.356 2.368-7.767.466-1.202.957-2.35 1.498-3.396.532-1.051 1.069-2.03 1.623-2.891q.409-.654.83-1.212c.273-.378.531-.738.802-1.053a18 18 0 0 1 1.41-1.595c.395-.425.782-.75 1.016-.968l.374-.336a.734.734 0 1 0-1.017-1.061"/><path class="primary-fill" fill="#FF8189" d="m16.028 42.358.1.599c.08.404.212 1.045.453 1.773.488 1.477 1.453 3.5 3.1 5.53a28 28 0 0 0 2.817 3.097 64 64 0 0 0 3.47 3.082c2.479 2.037 5.21 4.074 7.847 6.148a99 99 0 0 1 3.829 3.149 61 61 0 0 1 3.437 3.236c1.066 1.093 2.07 2.175 2.963 3.253.93 1.047 1.724 2.107 2.495 3.059 1.502 1.934 2.703 3.606 3.561 4.784.43.594.767 1.06.995 1.378l.367.487.014.02a.745.745 0 0 0 1.316-.646s-.059-.21-.166-.605a19 19 0 0 0-.558-1.68c-.261-.717-.636-1.563-1.09-2.526-.492-.94-1.046-2.011-1.773-3.1-1.404-2.216-3.375-4.586-5.755-6.842a41 41 0 0 0-3.87-3.232c-1.37-1.022-2.81-1.962-4.248-2.877-2.883-1.821-5.777-3.53-8.304-5.373a39 39 0 0 1-3.495-2.815 27 27 0 0 1-2.78-2.856c-1.555-1.908-2.465-3.75-2.846-5.091a10.5 10.5 0 0 1-.352-1.558l-.07-.603a.735.735 0 1 0-1.457.209M17.437 81.52s.791.364 2.154 1.037c1.37.659 3.3 1.654 5.58 2.895 2.252 1.29 4.878 2.803 7.467 4.723a49 49 0 0 1 3.837 3.119 52 52 0 0 1 3.553 3.627c1.108 1.282 2.209 2.579 3.197 3.93a129 129 0 0 1 2.855 4.009c.889 1.33 1.763 2.608 2.538 3.862l2.273 3.489c.702 1.087 1.388 2.062 1.977 2.94.618.861 1.148 1.621 1.615 2.229a34 34 0 0 0 1.505 1.896.751.751 0 0 0 1.28-.72s-.264-.849-.846-2.273a56 56 0 0 0-2.727-5.748c-1.242-2.327-2.892-4.944-4.855-7.633-.997-1.334-2.055-2.695-3.237-3.995a56 56 0 0 0-3.705-3.825c-.672-.602-1.342-1.231-2.01-1.765a49 49 0 0 0-2.067-1.65c-1.395-1.06-2.822-2.013-4.206-2.917a103 103 0 0 0-7.789-4.503c-2.308-1.25-4.264-2.213-5.61-2.93l-2.122-1.111-.01-.006a.734.734 0 1 0-.683 1.302z"/></svg>