<svg xmlns="http://www.w3.org/2000/svg" width="110" height="170" fill="none"><g clip-path="url(#a)"><path class="primary-fill" fill="#FF8189" d="M86.681 34.234s.082.17.191.465c.108.287.253.744.338 1.336.09.592.122 1.33.005 2.167-.105.83-.357 1.773-.76 2.729-.807 1.938-2.218 3.986-3.844 6.11a59 59 0 0 1-5.504 6.232 73 73 0 0 1-3.085 2.878c-1.052.911-2.1 1.79-3.131 2.62a77 77 0 0 1-3.051 2.288c-.988.704-1.93 1.357-2.811 1.945-.873.6-1.697 1.114-2.412 1.599-.735.45-1.375.847-1.896 1.186-1.064.638-1.662 1.031-1.662 1.031l-.009.007a.316.316 0 0 0 .287.558s.671-.26 1.828-.763c.579-.25 1.258-.602 2.045-.993.766-.428 1.662-.863 2.571-1.449.935-.547 1.897-1.216 2.922-1.915a77 77 0 0 0 3.085-2.385 51 51 0 0 0 3.121-2.76 65 65 0 0 0 3.007-3.072 73 73 0 0 0 5.304-6.57c.766-1.1 1.505-2.163 2.173-3.21.662-1.046 1.225-2.087 1.635-3.102.849-2.031.945-3.936.772-5.214a7 7 0 0 0-.35-1.474c-.119-.334-.191-.488-.191-.488l-.012-.026a.314.314 0 1 0-.569.267z"/><path class="primary-fill" fill="#FF8189" d="M78.162 21.53s.241.201.286.578c.038.377.237.933.271 1.627.064.695.142 1.547.14 2.527-.02.977-.049 2.08-.168 3.28-.143 1.195-.304 2.49-.597 3.84-.262 1.355-.655 2.759-1.118 4.19a50 50 0 0 1-1.667 4.326 57 57 0 0 1-2.168 4.255 71 71 0 0 1-2.528 4.07 115 115 0 0 1-2.699 3.767c-1.823 2.395-3.654 4.53-5.215 6.371l-3.826 4.425c-.926 1.07-1.443 1.697-1.443 1.697a.316.316 0 0 0 .446.442s.626-.52 1.675-1.481a76 76 0 0 0 4.19-4.152c1.671-1.782 3.504-3.977 5.318-6.448 1.827-2.447 3.57-5.263 5.064-8.144 1.489-2.934 2.705-5.967 3.577-8.906.417-1.472.786-2.905 1.052-4.282.285-1.374.451-2.692.585-3.908.109-1.22.156-2.342.167-3.337-.015-.995-.026-1.863-.079-2.581-.027-.723-.108-1.267-.141-1.646l-.06-.58c-.018-.172-.389-.297-.562-.28-.173.018-.497.174-.497.346-.003 0-.003.005-.003.005M62.982 17.777l.271.47c.163.291.383.76.597 1.372.21.614.411 1.387.529 2.296.124.915.194 1.93.195 3.085a38.5 38.5 0 0 1-.7 7.73c-.516 2.802-1.329 5.737-2.307 8.618-.956 2.89-2.058 5.735-3.076 8.397-1.04 2.658-2.087 5.107-2.955 7.219l-2.121 5.102c-.509 1.236-.789 1.95-.789 1.95a.316.316 0 0 0 .179.41.32.32 0 0 0 .382-.127s.416-.648 1.076-1.82c.343-.578.721-1.303 1.152-2.133s.917-1.77 1.398-2.818c.988-2.084 2.01-4.573 3.011-7.276 1.025-2.696 1.963-5.622 2.815-8.576.835-2.96 1.533-5.965 1.975-8.82.219-1.429.372-2.818.474-4.138.104-1.315.132-2.58.105-3.733a24 24 0 0 0-.232-3.155 15 15 0 0 0-.546-2.403 9.6 9.6 0 0 0-.62-1.482l-.27-.486a.315.315 0 0 0-.55.305l.002.003zM53.162 20.712s-.051.75.05 2.055c.118 1.299.103 3.175.085 5.42a83 83 0 0 1-.47 7.662c-.28 2.796-.715 5.767-1.205 8.727-.481 2.965-1.028 5.926-1.436 8.715-.215 1.393-.426 2.739-.623 4.016l-.528 3.59c-.318 2.256-.32 4.246-.03 5.595.146.673.305 1.19.445 1.531l.224.517a.314.314 0 0 0 .594-.196l-.006-.026-.117-.508a11 11 0 0 1-.206-1.448 16 16 0 0 1 .037-2.276c.076-.883.247-1.876.437-2.975.204-1.088.426-2.317.616-3.6l.563-4.025c.199-1.394.397-2.836.575-4.306l.551-4.455c.675-5.988 1.138-12.01 1.133-16.539.004-2.264-.274-4.145-.354-5.47-.083-1.32-.333-2.064-.333-2.064v-.01c0-.172.142-.299-.031-.282s.031.172.031.343z"/><path class="primary-fill" fill="#FF8189" d="m44.591 15.432-.282.554c-.173.387-.428.954-.633 1.703-.432 1.491-.714 3.721-.422 6.343.136 1.311.402 2.71.734 4.166.334 1.457.718 2.98 1.029 4.563.318 1.59.557 3.206.589 4.898.037 1.67-.101 3.385-.29 5.092l-.626 5.13a41 41 0 0 0-.311 5.063c-.008 3.311.398 6.387 1.024 8.956.638 2.566 1.417 4.63 2.054 6.024.326.697.579 1.241.778 1.602l.296.556a.314.314 0 0 0 .576-.25l-.003-.01-.202-.585a58 58 0 0 1-.564-1.651c-.217-.72-.499-1.585-.773-2.588-.275-1.006-.53-2.152-.798-3.4-.488-2.505-.916-5.468-.96-8.657-.021-1.589.065-3.251.191-4.934.131-1.69.316-3.414.436-5.155.117-1.742.186-3.496.073-5.235-.086-1.718-.387-3.43-.756-5.014l-1.123-4.553c-.343-1.442-.615-2.812-.757-4.085-.299-2.55-.07-4.703.379-6.11.206-.713.45-1.233.611-1.585l.289-.55a.314.314 0 1 0-.556-.293zM30.162 25.232s.118.657.171 1.806c.066 1.146.175 2.808.368 4.776.078.989.227 2.053.369 3.18.133 1.127.338 2.309.502 3.537.207 1.22.408 2.488.675 3.761.226 1.285.534 2.572.814 3.866.325 1.283.64 2.572 1.015 3.822.338 1.263.763 2.476 1.16 3.654.431 1.166.825 2.303 1.26 3.356.442 1.051.855 2.047 1.302 2.938a39 39 0 0 0 1.232 2.419c.389.709.731 1.323 1.051 1.81.608.989.98 1.538.98 1.538a.316.316 0 0 0 .557-.29l-.004-.01s-.237-.617-.694-1.67l-1.848-4.369c-.382-.901-.79-1.88-1.202-2.924-.445-1.03-.849-2.142-1.292-3.282-.402-1.157-.845-2.341-1.249-3.562-.431-1.214-.788-2.47-1.183-3.718-.348-1.26-.721-2.517-1.015-3.773-.318-1.25-.558-2.495-.812-3.699-.219-1.208-.447-2.376-.58-3.495a70 70 0 0 1-.38-3.151 56 56 0 0 1-.234-2.671 30 30 0 0 1-.11-2.067l-.052-1.81c-.005-.174-.237-.31-.411-.305-.173.005-.393.15-.393.323q.004.009.003.01M7.584 26.113l.915 2.252 1.038 2.59c.382.996.846 2.145 1.386 3.355 1.052 2.44 2.355 5.25 3.783 8.252 1.456 2.986 3.087 6.143 4.906 9.2a84 84 0 0 0 2.861 4.471 58 58 0 0 0 3.096 4.132c2.103 2.604 4.281 4.872 6.314 6.628a39 39 0 0 0 2.861 2.285c.878.646 1.656 1.191 2.329 1.591a29 29 0 0 0 1.559.927l.562.31a.316.316 0 0 0 .345-.524l-.008-.006-.501-.388c-.327-.252-.816-.605-1.412-1.09-.599-.478-1.327-1.058-2.138-1.748-.814-.687-1.7-1.5-2.658-2.392-.948-.903-1.972-1.885-2.996-2.984a60 60 0 0 1-3.154-3.517 96 96 0 0 1-3.122-3.977 91 91 0 0 1-2.984-4.311c-1.932-2.937-3.665-6.01-5.187-8.944-1.536-2.93-2.8-5.75-3.887-8.163a67 67 0 0 1-1.404-3.32l-1.03-2.594-.886-2.262-.002-.005a.314.314 0 1 0-.585.229zM20.288 31.39l.782 1.596c.504 1.013 1.178 2.48 1.957 4.25.765 1.776 1.657 3.85 2.369 6.155.741 2.288 1.276 4.816 2.061 7.324.796 2.508 1.969 4.918 3.264 6.996a75 75 0 0 0 3.731 5.52c2.282 3.139 4.004 5.092 4.004 5.092a.317.317 0 0 0 .517-.36s-1.229-2.294-3.373-5.53c-1.054-1.632-2.379-3.459-3.666-5.475-1.269-2.033-2.536-4.224-3.418-6.614-.912-2.38-1.578-4.895-2.41-7.194a90 90 0 0 0-2.513-6.164l-2.739-5.867a.315.315 0 0 0-.57.265z"/><path class="leaf-fill" fill="#93AF45" d="M55.391 130.773c.876-5.97 1.763-11.986 3.781-17.673s5.266-11.092 10.092-14.715c-.004 7.284-.019 14.657-1.799 21.722s-5.539 13.903-11.611 17.927"/><path class="leaf-fill" fill="#93AF45" d="M55.889 130.846c.814-5.966 1.712-11.953 3.766-17.573.518-1.413 1.08-2.77 1.76-4.102a34 34 0 0 1 2.26-3.827q.632-.911 1.319-1.777.697-.858 1.45-1.662a26 26 0 0 1 1.589-1.518 28 28 0 0 1 1.718-1.355l-1.295-.647c-.093 3.64-.176 7.267-.466 10.856a95 95 0 0 1-.265 2.682c-.112.889-.213 1.778-.342 2.662a63 63 0 0 1-.453 2.635 56 56 0 0 1-.592 2.598l-.36 1.297-.393 1.244c-.288.834-.574 1.668-.901 2.486-.329.818-.699 1.615-1.069 2.414a36 36 0 0 1-1.236 2.328 36 36 0 0 1-1.412 2.223l-.778 1.064-.824 1.03-.872.993-.92.954-.977.9-1.019.864-.026.022a.503.503 0 0 0 .581.817l1.21-.714 1.152-.81c.743-.574 1.477-1.169 2.151-1.83a27 27 0 0 0 1.91-2.088 32 32 0 0 0 1.67-2.284q.76-1.192 1.43-2.439c.442-.832.826-1.691 1.197-2.555.355-.87.695-1.746.983-2.64l.41-1.366.352-1.34a58 58 0 0 0 .585-2.736q.248-1.375.435-2.754c.116-.92.228-1.84.296-2.763q.102-1.383.164-2.764c.16-3.683.086-7.344-.002-10.984l-.001-.046a.797.797 0 0 0-1.295-.602q-.915.73-1.765 1.532a35 35 0 0 0-1.612 1.679 34 34 0 0 0-1.466 1.797q-.69.93-1.315 1.901a35 35 0 0 0-2.207 4.037 63 63 0 0 0-.918 2.102c-.29.72-.554 1.423-.807 2.144-.999 2.884-1.702 5.849-2.294 8.821-.574 2.977-1.041 5.967-1.501 8.948a.503.503 0 1 0 .995.146M55.251 122.567c-2.415-9.838-8.213-18.813-16.19-25.056-2.77-2.168-5.955-4.07-9.466-4.278 1.085 13.703 11.271 26.231 24.465 30.09l-.565.652"/><path class="leaf-fill" fill="#93AF45" d="M55.737 122.436c-.239-.823-.426-1.642-.71-2.468a37 37 0 0 0-.848-2.449 46 46 0 0 0-2.066-4.734 40 40 0 0 0-1.222-2.276c-.414-.755-.879-1.482-1.329-2.216-.481-.714-.94-1.445-1.459-2.134a42 42 0 0 0-1.568-2.057c-.537-.675-1.113-1.318-1.677-1.971-.585-.634-1.158-1.281-1.779-1.882-1.208-1.237-2.516-2.37-3.859-3.466-1.36-1.076-2.805-2.082-4.391-2.894-1.583-.804-3.336-1.394-5.181-1.542a.87.87 0 0 0-.936.954l.261 2.632.481 2.602.685 2.559.879 2.501c.351.81.707 1.62 1.077 2.423l1.266 2.33 1.43 2.233 1.586 2.126 1.738 2.005 1.897 1.856q1.009.864 2.034 1.703l2.163 1.534 2.285 1.341 2.387 1.139c.823.319 1.652.616 2.477.91l2.541.678-.274-.93-.51.7a.505.505 0 0 0 .76.658l.62-.604a.54.54 0 0 0-.167-.886l-.106-.044-2.328-.967a94 94 0 0 0-2.243-1.123l-2.159-1.259-2.064-1.398-1.97-1.521a111 111 0 0 0-1.865-1.645l-1.752-1.764-1.644-1.865-1.513-1.974-1.369-2.077-1.216-2.17q-.522-1.128-1.07-2.246l-.914-2.316-.735-2.38-.546-2.433-.355-2.47-.936.954c1.568.053 3.136.49 4.621 1.162 1.49.67 2.896 1.572 4.237 2.572 2.676 2.022 5.17 4.323 7.322 6.919a41 41 0 0 1 1.563 1.988c.518.666.977 1.374 1.459 2.067.451.712.918 1.417 1.334 2.151a39 39 0 0 1 1.202 2.229c.399.744.725 1.524 1.085 2.288.314.783.669 1.551.937 2.352.292.794.559 1.592.792 2.396.262.79.445 1.639.67 2.457l.004.013a.503.503 0 0 0 .97-.266z"/><path class="primary-fill" fill="#FF8189" d="m47.452 65.442-.296-.265c-.184-.176-.518-.434-.817-.774-.65-.652-1.591-1.766-2.44-3.37-.87-1.596-1.659-3.709-2.147-6.244-.522-2.526-.707-5.467-.735-8.692-.034-3.232.075-6.778-.343-10.556-.225-1.89-.575-3.818-1.217-5.76-.645-1.92-1.671-3.941-3.54-5.34a7.3 7.3 0 0 0-3.221-1.338 6 6 0 0 0-1.837.008q-.466.076-.919.235c-.164.067-.266.09-.48.197l-.35.175c-1.176.663-1.925 1.535-2.631 2.383-.688.845-1.302 1.67-1.984 2.296a5 5 0 0 1-1.034.736l-.362.172c-.11.046-.18.055-.269.088-.15.064-.396.098-.591.145-.842.134-1.758.032-2.668-.238-1.85-.53-3.505-1.672-5.268-2.948-1.772-1.24-3.762-2.634-6.309-3.12-.302-.047-.659-.107-.943-.124a7.4 7.4 0 0 0-1.019-.009 6.4 6.4 0 0 0-2.04.442c-1.386.508-2.517 1.77-3.047 2.996-.56 1.23-.767 2.472-.86 3.605-.063.49-.068 1.15-.085 1.736.019.574.022 1.15.091 1.714.209 2.27.811 4.43 1.59 6.438.779 2.014 1.778 3.868 2.854 5.6.277.445.527.828.846 1.301l.827 1.18c.519.774 1.186 1.577 1.762 2.346a61.4 61.4 0 0 0 7.505 7.71c2.498 2.186 4.946 3.974 7.137 5.502a104 104 0 0 0 5.822 3.709 99 99 0 0 0 3.848 2.188l1.38.737a.757.757 0 0 0 .806-1.275l-4.763-3.553c-1.505-1.134-3.339-2.496-5.367-4.137a111 111 0 0 1-6.621-5.665c-2.306-2.181-4.733-4.617-6.964-7.44-.539-.72-1.096-1.357-1.646-2.167l-.834-1.175a40 40 0 0 1-.747-1.14 33 33 0 0 1-2.621-5.012c-.72-1.758-1.267-3.607-1.475-5.498-.067-.474-.08-.947-.117-1.421.005-.463-.028-.86.021-1.422.038-.966.188-1.854.489-2.58.308-.724.701-1.184 1.334-1.466a3.5 3.5 0 0 1 1.089-.273c.191-.02.425-.024.594-.018.254.006.43.038.662.063 1.749.252 3.499 1.297 5.29 2.457 1.782 1.178 3.795 2.492 6.15 3.064 1.169.293 2.445.406 3.722.148.324-.084.613-.136.958-.281.16-.064.347-.134.48-.2l.355-.187a7 7 0 0 0 1.531-1.163c.856-.857 1.484-1.767 2.108-2.575.603-.797 1.282-1.527 1.926-1.916 1.46-.915 3.394-.555 4.841.43 1.452 1.01 2.422 2.678 3.052 4.413.621 1.76.979 3.61 1.219 5.408.452 3.621.397 7.133.473 10.392.04 3.266.227 6.294.777 8.943.527 2.645 1.329 4.9 2.246 6.645.909 1.759 1.892 2.966 2.66 3.757.375.42.662.64.855.828l.293.268a.755.755 0 0 0 1.019-1.113c.001.005-.005 0-.005 0"/><path class="primary-fill" fill="#FF8189" d="M34.162 23.349s.058-.366.048-1.052c-.001-.681.018-1.678.14-2.91.128-1.215.413-2.73 1.26-4.126.835-1.363 2.388-2.76 4.296-2.848.22-.008.503-.002.68.043.256.063.608.085.784.187.406.141.894.371 1.322.693.88.62 1.679 1.498 2.491 2.448.816.95 1.644 1.995 2.706 2.95.53.474 1.109.943 1.8 1.296.657.37 1.487.625 2.185.724 1.699.23 3.194-.155 4.608-.642 1.411-.485 2.714-1.086 4.024-1.52.651-.195 1.302-.389 1.935-.46.159-.029.317-.049.472-.05l.407-.027c.357.018.773.02 1 .08 1.146.168 2.346.752 3.31 1.557a9.5 9.5 0 0 1 2.382 2.974c.59 1.119.921 2.375 1.083 3.67.309 2.59-.067 5.273-.655 7.852-.625 2.627-1.349 5.07-2.232 7.374-.837 2.307-1.812 4.416-2.75 6.346-.967 1.916-1.914 3.648-2.826 5.143-.886 1.514-1.748 2.782-2.45 3.837-.723 1.04-1.29 1.867-1.699 2.413l-.612.855-.016.023a.757.757 0 0 0 1.119 1.008l.808-.718a34 34 0 0 0 2.182-2.145 45 45 0 0 0 3.072-3.648c1.09-1.486 2.278-3.206 3.385-5.198 1.138-1.974 2.171-4.224 3.12-6.66a56 56 0 0 0 2.294-7.895c.567-2.805.939-5.894.376-9.065-.275-1.564-.78-3.168-1.634-4.61a11.9 11.9 0 0 0-3.311-3.693c-1.363-.985-2.945-1.685-4.724-1.838-.5-.056-.82-.026-1.195-.024-.33.024-.452.048-.687.072a4.5 4.5 0 0 0-.612.103c-.814.15-1.553.42-2.274.687-1.422.55-2.716 1.207-3.977 1.7-.632.262-1.252.445-1.867.594-.599.119-1.249.177-1.748.131-2.472-.204-4.161-2.317-5.833-4.212-.851-.953-1.735-1.908-2.822-2.645a6.3 6.3 0 0 0-1.804-.875c-.355-.135-.588-.125-.88-.19-.375-.072-.663-.062-.991-.05-1.285.053-2.416.582-3.312 1.228a8.3 8.3 0 0 0-2.099 2.298c-1.008 1.707-1.307 3.37-1.483 4.693-.157 1.334-.161 2.37-.173 3.069l-.004 1.067c-.002.416.272.756.689.758s.695-.335.695-.752c-.003-.005-.003-.017-.003-.02"/><path class="primary-fill" fill="#FF8189" d="m72.953 21.998.112-.226c.043-.074.151-.25.324-.418.333-.34 1.075-.74 2.177-.675.54.029 1.15.172 1.735.469.294.146.572.34.821.575.091.091.294.294.397.422.115.136.233.28.35.45.952 1.31 1.488 3.182 2.106 5.288.305 1.05.704 2.206 1.306 3.299.602 1.09 1.454 2.21 2.728 2.927.638.361 1.338.575 2.038.694.685.114 1.349.16 1.978.23 1.27.133 2.322.463 2.838 1.341.278.434.454.99.544 1.58l.03.222.007.056c-.006-.057.001.026.001.026l.009.13.035.52c-.012.3.001.575-.04.898-.105 1.254-.508 2.51-1.079 3.72-.572 1.211-1.328 2.371-2.147 3.508l-.631.849-.659.823-1.366 1.697c-1.854 2.117-3.769 4.227-5.846 6.102-2.069 1.877-4.176 3.645-6.321 5.216a85 85 0 0 1-6.352 4.3c-2.079 1.284-4.097 2.418-5.975 3.447-.938.516-1.848.992-2.717 1.441-.868.453-1.686.896-2.477 1.268-1.554.806-2.936 1.461-4.067 2.027a181 181 0 0 0-3.57 1.773l-.019.01a.758.758 0 0 0 .53 1.409l1.025-.255c.664-.18 1.653-.404 2.876-.8a70 70 0 0 0 4.397-1.496c1.673-.65 3.559-1.404 5.551-2.38 2.017-.925 4.113-2.115 6.308-3.41 2.151-1.368 4.414-2.836 6.59-4.583 1.11-.842 2.18-1.774 3.267-2.711 1.055-.974 2.116-1.967 3.133-3.019 2.06-2.076 3.965-4.358 5.782-6.742 1.658-2.336 3.488-4.806 4.639-7.614.588-1.397 1.013-2.905 1.078-4.454.031-.373.005-.8-.007-1.195l-.057-.518-.014-.129-.024-.177-.052-.29c-.154-.767-.418-1.545-.904-2.243-.471-.71-1.23-1.253-1.982-1.535-.759-.28-1.496-.36-2.17-.422-1.355-.111-2.529-.15-3.435-.665-.93-.494-1.649-1.357-2.19-2.299-.548-.957-.924-1.953-1.244-2.986-.614-2.052-1.171-4.104-2.316-5.69a7 7 0 0 0-.455-.578c-.173-.2-.27-.293-.471-.494a5.3 5.3 0 0 0-1.125-.8 5.8 5.8 0 0 0-2.288-.666c-1.458-.125-2.678.415-3.299 1.028a3.4 3.4 0 0 0-.76 1.052.755.755 0 1 0 1.342.69z"/><path class="stem-fill" fill="#7B8E36" d="M47.428 78.619s.317 1.39.812 3.835c.263 1.223.551 2.704.837 4.409.304 1.701.64 3.624.961 5.733.318 2.108.618 4.397.926 6.82.336 2.419.577 4.984.834 7.635.237 2.653.433 5.399.582 8.192.156 2.792.23 5.632.332 8.466l.294 16.647c.01 2.654.118 5.215.112 7.647.045 2.431.122 4.729.199 6.851.106 2.123.213 4.07.33 5.798.153 1.73.272 3.24.405 4.486.116 1.245.261 2.227.355 2.896l.166 1.027.003.021a1.28 1.28 0 0 0 2.509.081l.233-1.02c.137-.666.346-1.643.544-2.892.231-1.247.411-2.766.619-4.511.192-1.745.356-3.717.454-5.871.115-2.153.143-4.488.12-6.957-.044-2.468-.13-5.071-.262-7.761-.17-2.689-.337-5.466-.637-8.28-.245-2.817-.628-5.667-.969-8.516-.398-2.845-.768-5.689-1.216-8.478l-1.239-8.19-1.215-7.64c-.393-2.427-.772-4.72-1.164-6.83a271 271 0 0 0-.995-5.772l-.789-4.442c-.45-2.454-.674-3.862-.674-3.862a1.258 1.258 0 0 0-2.485.394z"/><path class="stem-fill" fill="#7B8E36" d="M48.919 79.299c5.704-3.31 11.887-7.21 13.707-13.55.402-1.4.459-3.15-.682-4.054-.444-.352-1.008-.517-1.565-.623a9.5 9.5 0 0 0-6.853 1.35c-1.966 1.277-3.533 3.323-5.819 3.838-1.722.39-3.507-.187-5.138-.86-1.631-.675-3.271-1.47-5.034-1.542-1.764-.072-3.719.82-4.23 2.509-.564 1.864.787 3.737 2.169 5.11a33.1 33.1 0 0 0 13.922 8.236"/><path class="stem-fill" fill="#7B8E36" d="M49.173 79.733s1.054-.607 2.876-1.75c1.792-1.168 4.444-2.794 7.058-5.48 1.306-1.33 2.555-2.987 3.424-4.986.414-.992.832-2.052.894-3.277.033-.602-.018-1.25-.283-1.883a2.88 2.88 0 0 0-1.428-1.502c-.619-.3-1.261-.406-1.84-.495a10 10 0 0 0-1.88-.081 10.3 10.3 0 0 0-3.698.892c-2.413 1.047-4.062 3.205-6.009 3.955-1.902.805-4.073-.085-6.23-1.082-1.108-.486-2.29-1.008-3.633-1.22-1.348-.228-2.853-.035-4.099.672-.627.357-1.218.85-1.641 1.505a4 4 0 0 0-.285.51c-.046.086-.078.178-.113.27l-.051.136-.025.07-.012.034-.026.094c-.034.154-.066.227-.1.447a4 4 0 0 0-.059.618c-.019 1.538.67 2.74 1.35 3.683.714.954 1.53 1.69 2.253 2.356.768.714 1.539 1.303 2.298 1.875 3.054 2.244 5.959 3.532 8.035 4.207 1.038.344 1.863.576 2.432.707l.874.19a.505.505 0 0 0 .301-.957l-.016-.007-.799-.332c-.517-.225-1.281-.534-2.217-1a39.6 39.6 0 0 1-7.245-4.582 43 43 0 0 1-2.067-1.798c-.716-.678-1.408-1.334-1.938-2.073-.551-.721-.944-1.532-.928-2.224-.007-.101.011-.141.008-.206-.004-.055.053-.248.077-.365-.001.04.041-.126.072-.175.037-.076.07-.153.122-.225.179-.297.475-.562.835-.775 1.521-.937 3.595-.406 5.784.502 1.097.436 2.297.939 3.616 1.194 1.3.272 2.851.222 4.138-.4 1.283-.592 2.251-1.479 3.161-2.273.906-.804 1.757-1.533 2.756-2.025 1.962-.981 4.402-1.196 6.29-.536.83.328 1.168 1.258 1.136 2.255-.019.987-.384 1.983-.758 2.918-.776 1.864-1.923 3.447-3.154 4.742-1.235 1.297-2.527 2.337-3.708 3.207-1.18.874-2.272 1.555-3.175 2.11a96 96 0 0 1-2.88 1.692.503.503 0 1 0 .489.879l.004-.002z"/><path fill="#fff" d="M67.381 102.582s-.532 1.625-1.383 4.049a761 761 0 0 1-3.092 8.897c-.552 1.622-1.12 3.24-1.58 4.779-.476 1.534-.911 2.969-1.215 4.218a50 50 0 0 0-.666 3.037c-.136.74-.192 1.168-.192 1.168a.253.253 0 0 0 .485.132s.172-.396.435-1.099c.266-.702.616-1.713 1.013-2.932s.801-2.658 1.235-4.2c.455-1.535.882-3.191 1.342-4.837a159 159 0 0 1 2.705-9.005c.788-2.44 1.388-4.043 1.388-4.043a.252.252 0 1 0-.475-.164M32.737 97.749l.552 1.059c.359.666.856 1.647 1.514 2.774a49 49 0 0 0 1.083 1.814c.391.639.83 1.297 1.264 1.991a86 86 0 0 0 2.966 4.191c.543.686 1.082 1.377 1.647 2.029.545.67 1.131 1.285 1.691 1.886 1.141 1.183 2.236 2.262 3.261 3.088.496.432.984.788 1.415 1.104.427.32.8.598 1.131.797.642.421 1.021.642 1.021.642a.253.253 0 0 0 .31-.394l-.005-.006s-.303-.316-.856-.834l-2.275-2.147-1.512-1.433c-.548-.496-1.094-1.053-1.672-1.616l-1.727-1.789c-.593-.607-1.154-1.261-1.736-1.899a54 54 0 0 1-3.165-3.961 47 47 0 0 1-2.414-3.713c-.665-1.116-1.184-2.056-1.516-2.742l-.53-1.07a.253.253 0 0 0-.337-.114.25.25 0 0 0-.11.343"/></g><defs><clipPath id="a"><path fill="#fff" d="M0 0h110v170H0z"/></clipPath></defs></svg>