<svg xmlns="http://www.w3.org/2000/svg" width="62" height="79" fill="none"><path fill="#59332B" d="M4.953 50.82c1.673 12.253 3.426 22.445 4.65 23.81 3.249 3.62 14.85 3.991 21.44 4.27 6.59.278 18.47-1.485 20.049-3.34.693-.816 2.39-12.145 4.152-25.167-20.245 4.528-38.79 2.636-50.291.427ZM60.207 11.616l.132-1.034c.87-6.678 1.983-5.088.962-6.016C60.28 3.638 51.184-.176 31.043.006 18.328.121.693 2.141.043 3.72c-.132.32.049 3.27.447 7.8 13.698-1.739 36.285-3.385 59.717.097Z"/><path fill="#D87C48" d="M.49 11.517c.828 9.408 2.597 25.637 4.463 39.303 11.5 2.21 30.046 4.101 50.29-.428 2.093-15.469 4.274-33.318 4.964-38.776C36.775 8.134 14.187 9.78.49 11.517Z"/></svg>